<svg width="180" height="180" viewBox="0 0 180 180" fill="none" xmlns="http://www.w3.org/2000/svg">
<g clip-path="url(#clip0_1696_27096)">
<path d="M87.3359 89.6955C88.2488 89.04 89.5223 89.2653 90.1551 90.194L120 134L148.103 170.534C148.991 171.688 148.388 173.374 146.97 173.702L68.897 191.792C68.3278 191.924 67.7294 191.8 67.259 191.454L17.2555 154.602C17.0432 154.446 16.864 154.249 16.7281 154.023L11.9505 146.08C11.4136 145.187 11.6518 144.032 12.498 143.425L87.3359 89.6955Z" fill="#C0BD20"/>
<path d="M87.3976 84.5053C87.2759 84.9389 87.0114 85.3186 86.6469 85.5831L30.4596 126.365L-7.29202 150.174C-8.66492 151.04 -10.443 149.996 -10.356 148.375L-2.78387 7.32532C-2.73838 6.47796 -2.16311 5.75156 -1.34871 5.51312L116.057 -28.8605C117.564 -29.3018 118.969 -27.9126 118.544 -26.4003L104.514 23.5584L87.3976 84.5053Z" fill="#59A2A9"/>
<path d="M91.5617 86.2811C91.2079 85.7875 91.0976 85.1599 91.2619 84.5752L103.502 41.0001L122.967 -24.9916C123.415 -26.5082 125.362 -26.9305 126.397 -25.7354L224.711 87.7398C225.362 88.4905 225.362 89.6048 224.713 90.3566L174.717 148.251C174.575 148.416 174.406 148.557 174.218 148.667L149.101 163.448C148.209 163.972 147.064 163.73 146.461 162.889L91.5617 86.2811Z" fill="#E5674F"/>
<path d="M26.8245 54C26.7445 54 26.6765 53.976 26.6205 53.928C26.5725 53.872 26.5485 53.804 26.5485 53.724V53.22C26.5485 53.132 26.5725 53.064 26.6205 53.016C26.6765 52.96 26.7445 52.932 26.8245 52.932H27.2445C27.5005 52.932 27.7205 52.872 27.9045 52.752C28.0885 52.624 28.2605 52.428 28.4205 52.164C28.5885 51.9 28.7605 51.556 28.9365 51.132L31.2765 45.804C31.3005 45.732 31.3405 45.68 31.3965 45.648C31.4525 45.616 31.5125 45.6 31.5765 45.6H32.2245C32.2885 45.6 32.3445 45.624 32.3925 45.672C32.4405 45.72 32.4645 45.776 32.4645 45.84C32.4645 45.872 32.4605 45.904 32.4525 45.936C32.4525 45.96 32.4445 45.984 32.4285 46.008L29.9805 51.552C29.7885 51.976 29.6085 52.344 29.4405 52.656C29.2725 52.96 29.0925 53.212 28.9005 53.412C28.7085 53.612 28.4845 53.76 28.2285 53.856C27.9725 53.952 27.6645 54 27.3045 54H26.8245ZM28.8645 51.96L25.5885 45.984C25.5645 45.936 25.5525 45.892 25.5525 45.852C25.5525 45.788 25.5765 45.732 25.6245 45.684C25.6805 45.628 25.7405 45.6 25.8045 45.6H26.4765C26.5485 45.6 26.6085 45.616 26.6565 45.648C26.7045 45.68 26.7445 45.732 26.7765 45.804L29.5005 50.76L28.8645 51.96ZM33.6269 54C33.5469 54 33.4789 53.976 33.4229 53.928C33.3749 53.872 33.3509 53.804 33.3509 53.724V48.036C33.3509 47.956 33.3749 47.892 33.4229 47.844C33.4789 47.788 33.5469 47.76 33.6269 47.76H37.2149C37.2949 47.76 37.3589 47.788 37.4069 47.844C37.4549 47.892 37.4789 47.956 37.4789 48.036V48.444C37.4789 48.524 37.4549 48.592 37.4069 48.648C37.3589 48.696 37.2949 48.72 37.2149 48.72H34.4669V53.724C34.4669 53.804 34.4429 53.872 34.3949 53.928C34.3469 53.976 34.2829 54 34.2029 54H33.6269ZM38.2071 54C38.1271 54 38.0591 53.972 38.0031 53.916C37.9471 53.86 37.9191 53.792 37.9191 53.712V53.268C37.9191 53.1 38.0031 53.012 38.1711 53.004C38.4191 52.996 38.6271 52.88 38.7951 52.656C38.9631 52.424 39.0911 52.06 39.1791 51.564C39.2671 51.06 39.3111 50.396 39.3111 49.572V48.036C39.3111 47.956 39.3351 47.892 39.3831 47.844C39.4391 47.788 39.5071 47.76 39.5871 47.76H43.4031C43.4831 47.76 43.5471 47.788 43.5951 47.844C43.6511 47.892 43.6791 47.956 43.6791 48.036V53.724C43.6791 53.804 43.6511 53.872 43.5951 53.928C43.5471 53.976 43.4831 54 43.4031 54H42.8271C42.7471 54 42.6831 53.976 42.6351 53.928C42.5871 53.872 42.5631 53.804 42.5631 53.724V48.72H40.4031V49.704C40.4031 50.472 40.3591 51.132 40.2711 51.684C40.1831 52.228 40.0471 52.672 39.8631 53.016C39.6871 53.352 39.4591 53.6 39.1791 53.76C38.9071 53.92 38.5831 54 38.2071 54ZM47.9521 54.12C47.1281 54.12 46.4721 53.868 45.9841 53.364C45.4961 52.852 45.2281 52.156 45.1801 51.276C45.1721 51.172 45.1681 51.04 45.1681 50.88C45.1681 50.712 45.1721 50.576 45.1801 50.472C45.2121 49.904 45.3441 49.408 45.5761 48.984C45.8081 48.552 46.1241 48.22 46.5241 47.988C46.9321 47.756 47.4081 47.64 47.9521 47.64C48.5601 47.64 49.0681 47.768 49.4761 48.024C49.8921 48.28 50.2081 48.644 50.4241 49.116C50.6401 49.588 50.7481 50.14 50.7481 50.772V50.976C50.7481 51.064 50.7201 51.132 50.6641 51.18C50.6161 51.228 50.5521 51.252 50.4721 51.252H46.3201C46.3201 51.26 46.3201 51.276 46.3201 51.3C46.3201 51.324 46.3201 51.344 46.3201 51.36C46.3361 51.688 46.4081 51.996 46.5361 52.284C46.6641 52.564 46.8481 52.792 47.0881 52.968C47.3281 53.144 47.6161 53.232 47.9521 53.232C48.2401 53.232 48.4801 53.188 48.6721 53.1C48.8641 53.012 49.0201 52.916 49.1401 52.812C49.2601 52.7 49.3401 52.616 49.3801 52.56C49.4521 52.456 49.5081 52.396 49.5481 52.38C49.5881 52.356 49.6521 52.344 49.7401 52.344H50.3161C50.3961 52.344 50.4601 52.368 50.5081 52.416C50.5641 52.456 50.5881 52.516 50.5801 52.596C50.5721 52.716 50.5081 52.864 50.3881 53.04C50.2681 53.208 50.0961 53.376 49.8721 53.544C49.6481 53.712 49.3761 53.852 49.0561 53.964C48.7361 54.068 48.3681 54.12 47.9521 54.12ZM46.3201 50.424H49.6081V50.388C49.6081 50.028 49.5401 49.708 49.4041 49.428C49.2761 49.148 49.0881 48.928 48.8401 48.768C48.5921 48.6 48.2961 48.516 47.9521 48.516C47.6081 48.516 47.3121 48.6 47.0641 48.768C46.8241 48.928 46.6401 49.148 46.5121 49.428C46.3841 49.708 46.3201 50.028 46.3201 50.388V50.424ZM52.4589 54C52.3789 54 52.3109 53.976 52.2549 53.928C52.2069 53.872 52.1829 53.804 52.1829 53.724V48.036C52.1829 47.956 52.2069 47.892 52.2549 47.844C52.3109 47.788 52.3789 47.76 52.4589 47.76H54.9549C55.7069 47.76 56.2709 47.912 56.6469 48.216C57.0309 48.52 57.2229 48.928 57.2229 49.44C57.2229 49.8 57.1549 50.072 57.0189 50.256C56.8829 50.44 56.6909 50.596 56.4429 50.724C56.7469 50.852 56.9749 51.06 57.1269 51.348C57.2869 51.628 57.3669 51.92 57.3669 52.224C57.3669 52.8 57.1629 53.24 56.7549 53.544C56.3469 53.848 55.7789 54 55.0509 54H52.4589ZM53.2869 53.124H54.9549C55.3389 53.124 55.6469 53.052 55.8789 52.908C56.1189 52.756 56.2389 52.528 56.2389 52.224C56.2389 51.904 56.1309 51.672 55.9149 51.528C55.6989 51.376 55.3789 51.3 54.9549 51.3H53.2869V53.124ZM53.2869 50.412H54.8829C55.2669 50.412 55.5709 50.328 55.7949 50.16C56.0269 49.992 56.1429 49.756 56.1429 49.452C56.1429 49.14 56.0269 48.928 55.7949 48.816C55.5709 48.696 55.2669 48.636 54.8829 48.636H53.2869V50.412ZM61.4655 54.12C60.8575 54.12 60.3495 54.004 59.9415 53.772C59.5335 53.54 59.2215 53.22 59.0055 52.812C58.7895 52.396 58.6695 51.924 58.6455 51.396C58.6375 51.26 58.6335 51.088 58.6335 50.88C58.6335 50.664 58.6375 50.492 58.6455 50.364C58.6695 49.828 58.7895 49.356 59.0055 48.948C59.2295 48.54 59.5455 48.22 59.9535 47.988C60.3615 47.756 60.8655 47.64 61.4655 47.64C62.0655 47.64 62.5695 47.756 62.9775 47.988C63.3855 48.22 63.6975 48.54 63.9135 48.948C64.1375 49.356 64.2615 49.828 64.2855 50.364C64.2935 50.492 64.2975 50.664 64.2975 50.88C64.2975 51.088 64.2935 51.26 64.2855 51.396C64.2615 51.924 64.1415 52.396 63.9255 52.812C63.7095 53.22 63.3975 53.54 62.9895 53.772C62.5815 54.004 62.0735 54.12 61.4655 54.12ZM61.4655 53.196C61.9615 53.196 62.3575 53.04 62.6535 52.728C62.9495 52.408 63.1095 51.944 63.1335 51.336C63.1415 51.216 63.1455 51.064 63.1455 50.88C63.1455 50.696 63.1415 50.544 63.1335 50.424C63.1095 49.816 62.9495 49.356 62.6535 49.044C62.3575 48.724 61.9615 48.564 61.4655 48.564C60.9695 48.564 60.5695 48.724 60.2655 49.044C59.9695 49.356 59.8135 49.816 59.7975 50.424C59.7895 50.544 59.7855 50.696 59.7855 50.88C59.7855 51.064 59.7895 51.216 59.7975 51.336C59.8135 51.944 59.9695 52.408 60.2655 52.728C60.5695 53.04 60.9695 53.196 61.4655 53.196ZM65.4401 55.32C65.3601 55.32 65.2921 55.292 65.2361 55.236C65.1881 55.188 65.1641 55.124 65.1641 55.044V53.316C65.1641 53.236 65.1881 53.172 65.2361 53.124C65.2921 53.068 65.3601 53.04 65.4401 53.04H65.5001C65.7161 53.032 65.9001 52.912 66.0521 52.68C66.2041 52.44 66.3201 52.068 66.4001 51.564C66.4801 51.052 66.5201 50.388 66.5201 49.572V48.036C66.5201 47.956 66.5441 47.892 66.5921 47.844C66.6481 47.788 66.7161 47.76 66.7961 47.76H70.6241C70.7041 47.76 70.7681 47.788 70.8161 47.844C70.8721 47.892 70.9001 47.956 70.9001 48.036V53.016H71.4641C71.5521 53.016 71.6201 53.044 71.6681 53.1C71.7161 53.148 71.7401 53.212 71.7401 53.292V55.044C71.7401 55.124 71.7161 55.188 71.6681 55.236C71.6201 55.292 71.5521 55.32 71.4641 55.32H70.9001C70.8201 55.32 70.7521 55.292 70.6961 55.236C70.6481 55.188 70.6241 55.124 70.6241 55.044V54H66.2801V55.044C66.2801 55.124 66.2521 55.188 66.1961 55.236C66.1481 55.292 66.0841 55.32 66.0041 55.32H65.4401ZM66.9281 53.04L69.7841 53.016V48.72H67.6121V49.704C67.6121 50.552 67.5521 51.248 67.4321 51.792C67.3121 52.328 67.1441 52.744 66.9281 53.04ZM73.2714 54C73.1914 54 73.1234 53.976 73.0674 53.928C73.0194 53.872 72.9954 53.804 72.9954 53.724V48.036C72.9954 47.956 73.0194 47.892 73.0674 47.844C73.1234 47.788 73.1914 47.76 73.2714 47.76H73.8474C73.9274 47.76 73.9914 47.788 74.0394 47.844C74.0954 47.892 74.1234 47.956 74.1234 48.036V49.8H75.3714C76.1874 49.8 76.7834 49.992 77.1594 50.376C77.5354 50.76 77.7234 51.28 77.7234 51.936C77.7234 52.64 77.5154 53.16 77.0994 53.496C76.6834 53.832 76.0594 54 75.2274 54H73.2714ZM74.1114 53.1H75.2634C75.7514 53.1 76.1074 53.016 76.3314 52.848C76.5554 52.672 76.6674 52.368 76.6674 51.936C76.6674 51.52 76.5594 51.212 76.3434 51.012C76.1274 50.804 75.7674 50.7 75.2634 50.7H74.1114V53.1ZM78.8514 54C78.7714 54 78.7034 53.976 78.6474 53.928C78.5994 53.872 78.5754 53.804 78.5754 53.724V48.036C78.5754 47.956 78.5994 47.892 78.6474 47.844C78.7034 47.788 78.7714 47.76 78.8514 47.76H79.4274C79.5074 47.76 79.5714 47.788 79.6194 47.844C79.6754 47.892 79.7034 47.956 79.7034 48.036V53.724C79.7034 53.804 79.6754 53.872 79.6194 53.928C79.5714 53.976 79.5074 54 79.4274 54H78.8514Z" fill="#EAE4CE"/>
<path d="M29.7033 89.16C28.8606 89.16 28.1459 89.016 27.5593 88.728C26.9833 88.4293 26.5406 88.0453 26.2313 87.576C25.9326 87.1067 25.7726 86.6107 25.7513 86.088C25.7406 85.992 25.7673 85.9173 25.8313 85.864C25.8953 85.8107 25.9753 85.784 26.0713 85.784H26.9353C27.0313 85.784 27.1166 85.8053 27.1913 85.848C27.2659 85.8907 27.3246 85.9813 27.3673 86.12C27.4739 86.5147 27.6446 86.84 27.8793 87.096C28.1246 87.3413 28.4019 87.5227 28.7113 87.64C29.0313 87.7467 29.3619 87.8 29.7033 87.8C30.1619 87.8 30.5779 87.7093 30.9513 87.528C31.3353 87.336 31.6393 87.0587 31.8633 86.696C32.0873 86.3227 32.1993 85.8747 32.1993 85.352C32.1993 84.872 32.0873 84.4613 31.8633 84.12C31.6499 83.768 31.3513 83.5013 30.9673 83.32C30.5939 83.128 30.1726 83.032 29.7033 83.032C29.3513 83.032 29.0633 83.0747 28.8393 83.16C28.6153 83.2453 28.4233 83.3467 28.2633 83.464C28.1139 83.5813 27.9753 83.6827 27.8473 83.768C27.7299 83.8533 27.5966 83.896 27.4473 83.896H26.6153C26.5193 83.896 26.4339 83.864 26.3593 83.8C26.2846 83.7253 26.2526 83.64 26.2633 83.544L26.7753 78.2C26.7859 78.072 26.8233 77.976 26.8873 77.912C26.9619 77.8373 27.0579 77.8 27.1753 77.8H32.7593C32.8659 77.8 32.9513 77.8373 33.0153 77.912C33.0899 77.976 33.1273 78.0613 33.1273 78.168V78.792C33.1273 78.9093 33.0899 79 33.0153 79.064C32.9513 79.128 32.8659 79.16 32.7593 79.16H28.1513L27.8473 82.312C27.9966 82.216 28.2366 82.104 28.5673 81.976C28.8979 81.8373 29.3513 81.768 29.9273 81.768C30.4499 81.768 30.9406 81.848 31.3993 82.008C31.8686 82.168 32.2846 82.4027 32.6473 82.712C33.0099 83.0213 33.2926 83.4 33.4953 83.848C33.6979 84.2853 33.7993 84.792 33.7993 85.368C33.7993 86.1787 33.6179 86.8667 33.2552 87.432C32.9033 87.9973 32.4179 88.4293 31.7993 88.728C31.1913 89.016 30.4926 89.16 29.7033 89.16ZM39.4593 89.16C38.5739 89.16 37.8219 88.984 37.2033 88.632C36.5846 88.2693 36.1099 87.8 35.7793 87.224C35.4593 86.6373 35.2993 86.0027 35.2993 85.32C35.2993 85 35.3366 84.696 35.4113 84.408C35.4966 84.1093 35.5979 83.832 35.7153 83.576C35.8433 83.3093 35.9659 83.0747 36.0833 82.872C36.2113 82.6587 36.3233 82.488 36.4193 82.36L39.4593 78.12C39.5126 78.0667 39.5766 78.0027 39.6513 77.928C39.7259 77.8427 39.8379 77.8 39.9873 77.8H40.8353C40.9313 77.8 41.0059 77.8373 41.0593 77.912C41.1233 77.976 41.1553 78.056 41.1553 78.152C41.1553 78.1947 41.1499 78.2373 41.1393 78.28C41.1286 78.312 41.1126 78.3387 41.0913 78.36L38.7552 81.624C38.8833 81.5813 39.0273 81.5547 39.1873 81.544C39.3579 81.5227 39.5179 81.512 39.6673 81.512C40.2539 81.5227 40.7873 81.6293 41.2673 81.832C41.7473 82.0347 42.1579 82.312 42.4993 82.664C42.8513 83.0053 43.1179 83.4053 43.2993 83.864C43.4806 84.312 43.5712 84.792 43.5712 85.304C43.5712 85.976 43.4113 86.6053 43.0913 87.192C42.7713 87.7787 42.3019 88.2533 41.6833 88.616C41.0753 88.9787 40.3339 89.16 39.4593 89.16ZM39.4433 87.8C39.8913 87.8 40.3073 87.704 40.6913 87.512C41.0753 87.32 41.3846 87.0427 41.6193 86.68C41.8646 86.3067 41.9873 85.8533 41.9873 85.32C41.9873 84.776 41.8699 84.3227 41.6353 83.96C41.4006 83.5867 41.0859 83.3093 40.6913 83.128C40.3073 82.936 39.8913 82.84 39.4433 82.84C38.9953 82.84 38.5793 82.936 38.1953 83.128C37.8113 83.3093 37.4966 83.5867 37.2513 83.96C37.0166 84.3227 36.8993 84.776 36.8993 85.32C36.8993 85.8533 37.0166 86.3067 37.2513 86.68C37.4966 87.0427 37.8113 87.32 38.1953 87.512C38.5793 87.704 38.9953 87.8 39.4433 87.8ZM49.6458 89C49.5391 89 49.4484 88.968 49.3738 88.904C49.3098 88.8293 49.2778 88.7387 49.2778 88.632V81.048C49.2778 80.9413 49.3098 80.856 49.3738 80.792C49.4484 80.7173 49.5391 80.68 49.6458 80.68H54.4298C54.5364 80.68 54.6218 80.7173 54.6858 80.792C54.7498 80.856 54.7818 80.9413 54.7818 81.048V81.592C54.7818 81.6987 54.7498 81.7893 54.6858 81.864C54.6218 81.928 54.5364 81.96 54.4298 81.96H50.7658V88.632C50.7658 88.7387 50.7338 88.8293 50.6698 88.904C50.6058 88.968 50.5204 89 50.4138 89H49.6458Z" fill="#EAE4CE"/>
<path d="M126.979 95.16C126.307 95.16 125.72 95.08 125.219 94.92C124.718 94.7493 124.296 94.5253 123.955 94.248C123.614 93.9707 123.352 93.6667 123.171 93.336C123 93.0053 122.91 92.664 122.899 92.312C122.899 92.216 122.931 92.1413 122.995 92.088C123.059 92.0347 123.139 92.008 123.235 92.008H124.019C124.115 92.008 124.2 92.0293 124.275 92.072C124.35 92.1147 124.414 92.2053 124.467 92.344C124.574 92.728 124.755 93.0267 125.011 93.24C125.278 93.4533 125.582 93.6027 125.923 93.688C126.275 93.7627 126.627 93.8 126.979 93.8C127.715 93.8 128.312 93.624 128.771 93.272C129.23 92.92 129.459 92.4027 129.459 91.72C129.459 91.0267 129.251 90.5307 128.835 90.232C128.419 89.9333 127.843 89.784 127.107 89.784H125.587C125.48 89.784 125.39 89.752 125.315 89.688C125.251 89.624 125.219 89.5333 125.219 89.416V88.984C125.219 88.888 125.235 88.808 125.267 88.744C125.31 88.6693 125.352 88.6053 125.395 88.552L128.499 85.16H123.779C123.672 85.16 123.582 85.128 123.507 85.064C123.443 85 123.411 84.9093 123.411 84.792V84.184C123.411 84.0667 123.443 83.976 123.507 83.912C123.582 83.8373 123.672 83.8 123.779 83.8H130.163C130.28 83.8 130.371 83.8373 130.435 83.912C130.51 83.976 130.547 84.0667 130.547 84.184V84.76C130.547 84.8347 130.526 84.904 130.483 84.968C130.451 85.0213 130.414 85.0747 130.371 85.128L127.283 88.568L127.539 88.584C128.243 88.6053 128.856 88.7333 129.379 88.968C129.912 89.2027 130.323 89.5547 130.611 90.024C130.91 90.4827 131.059 91.064 131.059 91.768C131.059 92.4827 130.883 93.096 130.531 93.608C130.179 94.1093 129.694 94.4933 129.075 94.76C128.456 95.0267 127.758 95.16 126.979 95.16ZM136.908 95.16C136.29 95.16 135.719 95.0853 135.196 94.936C134.684 94.776 134.242 94.552 133.868 94.264C133.506 93.9653 133.223 93.608 133.02 93.192C132.818 92.776 132.716 92.3067 132.716 91.784C132.716 91.1333 132.871 90.5733 133.18 90.104C133.5 89.6347 133.922 89.2773 134.444 89.032C134.028 88.7867 133.703 88.4667 133.468 88.072C133.234 87.6773 133.116 87.208 133.116 86.664C133.116 86.024 133.271 85.4853 133.58 85.048C133.9 84.6 134.343 84.2533 134.908 84.008C135.484 83.7627 136.151 83.64 136.908 83.64C137.655 83.64 138.311 83.7627 138.876 84.008C139.452 84.2427 139.895 84.584 140.204 85.032C140.524 85.48 140.684 86.0187 140.684 86.648C140.684 87.192 140.567 87.6667 140.332 88.072C140.098 88.4667 139.778 88.7867 139.372 89.032C139.895 89.2773 140.311 89.6347 140.62 90.104C140.94 90.5733 141.1 91.1333 141.1 91.784C141.1 92.4773 140.924 93.08 140.572 93.592C140.22 94.0933 139.73 94.4827 139.1 94.76C138.471 95.0267 137.74 95.16 136.908 95.16ZM136.908 93.88C137.399 93.88 137.842 93.7947 138.236 93.624C138.631 93.4533 138.946 93.2133 139.18 92.904C139.415 92.584 139.532 92.2107 139.532 91.784C139.532 91.3467 139.415 90.9787 139.18 90.68C138.946 90.3707 138.631 90.136 138.236 89.976C137.842 89.8053 137.399 89.72 136.908 89.72C136.418 89.72 135.97 89.8053 135.564 89.976C135.17 90.136 134.855 90.3707 134.62 90.68C134.386 90.9787 134.268 91.3467 134.268 91.784C134.268 92.2107 134.386 92.584 134.62 92.904C134.855 93.2133 135.17 93.4533 135.564 93.624C135.97 93.7947 136.418 93.88 136.908 93.88ZM136.908 88.456C137.314 88.456 137.687 88.3813 138.028 88.232C138.38 88.0827 138.658 87.88 138.86 87.624C139.074 87.368 139.18 87.0587 139.18 86.696C139.18 86.3333 139.079 86.0187 138.876 85.752C138.684 85.4853 138.412 85.2827 138.06 85.144C137.719 84.9947 137.335 84.92 136.908 84.92C136.482 84.92 136.092 84.9947 135.74 85.144C135.399 85.2827 135.127 85.4853 134.924 85.752C134.722 86.0187 134.62 86.3333 134.62 86.696C134.62 87.0693 134.722 87.3893 134.924 87.656C135.127 87.912 135.399 88.1093 135.74 88.248C136.092 88.3867 136.482 88.456 136.908 88.456ZM147.466 95C147.359 95 147.269 94.968 147.194 94.904C147.13 94.8293 147.098 94.7387 147.098 94.632V87.048C147.098 86.9413 147.13 86.856 147.194 86.792C147.269 86.7173 147.359 86.68 147.466 86.68H152.25C152.357 86.68 152.442 86.7173 152.506 86.792C152.57 86.856 152.602 86.9413 152.602 87.048V87.592C152.602 87.6987 152.57 87.7893 152.506 87.864C152.442 87.928 152.357 87.96 152.25 87.96H148.586V94.632C148.586 94.7387 148.554 94.8293 148.49 94.904C148.426 94.968 148.341 95 148.234 95H147.466Z" fill="#EAE4CE"/>
<path d="M70.1676 156C70.061 156 69.9703 155.968 69.8956 155.904C69.8316 155.829 69.7996 155.739 69.7996 155.632V155.12C69.7996 155.024 69.8263 154.917 69.8796 154.8C69.933 154.683 70.0396 154.555 70.1996 154.416L73.5916 151.024C74.1356 150.565 74.5623 150.176 74.8716 149.856C75.1916 149.525 75.4156 149.211 75.5436 148.912C75.6823 148.613 75.7516 148.304 75.7516 147.984C75.7516 147.376 75.581 146.896 75.2396 146.544C74.8983 146.181 74.3916 146 73.7196 146C73.293 146 72.925 146.091 72.6156 146.272C72.3063 146.443 72.061 146.683 71.8796 146.992C71.709 147.291 71.597 147.632 71.5436 148.016C71.5223 148.155 71.4636 148.251 71.3676 148.304C71.2823 148.357 71.2023 148.384 71.1276 148.384H70.2956C70.1996 148.384 70.1196 148.357 70.0556 148.304C69.9916 148.24 69.9596 148.165 69.9596 148.08C69.9703 147.675 70.0556 147.269 70.2156 146.864C70.3756 146.448 70.6103 146.075 70.9196 145.744C71.2396 145.413 71.629 145.147 72.0876 144.944C72.557 144.731 73.101 144.624 73.7196 144.624C74.5623 144.624 75.2503 144.779 75.7836 145.088C76.3276 145.387 76.7276 145.787 76.9836 146.288C77.2396 146.789 77.3676 147.339 77.3676 147.936C77.3676 148.405 77.2876 148.837 77.1276 149.232C76.9676 149.616 76.733 149.995 76.4236 150.368C76.125 150.731 75.7516 151.104 75.3036 151.488L72.2316 154.608H77.2236C77.341 154.608 77.4316 154.64 77.4956 154.704C77.5703 154.768 77.6076 154.859 77.6076 154.976V155.632C77.6076 155.739 77.5703 155.829 77.4956 155.904C77.4316 155.968 77.341 156 77.2236 156H70.1676ZM84.666 156C84.5593 156 84.4687 155.968 84.394 155.904C84.33 155.829 84.298 155.739 84.298 155.632V153.328H79.114C79.0073 153.328 78.9167 153.296 78.842 153.232C78.778 153.157 78.746 153.067 78.746 152.96V152.32C78.746 152.277 78.7567 152.213 78.778 152.128C78.81 152.032 78.858 151.936 78.922 151.84L83.722 145.072C83.85 144.891 84.0473 144.8 84.314 144.8H85.466C85.5727 144.8 85.658 144.837 85.722 144.912C85.7967 144.976 85.834 145.061 85.834 145.168V151.936H87.274C87.3913 151.936 87.482 151.973 87.546 152.048C87.6207 152.112 87.658 152.197 87.658 152.304V152.96C87.658 153.067 87.6207 153.157 87.546 153.232C87.482 153.296 87.3967 153.328 87.29 153.328H85.834V155.632C85.834 155.739 85.7967 155.829 85.722 155.904C85.658 155.968 85.5727 156 85.466 156H84.666ZM80.458 151.968H84.314V146.48L80.458 151.968ZM93.6614 156C93.5547 156 93.464 155.968 93.3894 155.904C93.3254 155.829 93.2934 155.739 93.2934 155.632V148.048C93.2934 147.941 93.3254 147.856 93.3894 147.792C93.464 147.717 93.5547 147.68 93.6614 147.68H98.4454C98.552 147.68 98.6374 147.717 98.7014 147.792C98.7654 147.856 98.7974 147.941 98.7974 148.048V148.592C98.7974 148.699 98.7654 148.789 98.7014 148.864C98.6374 148.928 98.552 148.96 98.4454 148.96H94.7814V155.632C94.7814 155.739 94.7494 155.829 94.6854 155.904C94.6214 155.968 94.536 156 94.4294 156H93.6614Z" fill="#EAE4CE"/>
<path d="M118.777 65C118.689 65 118.621 64.976 118.573 64.928C118.525 64.872 118.501 64.804 118.501 64.724V56.888C118.501 56.8 118.525 56.732 118.573 56.684C118.621 56.628 118.689 56.6 118.777 56.6H123.997C124.085 56.6 124.153 56.628 124.201 56.684C124.249 56.732 124.273 56.8 124.273 56.888V57.368C124.273 57.448 124.249 57.516 124.201 57.572C124.153 57.62 124.085 57.644 123.997 57.644H119.677V60.068H122.053C122.901 60.068 123.561 60.288 124.033 60.728C124.505 61.168 124.741 61.76 124.741 62.504C124.741 62.8 124.685 63.096 124.573 63.392C124.461 63.688 124.293 63.956 124.069 64.196C123.853 64.436 123.577 64.632 123.241 64.784C122.905 64.928 122.509 65 122.053 65H118.777ZM119.677 64.028H121.909C122.261 64.028 122.557 63.96 122.797 63.824C123.037 63.68 123.221 63.488 123.349 63.248C123.477 63.008 123.541 62.748 123.541 62.468C123.541 62.044 123.405 61.7 123.133 61.436C122.869 61.164 122.461 61.028 121.909 61.028H119.677V64.028ZM128.493 65.12C127.669 65.12 127.013 64.868 126.525 64.364C126.037 63.852 125.769 63.156 125.721 62.276C125.713 62.172 125.709 62.04 125.709 61.88C125.709 61.712 125.713 61.576 125.721 61.472C125.753 60.904 125.885 60.408 126.117 59.984C126.349 59.552 126.665 59.22 127.065 58.988C127.473 58.756 127.949 58.64 128.493 58.64C129.101 58.64 129.609 58.768 130.017 59.024C130.433 59.28 130.749 59.644 130.965 60.116C131.181 60.588 131.289 61.14 131.289 61.772V61.976C131.289 62.064 131.261 62.132 131.205 62.18C131.157 62.228 131.093 62.252 131.013 62.252H126.861C126.861 62.26 126.861 62.276 126.861 62.3C126.861 62.324 126.861 62.344 126.861 62.36C126.877 62.688 126.949 62.996 127.077 63.284C127.205 63.564 127.389 63.792 127.629 63.968C127.869 64.144 128.157 64.232 128.493 64.232C128.781 64.232 129.021 64.188 129.213 64.1C129.405 64.012 129.561 63.916 129.681 63.812C129.801 63.7 129.881 63.616 129.921 63.56C129.993 63.456 130.049 63.396 130.089 63.38C130.129 63.356 130.193 63.344 130.281 63.344H130.857C130.937 63.344 131.001 63.368 131.049 63.416C131.105 63.456 131.129 63.516 131.121 63.596C131.113 63.716 131.049 63.864 130.929 64.04C130.809 64.208 130.637 64.376 130.413 64.544C130.189 64.712 129.917 64.852 129.597 64.964C129.277 65.068 128.909 65.12 128.493 65.12ZM126.861 61.424H130.149V61.388C130.149 61.028 130.081 60.708 129.945 60.428C129.817 60.148 129.629 59.928 129.381 59.768C129.133 59.6 128.837 59.516 128.493 59.516C128.149 59.516 127.853 59.6 127.605 59.768C127.365 59.928 127.181 60.148 127.053 60.428C126.925 60.708 126.861 61.028 126.861 61.388V61.424ZM132.424 65C132.344 65 132.276 64.972 132.22 64.916C132.164 64.86 132.136 64.792 132.136 64.712V64.268C132.136 64.1 132.22 64.012 132.388 64.004C132.636 63.996 132.844 63.88 133.012 63.656C133.18 63.424 133.308 63.06 133.396 62.564C133.484 62.06 133.528 61.396 133.528 60.572V59.036C133.528 58.956 133.552 58.892 133.6 58.844C133.656 58.788 133.724 58.76 133.804 58.76H137.62C137.7 58.76 137.764 58.788 137.812 58.844C137.868 58.892 137.896 58.956 137.896 59.036V64.724C137.896 64.804 137.868 64.872 137.812 64.928C137.764 64.976 137.7 65 137.62 65H137.044C136.964 65 136.9 64.976 136.852 64.928C136.804 64.872 136.78 64.804 136.78 64.724V59.72H134.62V60.704C134.62 61.472 134.576 62.132 134.488 62.684C134.4 63.228 134.264 63.672 134.08 64.016C133.904 64.352 133.676 64.6 133.396 64.76C133.124 64.92 132.8 65 132.424 65ZM139.961 65C139.881 65 139.813 64.976 139.757 64.928C139.709 64.872 139.685 64.804 139.685 64.724V59.036C139.685 58.956 139.709 58.892 139.757 58.844C139.813 58.788 139.881 58.76 139.961 58.76H140.525C140.605 58.76 140.669 58.788 140.717 58.844C140.773 58.892 140.801 58.956 140.801 59.036V61.34H141.893L143.513 58.94C143.553 58.884 143.597 58.84 143.645 58.808C143.693 58.776 143.757 58.76 143.837 58.76H144.461C144.533 58.76 144.593 58.776 144.641 58.808C144.689 58.84 144.713 58.888 144.713 58.952C144.713 58.968 144.705 58.992 144.689 59.024C144.681 59.048 144.669 59.072 144.653 59.096L142.853 61.748L144.893 64.652C144.933 64.7 144.953 64.752 144.953 64.808C144.953 64.872 144.929 64.92 144.881 64.952C144.841 64.984 144.785 65 144.713 65H143.981C143.909 65 143.849 64.984 143.801 64.952C143.753 64.92 143.709 64.876 143.669 64.82L141.905 62.312H140.801V64.724C140.801 64.804 140.773 64.872 140.717 64.928C140.669 64.976 140.605 65 140.525 65H139.961ZM146.382 65C146.31 65 146.246 64.976 146.19 64.928C146.142 64.872 146.118 64.812 146.118 64.748V59.036C146.118 58.956 146.142 58.892 146.19 58.844C146.246 58.788 146.314 58.76 146.394 58.76H146.97C147.05 58.76 147.114 58.788 147.162 58.844C147.21 58.892 147.234 58.956 147.234 59.036V64.124L146.922 63.8L150.558 58.94C150.598 58.892 150.642 58.852 150.69 58.82C150.738 58.78 150.798 58.76 150.87 58.76H151.422C151.486 58.76 151.542 58.784 151.59 58.832C151.646 58.88 151.674 58.936 151.674 59V64.724C151.674 64.804 151.646 64.872 151.59 64.928C151.542 64.976 151.478 65 151.398 65H150.834C150.746 65 150.678 64.976 150.63 64.928C150.582 64.872 150.558 64.804 150.558 64.724V59.936L150.894 59.924L147.234 64.82C147.202 64.86 147.162 64.9 147.114 64.94C147.066 64.98 147.002 65 146.922 65H146.382Z" fill="#EAE4CE"/>
<path d="M64.8062 129C64.7262 129 64.6582 128.972 64.6022 128.916C64.5542 128.86 64.5302 128.792 64.5302 128.712C64.5302 128.656 64.5422 128.612 64.5662 128.58L67.0982 124.668L64.7942 120.996C64.7542 120.94 64.7342 120.888 64.7342 120.84C64.7342 120.776 64.7542 120.72 64.7942 120.672C64.8342 120.624 64.8982 120.6 64.9862 120.6H65.6222C65.7262 120.6 65.8102 120.616 65.8742 120.648C65.9382 120.68 65.9902 120.728 66.0302 120.792L68.1662 124.212H69.4382V120.876C69.4382 120.796 69.4622 120.732 69.5102 120.684C69.5662 120.628 69.6342 120.6 69.7142 120.6H70.3142C70.4022 120.6 70.4702 120.628 70.5182 120.684C70.5662 120.732 70.5902 120.796 70.5902 120.876V124.212H71.8502L73.9862 120.792C74.0262 120.728 74.0782 120.68 74.1422 120.648C74.2142 120.616 74.2982 120.6 74.3942 120.6H75.0542C75.1342 120.6 75.1942 120.624 75.2342 120.672C75.2742 120.72 75.2942 120.776 75.2942 120.84C75.2942 120.888 75.2742 120.94 75.2342 120.996L72.9302 124.668L75.4742 128.58C75.4902 128.612 75.4982 128.656 75.4982 128.712C75.4982 128.792 75.4702 128.86 75.4142 128.916C75.3662 128.972 75.3022 129 75.2222 129H74.5502C74.4622 129 74.3942 128.984 74.3462 128.952C74.2982 128.912 74.2582 128.868 74.2262 128.82L71.9102 125.28H70.5902V128.736C70.5902 128.808 70.5662 128.872 70.5182 128.928C70.4702 128.976 70.4022 129 70.3142 129H69.7142C69.6342 129 69.5662 128.976 69.5102 128.928C69.4622 128.872 69.4382 128.804 69.4382 128.724V125.28H68.1062L65.8022 128.82C65.7702 128.868 65.7302 128.912 65.6822 128.952C65.6422 128.984 65.5782 129 65.4902 129H64.8062ZM77.1208 129C77.0488 129 76.9848 128.976 76.9288 128.928C76.8808 128.872 76.8568 128.812 76.8568 128.748V123.036C76.8568 122.956 76.8808 122.892 76.9288 122.844C76.9848 122.788 77.0528 122.76 77.1328 122.76H77.7088C77.7888 122.76 77.8528 122.788 77.9008 122.844C77.9488 122.892 77.9728 122.956 77.9728 123.036V128.124L77.6608 127.8L81.2968 122.94C81.3368 122.892 81.3808 122.852 81.4288 122.82C81.4768 122.78 81.5368 122.76 81.6088 122.76H82.1608C82.2248 122.76 82.2808 122.784 82.3288 122.832C82.3848 122.88 82.4128 122.936 82.4128 123V128.724C82.4128 128.804 82.3848 128.872 82.3288 128.928C82.2808 128.976 82.2168 129 82.1367 129H81.5728C81.4848 129 81.4168 128.976 81.3688 128.928C81.3208 128.872 81.2968 128.804 81.2968 128.724V123.936L81.6328 123.924L77.9728 128.82C77.9408 128.86 77.9008 128.9 77.8528 128.94C77.8048 128.98 77.7408 129 77.6608 129H77.1208ZM84.4573 131.28C84.3773 131.28 84.3093 131.252 84.2533 131.196C84.2053 131.148 84.1813 131.084 84.1813 131.004V123.036C84.1813 122.956 84.2053 122.892 84.2533 122.844C84.3093 122.788 84.3773 122.76 84.4573 122.76H85.0093C85.0893 122.76 85.1533 122.788 85.2013 122.844C85.2573 122.892 85.2853 122.956 85.2853 123.036V123.564C85.4773 123.3 85.7333 123.08 86.0533 122.904C86.3733 122.728 86.7733 122.64 87.2533 122.64C87.7013 122.64 88.0813 122.716 88.3933 122.868C88.7133 123.02 88.9733 123.228 89.1733 123.492C89.3813 123.756 89.5373 124.056 89.6413 124.392C89.7453 124.728 89.8013 125.088 89.8093 125.472C89.8173 125.6 89.8213 125.736 89.8213 125.88C89.8213 126.024 89.8173 126.16 89.8093 126.288C89.8013 126.664 89.7453 127.024 89.6413 127.368C89.5373 127.704 89.3813 128.004 89.1733 128.268C88.9733 128.524 88.7133 128.732 88.3933 128.892C88.0813 129.044 87.7013 129.12 87.2533 129.12C86.7893 129.12 86.3973 129.036 86.0773 128.868C85.7653 128.692 85.5093 128.476 85.3093 128.22V131.004C85.3093 131.084 85.2853 131.148 85.2373 131.196C85.1893 131.252 85.1213 131.28 85.0333 131.28H84.4573ZM87.0013 128.148C87.4173 128.148 87.7413 128.06 87.9733 127.884C88.2133 127.7 88.3853 127.464 88.4893 127.176C88.5933 126.88 88.6533 126.564 88.6693 126.228C88.6773 125.996 88.6773 125.764 88.6693 125.532C88.6533 125.196 88.5933 124.884 88.4893 124.596C88.3853 124.3 88.2133 124.064 87.9733 123.888C87.7413 123.704 87.4173 123.612 87.0013 123.612C86.6093 123.612 86.2893 123.704 86.0413 123.888C85.8013 124.072 85.6213 124.308 85.5013 124.596C85.3893 124.876 85.3253 125.164 85.3093 125.46C85.3013 125.588 85.2973 125.74 85.2973 125.916C85.2973 126.092 85.3013 126.248 85.3093 126.384C85.3173 126.664 85.3813 126.94 85.5013 127.212C85.6293 127.484 85.8173 127.708 86.0653 127.884C86.3133 128.06 86.6253 128.148 87.0013 128.148ZM91.5937 129C91.5137 129 91.4457 128.976 91.3897 128.928C91.3417 128.872 91.3177 128.804 91.3177 128.724V123.036C91.3177 122.956 91.3417 122.892 91.3897 122.844C91.4457 122.788 91.5137 122.76 91.5937 122.76H92.1697C92.2497 122.76 92.3137 122.788 92.3617 122.844C92.4177 122.892 92.4457 122.956 92.4457 123.036V124.8H93.6937C94.5097 124.8 95.1057 124.992 95.4817 125.376C95.8577 125.76 96.0457 126.28 96.0457 126.936C96.0457 127.64 95.8377 128.16 95.4217 128.496C95.0057 128.832 94.3817 129 93.5497 129H91.5937ZM92.4337 128.1H93.5857C94.0737 128.1 94.4297 128.016 94.6537 127.848C94.8777 127.672 94.9897 127.368 94.9897 126.936C94.9897 126.52 94.8817 126.212 94.6657 126.012C94.4497 125.804 94.0897 125.7 93.5857 125.7H92.4337V128.1ZM97.1737 129C97.0937 129 97.0257 128.976 96.9697 128.928C96.9217 128.872 96.8977 128.804 96.8977 128.724V123.036C96.8977 122.956 96.9217 122.892 96.9697 122.844C97.0257 122.788 97.0937 122.76 97.1737 122.76H97.7497C97.8297 122.76 97.8937 122.788 97.9417 122.844C97.9977 122.892 98.0257 122.956 98.0257 123.036V128.724C98.0257 128.804 97.9977 128.872 97.9417 128.928C97.8937 128.976 97.8297 129 97.7497 129H97.1737Z" fill="#EAE4CE"/>
</g>
<defs>
<clipPath id="clip0_1696_27096">
<rect width="180" height="180" rx="90" fill="white"/>
</clipPath>
</defs>
</svg>
