<svg width="415" height="277" viewBox="0 0 415 277" fill="none" xmlns="http://www.w3.org/2000/svg">
<path d="M249.998 23.2331C272.222 10.4018 300.536 17.8345 313.237 39.8346C325.939 61.8346 303.233 98.7234 281.009 111.555C251.353 119.153 244.745 101.714 232.043 79.7135C222.024 55.5772 227.774 36.0643 249.998 23.2331Z" fill="#E2DD01"/>
<path d="M74.1796 124.07C73.7252 156.805 152.621 204.718 190.269 187.896C226.95 164.155 197.777 136.448 198.231 103.713C187.659 65.9521 149.732 67.0459 115.561 66.5716C81.3893 66.0973 74.6339 91.3344 74.1796 124.07Z" fill="#FE907A"/>
<path d="M289.582 240.038C289.923 262.674 239.683 274.005 187.737 274.79C135.792 275.574 96.5479 230.208 96.2062 207.572C96.2491 172.081 166.539 215.884 218.485 215.1C270.431 214.316 289.24 217.402 289.582 240.038Z" fill="#AEDADE"/>
<path d="M110.803 78.3928C108.614 78.1838 105.738 79.2823 106.204 82.1957C106.45 83.7377 107.074 84.6195 107.482 85.197C107.957 85.8676 108.141 86.1275 107.105 86.5339C102.194 88.4363 100.837 91.6143 103.637 96.0859C104.457 97.3913 106.001 98.4739 107.418 97.7137C106.093 96.5764 105.094 95.1074 104.524 93.4571C103.6 90.4094 105.88 89.1491 107.555 88.223C107.788 88.094 108.01 87.9712 108.21 87.8512C110.2 86.6527 110.053 86.4091 109.167 84.9454C108.902 84.5065 108.57 83.9576 108.21 83.2404C107.794 82.4066 107.655 81.1051 108.769 80.7231C109.522 80.4206 110.327 80.2705 111.139 80.2815C111.95 80.2924 112.751 80.4642 113.495 80.7867C115.845 81.342 114.516 78.2575 110.803 78.3928Z" fill="#2E3A45"/>
<path d="M125.527 86.2971C126.432 86.7368 126.8 87.9925 125.71 88.0184C125.507 88.0236 125.111 88.0276 124.632 88.0321H124.631H124.629L124.628 88.0323H124.626H124.625H124.623H124.622H124.62H124.619H124.617H124.616H124.614H124.613H124.611H124.61H124.608H124.607H124.605H124.604L124.603 88.0325H124.601H124.6C123.39 88.0443 121.681 88.061 121.248 88.1119C119.203 88.3666 118.944 88.7089 119.971 90.6989C120.502 91.7329 119.932 92.352 119.38 92.9514C118.723 93.6648 118.091 94.3504 119.374 95.6739C120.005 96.3267 117.553 97.053 116.655 95.2421C116.478 94.9605 116.36 94.6459 116.307 94.3173C116.254 93.9888 116.268 93.6531 116.348 93.3299C116.428 93.0069 116.572 92.7033 116.772 92.4372C116.972 92.1711 117.223 91.9483 117.511 91.7815L117.541 91.7596C118.351 91.1564 118.372 91.1413 117.953 90.1895C116.255 86.3309 122.156 84.6573 125.527 86.2971Z" fill="#2E3A45"/>
<path d="M136.297 79.4075C135.865 78.6115 135.238 78.1438 133.525 78.2294C132.733 78.27 132.107 78.315 131.612 78.3506C130.435 78.4354 129.99 78.4672 129.791 78.2616C129.671 78.1371 129.641 77.9251 129.592 77.5846L129.582 77.515C129.529 76.7427 129.353 75.9837 129.061 75.2663C127.74 72.8086 124.629 74.2016 122.964 76.3429C122.709 76.6712 121.877 78.514 123.409 77.4215C124.244 76.838 125.124 76.321 126.04 75.8752C127.159 75.316 127.851 75.4772 127.897 77.3916C127.9 77.5295 127.901 77.6638 127.902 77.7942C127.909 78.831 127.914 79.6194 129.139 79.9269C130.435 80.1661 131.756 80.2395 133.071 80.1458C133.481 80.0246 133.918 80.0242 134.328 80.145C134.739 80.2656 135.106 80.5022 135.385 80.8263C136.016 81.4631 136.981 80.6632 136.297 79.4075Z" fill="#2E3A45"/>
<path d="M147.299 45.1868C147.606 44.9695 147.959 44.8262 148.33 44.7681C151.936 43.7552 153.823 45.8527 152.716 45.9184C147.309 46.2348 147.069 46.5313 148.987 49.166C149.163 49.3276 149.302 49.526 149.392 49.7473C149.483 49.9686 149.523 50.207 149.51 50.4458C149.498 50.6846 149.433 50.9176 149.319 51.1282C149.206 51.3387 149.048 51.5214 148.856 51.6635C147.778 52.7995 146.89 53.4162 146.214 53.8859L146.213 53.8867C145.311 54.5132 144.785 54.8781 144.689 55.8664C144.513 57.6793 141.821 55.5579 143.654 53.5938C144.728 52.6732 145.865 51.8281 147.057 51.0645C147.799 50.5302 147.707 50.3905 147.339 49.8343C147.117 49.4978 146.794 49.0086 146.493 48.187C146.337 47.8453 146.261 47.4718 146.273 47.096C146.285 46.7201 146.384 46.3522 146.562 46.021C146.74 45.6897 146.992 45.4043 147.299 45.1868Z" fill="#2E3A45"/>
<path d="M165.966 53.705C165.763 53.705 165.586 53.7126 165.43 53.7194C164.848 53.7442 164.573 53.7562 164.447 53.307C163.926 51.4285 163.184 50.0812 160.877 50.5031C159.706 50.6948 158.608 51.1956 157.696 51.9536C156.784 52.7118 156.09 53.6997 155.687 54.8155C155.568 55.5338 156.165 56.2781 156.985 55.5717C158.137 54.3269 159.535 53.3347 161.09 52.6583C162.582 52.1029 162.685 52.7013 162.831 53.5484C162.905 53.9761 162.989 54.467 163.269 54.905C163.761 55.6785 164.431 55.7366 165.033 55.789C165.782 55.8542 166.425 55.9102 166.489 57.3209C166.491 57.3759 166.493 57.4299 166.495 57.4823L166.495 57.4928C166.512 58.0295 166.523 58.4004 167.219 58.1427C167.655 57.8645 167.991 57.453 168.175 56.9694C168.359 56.4859 168.382 55.9559 168.242 55.458C168.101 54.9599 167.804 54.5205 167.394 54.2049C166.984 53.8891 166.483 53.7138 165.966 53.705Z" fill="#2E3A45"/>
<path d="M170.527 43.1499C171.036 43.0098 171.775 42.8062 172.825 42.6502C179.175 41.7049 179.975 49.1535 178.727 51.0341C177.896 52.2957 176.982 52.4251 177.1 51.8977C177.15 51.6732 177.205 51.4874 177.255 51.3148C177.495 50.5005 177.648 49.9788 176.875 47.066C176.648 46.2971 176.17 45.6264 175.517 45.1614C174.864 44.6963 174.074 44.4637 173.273 44.5009C172.426 44.589 171.723 44.6798 171.139 44.7554C169.63 44.9504 168.907 45.0438 168.511 44.7275C168.147 44.4364 168.06 43.798 167.894 42.5716C167.844 42.2072 167.788 41.7911 167.715 41.3169C167.444 39.5557 166.356 38.9587 164.63 39.9537C163.465 40.5947 162.5 41.5467 161.844 42.7039C160.537 44.3317 159.202 40.6343 163.767 38.1986C165.359 37.3528 167.299 37.106 168.344 38.5966C169.145 39.8582 169.56 41.3266 169.538 42.8213C169.478 43.4386 169.687 43.3811 170.527 43.1499Z" fill="#2E3A45"/>
<path d="M191.181 73.1037C191.181 73.0639 189.471 73.0898 189.251 73.1037C185.659 73.3883 186.92 77.1773 188.128 75.6251C188.709 74.8876 189.415 74.9031 190.557 74.9284C191.371 74.9465 192.406 74.9696 193.776 74.7276C195.475 74.4285 195.46 73.485 195.448 72.7987C195.446 72.6721 195.444 72.5545 195.453 72.451C195.469 72.2759 195.482 72.1107 195.494 71.9555C195.671 69.7347 195.684 69.56 199.702 71.7287C199.818 71.7896 199.934 71.8741 200.048 71.9567L200.049 71.9573C200.306 72.1438 200.548 72.3189 200.729 72.1824C201.923 71.2869 195.718 65.7388 194.054 70.3217C193.704 71.2885 193.746 71.9193 193.773 72.331C193.825 73.0936 193.825 73.1037 191.181 73.1037Z" fill="#2E3A45"/>
<path d="M199.027 82.4842C197.787 82.65 197.138 82.7367 197.449 81.6488C198.126 79.2747 207.903 78.9086 205.759 84.8746C205.546 85.4704 205.674 85.56 206.146 85.8889C206.36 86.0378 206.645 86.2358 206.999 86.5522C208.649 88.0288 206.999 91.356 205.009 90.5322C204.422 90.2902 204.582 90.0777 204.831 89.7489C205.203 89.2582 205.77 88.5085 204.341 87.0158C203.409 86.0449 203.825 85.1241 204.169 84.3612C204.506 83.6135 204.776 83.0173 203.642 82.6737C201.798 82.1141 200.164 82.3324 199.027 82.4842Z" fill="#2E3A45"/>
<path d="M212.78 74.2794C215.158 74.3829 216.33 74.9819 215.081 77.6326C214.913 77.9884 214.73 78.3138 214.56 78.6149C213.947 79.699 213.512 80.4685 214.665 81.2146C215.147 81.5244 215.678 81.7949 216.206 82.0641C218.621 83.2941 220.989 84.5005 218.46 89.3378C217.923 90.365 217.667 90.5776 217.356 90.8353L217.354 90.8366C217.177 90.9841 216.981 91.1467 216.705 91.485C220.129 93.2143 225.588 83.4713 217.228 80.6057C215.41 79.983 215.589 79.7412 216.137 79.0045C216.618 78.3568 217.383 77.3263 217.325 75.3182C217.274 73.4974 215.932 72.769 214.141 72.4108C209.608 71.5034 207.204 75.3779 209.734 74.9083C210.699 74.5025 211.734 74.2888 212.78 74.2794Z" fill="#2E3A45"/>
<path fill-rule="evenodd" clip-rule="evenodd" d="M152.814 243.206C117.519 221.053 107.808 199.593 95.7982 149.637C95.4593 148.225 95.3034 147.258 95.1932 146.575L95.1922 146.569C94.9962 145.351 94.9457 145.036 94.2599 144.708C93.1423 144.232 92.2174 143.394 91.6341 142.329C91.0506 141.263 90.8429 140.033 91.0441 138.835C91.1225 138.33 90.9691 138.302 90.4749 138.212C90.0427 138.133 89.3498 138.007 88.3237 137.472C83.488 134.953 82.8711 128.883 85.6631 124.199C87.5264 121.073 89.385 119.898 90.3637 119.28C91.0051 118.874 91.2683 118.708 90.9068 118.388C86.2024 114.225 86.3298 107.045 94.2679 102.866C94.3471 102.824 94.4199 102.786 94.4862 102.752C94.8145 102.582 94.9863 102.494 95.0141 102.372C95.0448 102.238 94.9017 102.065 94.6014 101.701L94.5465 101.634C90.7655 97.0033 90.666 90.291 96.043 87.2125C97.2647 86.511 98.0865 86.1906 98.5955 85.9921L98.5969 85.9916C99.33 85.7058 99.413 85.6734 99.1076 85.119C95.8201 79.2624 101.442 72.8805 108.355 72.6656C109.17 72.6391 109.152 72.2132 109.118 71.4326C109.094 70.8656 109.061 70.1114 109.334 69.187C111.834 60.7435 121.493 61.1634 125.453 67.595C125.529 67.7182 125.593 67.8297 125.649 67.9274C125.956 68.4611 126.029 68.5868 126.478 67.993C129.332 64.1961 137.13 63.416 140.066 69.2328C140.354 69.913 140.535 70.6342 140.601 71.3701C140.865 71.2602 141.11 71.029 141.399 70.7567L141.401 70.7554C142.159 70.0411 143.217 69.0448 145.682 69.2089C146.326 69.2513 146.334 69.2115 146.449 68.6384L146.46 68.5841C146.537 68.2006 146.623 67.8669 146.696 67.5831C146.93 66.6794 147.034 66.2814 146.288 66.3951C144.964 66.6924 143.592 66.7011 142.264 66.4209C140.936 66.1407 139.684 65.5782 138.593 64.7712C137.322 64.0329 136.309 62.9223 135.69 61.5894C135.071 60.2565 134.877 58.7658 135.133 57.3187C135.477 55.5557 136.042 54.6839 136.395 54.1394C136.783 53.5409 136.914 53.3381 136.213 52.7815C135.499 52.32 134.907 51.6921 134.489 50.9517C134.071 50.2114 133.838 49.3808 133.811 48.5308C133.607 46.8978 134.048 45.2497 135.039 43.9359C136.009 42.5395 137.358 41.45 138.927 40.7965C140.497 40.143 142.22 39.9529 143.894 40.2485C144.702 40.3828 144.673 40.1794 144.555 39.3709L144.554 39.3661C144.512 39.0737 144.458 38.7027 144.428 38.2405C143.984 31.4208 152.25 25.0727 159.102 31.5641C159.527 31.9675 159.789 32.3814 159.99 32.6988C160.299 33.1875 160.464 33.4472 160.857 33.0864C164.981 29.3054 174.769 29.6238 176.057 36.9749C176.197 37.7659 176.336 37.7323 178.031 37.3263L178.032 37.3261L178.033 37.3257L178.103 37.3088C178.295 37.2629 178.507 37.2123 178.739 37.158C184.003 35.9302 188.124 40.1708 189.115 43.924C189.591 45.7361 189.431 46.6793 189.325 47.2998C189.254 47.7179 189.208 47.9898 189.398 48.2821C189.48 48.4094 189.811 48.3503 190.344 48.2546C191.841 47.986 194.939 47.4302 198.631 49.9238C199.021 50.1869 199.029 50.1772 199.338 49.7931L199.358 49.7686C203.071 45.2394 208.512 43.9518 211.642 48.7438C212.034 49.3441 212.4 49.1095 213.077 48.6761C213.823 48.1985 214.947 47.4793 216.898 47.3687C217.545 47.3223 218.193 47.4674 218.759 47.7858C219.325 48.1042 219.785 48.582 220.082 49.1597C220.538 49.9364 220.728 50.6042 220.878 51.133C221.104 51.9268 221.24 52.4074 222.054 52.473C222.173 52.4831 222.301 52.5122 222.427 52.541L222.43 52.5417C222.676 52.598 222.917 52.6531 223.091 52.5666C223.491 51.0613 224.247 49.6743 225.295 48.5231C226.344 47.3717 231.163 44.9043 231.163 44.9043C231.163 44.9043 233.636 44.7445 234.276 44.8075C235.691 44.8342 236.804 45.0055 238.163 45.4043C238.286 45.4598 238.714 45.5245 238.847 45.508C240.044 46.157 243.546 47.7279 244.722 47.034C246.28 46.1154 248.893 44.5747 255.579 44.7777L255.585 44.7779C256.097 44.7936 256.254 44.7986 256.13 44.0951C254.67 35.6615 264.767 30.1193 279.811 39.1002C280.138 39.296 280.136 39.113 280.124 38.1631C280.122 38.0031 280.12 37.8212 280.118 37.6157C280.066 28.197 288.524 25.4986 293.837 30.4039C295.167 31.6325 295.597 32.9307 295.85 33.6933L295.851 33.6964C296.044 34.284 296.133 34.5517 296.448 34.2207C303.857 26.5314 313.526 26.1413 316.497 38.3082C330.085 31.4447 343.308 34.6227 334.427 53.0521C334.009 53.9086 334.355 53.9522 335.115 54.0478L335.116 54.0479L335.117 54.0481C335.809 54.1352 336.848 54.2659 337.969 55.0899C340.94 57.2653 340.057 60.1558 339.305 62.6153L339.302 62.6248C338.797 64.2809 338.353 65.7405 339.189 66.6538C341.585 69.27 340.606 72.0538 340.14 73.3772L340.139 73.3818C340.006 73.758 339.916 74.0154 339.957 74.1163C341.937 75.0476 343.667 76.4388 345 78.1739C351.155 86.9299 347.332 105.835 344.301 115.47C343.527 117.935 343.881 118.698 344.55 120.139L344.55 120.141C345.147 121.424 345.993 123.246 346.514 127.285C347.748 136.874 345.464 144.555 344.292 148.498L344.291 148.5L344.282 148.531C343.759 150.296 343.46 151.303 343.812 151.386C347.549 151.932 351.191 152.993 354.635 154.54C359.477 157.226 359.557 163.964 348.285 167.105C345.509 167.878 343.608 168.246 342.425 168.475L342.423 168.476H342.421C341.378 168.677 340.897 168.77 340.869 168.939C340.845 169.082 341.154 169.281 341.724 169.647L341.728 169.65L341.757 169.668C342.251 169.987 342.933 170.428 343.764 171.063C349.3 175.295 351.044 184.569 335.293 185.307C334.672 185.337 333.964 187.143 332.77 190.186L332.769 190.189V190.191H332.767V190.193C327.249 204.268 311.379 244.744 246.067 257.906C214.054 264.342 174.763 256.979 152.814 243.206ZM238.847 45.508C238.837 45.4755 238.836 45.4495 238.842 45.4293C238.845 45.4792 238.847 45.508 238.847 45.508ZM241.217 253.719C264.017 249.827 281.228 244.153 301.116 227.716C315.643 215.702 322.861 203.555 330.151 185.84L330.158 185.825C330.35 185.375 330.367 185.331 329.498 185.335C328.805 185.335 328.815 185.474 328.857 186.02C328.901 186.603 328.978 187.651 328.266 189.492C325.219 197.378 314.853 190.999 310.251 188.165C308.919 187.345 308.071 186.823 308.022 187.028C307.9 188.107 307.474 189.128 306.794 189.974C304.776 192.218 300.426 192.117 297.694 188.366C297.256 187.769 297.228 187.791 296.681 188.23L296.653 188.252C295.952 188.953 295.049 189.416 294.07 189.576C293.091 189.735 292.088 189.584 291.2 189.142C290.881 188.981 290.731 189.757 290.476 191.088L290.474 191.096L290.473 191.101C289.888 194.145 288.748 200.073 283.782 204.387C280.996 206.811 277.553 207.494 274.755 204.807C273.574 203.672 273.084 202.803 272.812 202.322L272.809 202.316L272.807 202.312C272.536 201.83 272.488 201.744 272.168 202.18C268.994 206.558 263.726 212.66 258.363 213.344C256.903 213.513 255.43 213.153 254.212 212.327C252.996 211.501 252.117 210.268 251.733 208.847C250.308 204.923 251.104 201.323 251.878 197.826V197.822C251.948 197.51 252.015 197.199 252.083 196.887C252.198 196.352 250.594 196.54 247.189 196.939L247.177 196.941L247.168 196.942C240.057 197.776 225.137 199.527 201.69 197.568C154.176 193.582 130.603 178.861 121.506 173.181L121.504 173.18C121.301 173.018 120.991 172.778 120.592 172.469C117.099 169.764 106.771 161.764 101.082 154.564C101.346 156.554 104.349 167.59 106.007 173.098C117.121 210.035 136.514 233.636 174.598 248.016C191.057 254.225 219.66 257.401 241.225 253.719H241.217ZM118.757 117.154C118.984 117.158 119.206 117.158 119.423 117.157C120.863 117.154 122.054 117.152 122.609 118.591C123.326 120.455 121.965 136.664 121.883 136.974C121.593 138.07 121.987 138.342 122.68 138.821L122.787 138.895L122.846 138.937C124.328 139.982 125.121 139.869 126.608 139.658L126.63 139.655C126.807 139.63 126.993 139.603 127.19 139.577C127.775 139.502 128.133 139.839 128.489 140.173C128.596 140.274 128.703 140.374 128.816 140.463C128.872 140.509 128.838 140.706 128.816 140.823C128.753 141.16 128.691 141.47 128.632 141.759L128.631 141.766C128.075 144.516 127.91 145.33 131.485 149.657C131.503 149.679 131.521 149.7 131.539 149.721L131.543 149.727C131.892 150.141 132.042 150.318 130.5 152.196C130.119 152.675 129.843 153.229 129.692 153.822C129.54 154.415 129.515 155.033 129.619 155.637C129.722 156.239 129.952 156.814 130.293 157.322C130.635 157.831 131.079 158.261 131.598 158.585C133.164 159.592 134.895 160.319 136.711 160.729C136.989 160.802 137.109 160.729 137.152 160.5C137.688 158.054 138.069 155.879 138.4 153.994C139.403 148.275 139.933 145.253 142.858 145.575C145.043 145.881 147.131 146.678 148.965 147.905C154.059 151.08 157.639 154.413 158.081 161.057C158.216 163.552 158.044 166.054 157.568 168.508C158.194 168.241 158.705 167.759 159.009 167.148C159.779 165.626 160.617 165.666 161.562 165.712C162.138 165.739 162.755 165.769 163.42 165.447C164.664 164.85 166.143 164.333 166.917 165.475C168.085 167.198 164.807 169.427 162.559 169.389C161.599 169.373 160.965 169.883 160.296 170.42C159.43 171.116 158.506 171.859 156.74 171.568C156.436 171.518 156.229 171.952 155.856 172.734C155.192 174.125 154.002 176.619 150.802 179.441C150.357 179.832 149.952 180.13 149.632 180.366L149.603 180.388C149 180.83 148.715 181.039 149.068 181.216C149.57 181.468 157.307 184.153 160.678 185.023C160.627 184.722 160.475 184.439 160.298 184.11L160.294 184.103L160.293 184.101C160.002 183.56 159.646 182.898 159.56 181.839C159.424 180.475 159.649 179.098 160.21 177.849C160.772 176.599 161.651 175.516 162.76 174.712C163.87 173.906 165.171 173.407 166.533 173.26C167.896 173.114 169.274 173.327 170.529 173.879C171.026 174.078 171.034 174.078 171.177 173.502C171.613 171.924 172.549 170.529 173.845 169.528C175.14 168.527 176.726 167.974 178.363 167.952C181.011 167.952 182.297 168.89 182.985 169.391L182.988 169.393C183.391 169.686 183.589 169.83 183.736 169.544C184.303 167.745 185.546 166.237 187.203 165.335C188.861 164.434 190.803 164.211 192.622 164.713C195.665 165.321 197.074 167.271 198.346 169.032L198.346 169.033L198.427 169.144L198.428 169.145C198.59 169.369 198.751 169.592 198.914 169.805C199.089 170.038 199.139 170.056 200.922 169.095C201.154 168.971 201.019 168.514 200.938 168.241L200.922 168.185C199.961 164.9 202.683 162.309 206.349 161.26C211.523 160.01 216.873 159.646 222.169 160.183C222.685 160.259 222.567 160.01 222.3 159.453L222.298 159.449C221.978 158.778 221.448 157.665 221.536 156.124C221.761 152.043 226.042 151.643 230.038 152.524C234.601 153.791 239.046 155.443 243.331 157.461C243.33 157.45 243.327 157.431 243.321 157.405C243.315 157.377 243.307 157.34 243.297 157.296L243.285 157.242C243.042 156.191 242.041 151.838 245 150.496C247.41 149.408 250.99 151.251 252.968 152.27C253.914 152.757 254.495 153.056 254.407 152.757C253.816 151.035 253.37 149.265 253.076 147.468C252.96 146.907 252.785 146.911 252.457 146.919C252.095 146.927 251.549 146.94 250.702 146.208C250.551 146.078 250.421 145.944 250.298 145.815C249.892 145.39 249.544 145.028 248.666 145.074C247.858 145.161 247.086 145.456 246.425 145.929C245.164 146.497 244.744 144.652 245.761 143.42C246.541 142.443 247.671 141.81 248.911 141.654C250.151 141.499 251.402 141.834 252.399 142.588C252.787 142.915 252.919 142.853 252.966 142.302C253.05 141.014 253.524 139.782 254.322 138.77C255.122 137.757 256.21 137.011 257.442 136.63C259.844 136.118 261.792 137.508 262.916 138.311L262.922 138.315C263.571 138.778 263.943 139.044 263.971 138.63C264.017 137.938 264.059 137.379 264.092 136.928L264.093 136.921C264.222 135.232 264.235 135.056 263.874 135.084C262.469 135.41 261.008 135.416 259.601 135.1C258.192 134.784 256.875 134.155 255.744 133.259L255.715 133.235C255.231 132.847 255.108 132.749 254.17 133.977C254.079 134.098 253.995 134.225 253.912 134.352L253.893 134.379C253.778 134.555 253.663 134.729 253.522 134.887C253.36 135.14 253.136 135.347 252.871 135.49C252.608 135.632 252.312 135.705 252.011 135.701C251.711 135.697 251.416 135.616 251.155 135.467C250.895 135.318 250.678 135.104 250.523 134.847C250.485 134.801 250.449 134.755 250.413 134.711L250.411 134.71C249.878 134.042 249.603 133.697 248.135 134.961C247.384 135.603 246.945 136.461 246.606 137.123C246.117 138.081 245.836 138.628 245.128 137.516C243.432 134.859 248.22 129.518 251.432 131.546C251.704 131.716 251.772 131.666 252.685 130.987L252.692 130.982C252.917 130.815 253.191 130.61 253.534 130.362C253.454 129.951 253.389 129.596 253.333 129.29L253.289 129.049C253.078 127.895 253.012 127.537 252.833 127.466C252.754 127.434 252.651 127.46 252.501 127.497L252.499 127.497L252.465 127.506C246.694 128.933 242.473 126.004 239.496 120.853C234.452 112.126 238.603 106.671 240.365 104.356L240.366 104.355C240.935 103.608 241.253 103.189 240.937 103.091C238.437 102.07 236.428 100.125 235.325 97.66C234.294 93.8394 234.702 89.773 236.471 86.2334C238.039 82.2709 240.614 78.7868 243.944 76.1262L243.952 76.1194L243.957 76.1143C244.111 75.9733 244.194 75.8966 244.192 75.8223C244.191 75.7343 244.069 75.6498 243.804 75.4661L243.798 75.4613C243.276 75.097 242.201 74.3465 240.402 72.4327L240.386 72.4162C240.371 72.4005 240.357 72.3851 240.344 72.3698C240.133 72.1406 239.99 71.9842 239.554 72.2656C238.933 71.4969 238.386 70.8845 237.88 70.3179C235.876 68.0728 234.515 66.5485 231.717 58.888C231.294 57.7312 228.47 58.2789 226.194 58.7202C224.625 59.0243 223.317 59.2779 223.236 58.888L223.236 58.8868C222.898 57.2588 222.796 56.7686 221.19 56.3535C220.965 56.2957 220.719 56.2651 220.467 56.2337L220.463 56.2331C219.639 56.1306 218.747 56.0198 218.277 54.9347C217.972 54.236 217.776 53.5634 217.606 52.9787L217.605 52.9747C217.133 51.3521 216.859 50.4096 214.999 51.474C214.223 51.918 213.569 52.4993 212.985 53.0183C211.846 54.0302 210.973 54.8051 209.988 53.862C209.653 53.5409 209.343 52.9634 209.007 52.3388L209.005 52.3365C208.274 50.9769 207.423 49.3957 205.945 49.7487C203.626 50.3003 202.543 51.8888 201.668 53.1729C200.708 54.58 199.998 55.622 198.184 54.5347C197.961 54.4015 197.699 54.1761 197.386 53.906C196.019 52.7279 193.665 50.7001 189.257 51.7686C187.943 52.0862 187.391 52.6756 186.727 53.384C186.06 54.0963 185.28 54.9287 183.501 55.7267C183.339 55.7993 183.191 55.8634 183.058 55.9213L183.036 55.9306C182.161 56.3091 181.899 56.4226 181.985 57.0441C182.413 60.1902 178.968 65.3065 172.349 66.5403C171.65 66.6691 171.647 66.7033 171.592 67.3521L171.591 67.3602C171.384 69.7467 172.223 72.3663 173.032 74.895L173.032 74.8961C173.871 77.5166 174.679 80.0393 174.26 82.1041C174.197 83.1527 173.896 84.1731 173.378 85.0875C172.861 86.0017 172.141 86.7858 171.275 87.3796C168.398 90.3801 164.223 90.9005 161.663 91.2195L161.646 91.2217C161.379 91.2551 161.129 91.2863 160.901 91.3178C159.544 91.5033 158.52 91.3704 157.764 91.2723C156.898 91.1598 156.384 91.0932 156.125 91.6044C155.541 92.5978 155.173 93.703 155.044 94.8481C155.062 95.2095 154.976 95.5683 154.796 95.8825C154.617 96.1967 154.352 96.4532 154.032 96.622C153.712 96.7909 153.35 96.865 152.99 96.8355C152.629 96.8061 152.284 96.6745 151.996 96.456C149.07 94.8053 148.958 95.3902 148.797 96.2393C148.774 96.3587 148.751 96.4831 148.718 96.6072C148.672 96.8253 148.571 97.0279 148.423 97.1953C148.276 97.3629 148.088 97.4892 147.877 97.5627C147.667 97.6363 147.441 97.654 147.222 97.6146C147.002 97.5752 146.797 97.4797 146.625 97.3376C146.241 97.0693 146.045 96.7165 145.771 96.2238L145.763 96.2099C145.675 96.0521 145.579 95.88 145.467 95.6918C142.93 91.4647 142.078 91.8127 140.658 92.3928C140.269 92.5516 139.838 92.7277 139.317 92.8322C138.797 92.9359 138.725 93.1074 138.326 94.0632L138.325 94.0648C138.158 94.4672 137.932 95.0082 137.59 95.7416C137.521 95.8873 137.421 96.0335 137.323 96.1778C137.137 96.4494 136.957 96.7145 136.993 96.9575C137.033 97.2257 137.307 97.4805 137.577 97.7314L137.578 97.7324C137.682 97.8293 137.785 97.9257 137.875 98.0221C139.958 100.116 142.393 101.827 145.069 103.079C158.36 110.878 141.755 124.141 132.181 121.928C130.186 121.376 128.421 120.197 127.147 118.565C125.62 115.706 125.204 114.587 124.809 113.524C124.371 112.343 123.958 111.23 122.078 107.881C121.8 107.387 121.792 107.385 121.376 107.709C120.442 108.422 119.376 108.942 118.239 109.241C117.103 109.539 115.919 109.609 114.755 109.447C113.592 109.285 112.472 108.895 111.46 108.297C110.448 107.7 109.565 106.909 108.861 105.968C108.662 105.698 108.293 105.65 105.901 106.062C104.675 106.452 103.363 106.481 102.12 106.147C99.6711 105.791 98.6242 105.155 97.9906 104.77C97.497 104.47 97.2545 104.323 96.7952 104.579C94.447 105.891 91.5137 107.897 91.0859 110.559C90.9277 111.238 90.9115 111.941 91.0387 112.626C91.1657 113.311 91.4331 113.963 91.8242 114.539C92.4846 115.57 93.3766 116.432 94.4291 117.056C95.8221 117.765 96.5584 118.838 95.4121 119.775C93.2176 120.984 91.2172 122.516 89.4779 124.32C85.8681 128.529 87.1079 133.581 90.5884 134.507C91.1567 134.658 91.656 134.765 92.0884 134.857C94.1461 135.299 94.69 135.415 93.9714 138.403C93.5057 140.338 94.648 142.329 98.0349 142.847C99.4371 143.05 100.861 143.05 102.264 142.847C102.703 142.819 102.676 143.273 102.528 143.444C102.091 143.962 101.771 144.263 101.556 144.465C101.138 144.858 101.114 144.88 101.386 145.414C108.522 159.367 121.957 168.595 135.974 175.61C136.355 175.801 136.343 175.065 136.316 173.433L136.316 173.431C136.283 171.426 136.227 168.074 136.848 163.433C136.903 163.017 136.657 163.065 136.209 163.154L136.207 163.155C135.862 163.222 135.397 163.313 134.858 163.234C132.69 163.105 130.599 162.382 128.814 161.145C127.433 159.843 126.596 158.066 126.469 156.174C126.343 154.279 126.938 152.408 128.134 150.934C128.367 150.631 128.074 150.371 127.589 149.942C126.616 149.081 124.872 147.538 125.085 143.589C125.105 143.234 124.844 143.212 124.35 143.169C123.789 143.12 122.926 143.045 121.829 142.427C121.783 142.401 121.742 142.372 121.705 142.346C121.639 142.299 121.587 142.262 121.545 142.271C121.395 142.305 121.379 142.943 121.308 145.894L121.308 145.896V145.897C121.289 146.716 121.265 147.713 121.232 148.924C121.225 149.212 121.227 149.544 121.229 149.902C121.242 151.925 121.259 154.768 119.654 154.876C118.168 155.062 116.66 154.812 115.312 154.158C108.148 150.303 100.847 140.881 102.413 129.81C102.826 126.583 104.478 123.643 107.02 121.612C107.41 121.231 107.328 121.121 107.089 120.801C106.918 120.573 106.668 120.238 106.453 119.622C105.949 118.497 105.867 117.229 106.221 116.049C106.576 114.869 107.343 113.857 108.383 113.196C108.976 112.855 108.972 112.618 108.962 112.109C108.953 111.582 108.938 110.762 109.577 109.232C109.8 108.695 110.837 109.049 110.992 109.612C111.073 109.903 111.193 110.176 111.313 110.451L111.314 110.454C111.461 110.787 111.608 111.122 111.686 111.492C111.827 112.161 112.119 112.78 112.368 113.31L112.369 113.312C112.766 114.155 113.055 114.768 112.456 114.987C112.209 115.077 111.974 115.157 111.753 115.233L111.744 115.236C110.103 115.798 109.234 116.097 109.388 118.107C109.483 119.582 110.234 119.276 111.802 118.636C113.313 118.02 115.583 117.094 118.757 117.154ZM279.757 43.2588L279.748 43.251L279.696 43.2051C279.363 42.9125 279.038 42.626 278.785 42.4534C271.698 37.6097 260.395 35.1978 259.267 41.9997C258.976 43.7505 259.555 45.0581 260.017 46.0987L260.019 46.1027C260.464 47.1076 260.798 47.8633 260.128 48.5288C259.935 48.6994 259.699 48.8118 259.444 48.853C259.189 48.8942 258.928 48.8626 258.692 48.7617C244.827 44.7817 228.513 60.8867 248.081 73.9451C248.397 74.127 248.664 74.3833 248.857 74.6918C249.052 75.0004 249.167 75.3517 249.195 75.7152C249.223 76.0788 249.161 76.4434 249.016 76.7777C248.869 77.1118 248.644 77.4053 248.36 77.6326C246.27 79.0238 244.405 80.7249 242.829 82.6772C238.374 88.5975 235.763 98.3127 242.929 99.8032C243.454 99.9126 243.964 99.9821 244.431 100.046C246.059 100.268 247.187 100.421 246.728 101.946C246.565 102.486 246.38 102.664 245.741 103.272L245.716 103.295C245.309 103.684 244.72 104.246 243.846 105.178C239.894 109.401 239.615 116.72 245.311 122.199C248.459 125.23 251.432 123.92 253.506 123.006L253.51 123.004C254.646 122.504 255.51 122.124 255.989 122.638C256.823 123.535 256.706 124.074 256.568 124.697C256.517 124.931 256.463 125.177 256.455 125.458C256.326 130.883 260.435 132.549 265.05 131.269C265.473 131.152 265.718 130.296 266.007 129.286L266.011 129.271C266.285 128.306 266.6 127.203 267.143 126.467C268.407 124.752 270.892 122.859 272.492 123.026C273.161 123.147 273.796 123.405 274.361 123.784C274.924 124.162 275.404 124.653 275.77 125.225L275.794 125.255L275.797 125.259C275.978 125.483 276.087 125.618 276.198 125.619C276.364 125.62 276.532 125.316 276.954 124.555L276.96 124.544L276.962 124.543C277.368 123.808 278.009 122.652 279.103 120.941C279.898 119.697 280.466 118.959 280.809 118.512L280.838 118.475C281.3 117.88 281.338 117.83 280.98 117.757C269.798 115.504 269.095 115.094 265.583 112.223C263.573 110.89 261.86 109.158 260.548 107.134C258.982 104.46 263.822 104.123 266.658 103.925C267.428 103.872 268.049 103.828 268.355 103.751C274.95 102.129 278.45 99.8175 281.382 97.8816L281.391 97.8757C283.588 96.4259 285.465 95.1874 288.088 94.6073C290.277 94.1874 292.512 94.0696 294.733 94.2571C297.77 94.6913 299.259 95.5603 300.081 96.0403L300.084 96.0417C300.623 96.3569 300.874 96.5036 301.087 96.2471C303.098 93.8591 312.231 85.4672 313.715 84.2872C323.605 76.4537 330.186 75.3562 333.51 74.8022C334.966 74.5594 335.796 74.4211 336.003 73.8655C336.119 73.5516 336.231 73.2618 336.337 72.9915L336.337 72.9894L336.395 72.8411L336.397 72.8401C337.06 71.1522 337.418 70.2362 336.467 68.9064C335.961 68.3383 335.583 67.6677 335.36 66.9403C335.137 66.2128 335.074 65.4458 335.173 64.6916C337.123 57.8249 336.938 57.8066 333.072 57.4206H333.07L332.994 57.413C332.811 57.3948 332.618 57.3755 332.419 57.3545C328.793 56.9756 329.87 54.4188 331.335 50.9415L331.337 50.9355C332.578 47.9849 334.098 44.3723 333.261 40.8654C332.622 38.1968 327.265 38.5589 324.596 39.2037C321.605 39.6753 318.79 40.9173 316.424 42.8076C315.411 43.4444 314.388 43.8603 313.988 42.734C313.952 42.6323 313.916 42.3563 313.864 41.9575C313.546 39.5225 312.627 32.4865 307.401 32.2248C302.846 31.9983 299.469 35.4555 297.66 37.308L297.646 37.3221C297.203 37.7753 296.855 38.1307 296.607 38.3102C295.966 38.7719 295.053 38.8435 294.816 37.6157C294.265 34.8118 292.217 31.3551 288.657 30.9691C283.787 30.4477 283.499 35.5664 283.27 39.6345L283.27 39.6383L283.27 39.6401C283.099 42.7103 282.961 45.1797 280.91 44.1707C280.633 44.0347 280.195 43.6472 279.757 43.2588ZM332.369 181.845H334.712C339.412 181.845 346.413 180.288 344.015 176.074C342.377 173.19 338.493 171.361 336.371 170.364C335.812 170.102 335.376 169.895 335.135 169.743C334.929 169.624 334.751 169.459 334.62 169.26C334.489 169.061 334.405 168.832 334.377 168.595C334.349 168.358 334.375 168.117 334.457 167.893C334.536 167.668 334.668 167.465 334.841 167.3C335.479 166.693 337.633 166.265 340.337 165.729L340.343 165.727C343.899 165.023 348.403 164.13 351.65 162.394C353.788 161.252 355.71 159.228 353.857 157.523C350.657 154.574 338.95 153.559 334.564 153.515C331.888 153.489 329.338 153.829 327.208 154.113L327.203 154.114L327.198 154.114C325.666 154.319 324.353 154.494 323.367 154.482C323.096 154.467 322.833 154.388 322.6 154.25C322.368 154.112 322.171 153.921 322.027 153.691C321.884 153.462 321.797 153.201 321.775 152.931C321.753 152.661 321.797 152.39 321.902 152.14C322.246 151.319 323.036 150.199 323.898 148.978C326.171 145.762 328.939 141.844 325.333 140.821C317.61 138.632 309.347 144.489 303.282 149.577C302.742 150.031 302.742 150.035 302.975 150.618C304.531 154.512 300.894 161.712 299.393 158.96C299.019 158.279 299.079 157.835 299.252 156.556V156.554V156.552V156.55C299.3 156.199 299.355 155.785 299.413 155.286C299.449 154.972 299.485 154.683 299.518 154.416L299.519 154.412C299.863 151.623 299.905 151.28 297.051 150.819C294.543 150.412 295.14 147.579 295.849 144.207L295.851 144.199L295.862 144.145C296.11 142.966 296.371 141.722 296.516 140.495C297.443 132.622 292.086 127.001 287.252 131.178C285.64 132.57 284.931 134.191 284.357 135.504L284.353 135.514C283.748 136.904 283.292 137.947 282.078 138.005C280.564 138.078 279.945 136.629 279.039 134.506L279.039 134.505C278.364 132.925 277.531 130.971 276.05 128.995C275.302 127.901 274.377 126.94 273.312 126.151C269.316 123.426 266.504 133.924 267.195 140.787C267.509 143.902 265.802 144.727 264.457 143.796C264.315 143.696 263.752 143.13 263.093 142.468C262.588 141.958 262.023 141.391 261.551 140.935C258.089 137.589 254.507 139.691 256.093 147.816C256.848 151.684 257.886 153.862 258.682 155.531L258.684 155.535L258.689 155.546C259.208 156.633 259.624 157.504 259.79 158.49C259.977 159.604 259.312 160.362 258.3 159.342C255.611 156.347 252.178 154.114 248.35 152.871C244.074 151.245 244.974 154.257 246.233 158.469L246.234 158.472L246.271 158.594C246.333 158.802 246.396 159.014 246.459 159.228C247.114 161.435 245.786 161.833 244.951 161.493C239.51 158.068 233.407 155.833 227.041 154.94C222.497 154.337 225.071 158.032 226.631 160.271C226.907 160.669 227.152 161.021 227.319 161.294C227.478 161.578 227.554 161.903 227.538 162.227C227.522 162.553 227.415 162.868 227.228 163.135C227.041 163.401 226.782 163.61 226.481 163.736C226.181 163.863 225.851 163.901 225.528 163.847C220.491 162.949 215.341 162.882 210.283 163.648C201.129 164.794 203.3 168.601 206.512 169.789C210.241 171.168 219.049 171.409 223.524 171.417H223.735C224.675 171.409 225.554 171.403 226.099 172.585C226.605 173.678 225.735 174.509 224.706 175.15C224.43 175.323 224.115 175.512 223.783 175.711L223.776 175.715C221.473 177.1 218.327 178.991 220.909 179.407C226.85 180.36 231.475 179.184 236.805 177.829L236.808 177.829C237.317 177.699 237.832 177.568 238.356 177.437C240.244 176.963 241.502 178.155 241.285 180.145C241.118 181.693 241.902 181.753 244.374 181.647C244.868 181.627 245.316 181.609 245.721 181.593L245.726 181.593L245.91 181.586L245.914 181.584L245.923 181.583C249.426 181.445 249.544 181.44 250.035 180.676C253.215 176.115 257.635 172.559 262.771 170.426C264.761 169.483 266.313 170.396 264.634 171.686C264.537 171.76 264.398 171.865 264.221 171.997L264.216 172.001L264.124 172.07C261.561 173.986 252.437 180.808 251.553 185.019C251.183 186.784 254.489 185.856 256.887 185.184L256.901 185.18C257.882 184.905 258.711 184.672 259.068 184.688C260.234 184.738 261.36 186.107 259.752 188.197C253.583 196.216 252.407 210.807 257.985 209.788C262.254 209.008 267.649 202.749 270.124 199.158C270.186 199.068 270.261 198.949 270.351 198.809L270.352 198.808C271.146 197.563 272.941 194.753 274.751 197.428C275.012 198.011 275.234 198.608 275.42 199.219C277.865 205.959 282.802 201.607 285.393 195.824C286.808 192.666 287.127 190.342 287.419 188.197V188.195H287.421V188.193C287.549 187.253 287.674 186.346 287.883 185.419C287.919 185.062 288.056 184.722 288.277 184.441C288.5 184.161 288.798 183.95 289.139 183.833C289.477 183.717 289.843 183.699 290.191 183.785C290.54 183.87 290.856 184.053 291.103 184.312C291.334 184.536 291.537 184.755 291.724 184.958L291.738 184.973C292.46 185.759 292.94 186.28 293.865 185.643C296.359 183.931 296.303 179.959 296.251 176.295L296.251 176.288L296.251 176.269C296.227 174.594 296.204 172.986 296.428 171.688C297.345 166.358 299.536 170.034 299.869 174.372C300.354 180.73 299.685 183.092 299.358 184.245L299.357 184.248C299.065 185.283 299.047 185.347 300.382 186.459C301.735 187.586 303.628 188.002 304.163 186.358C304.281 185.902 304.36 185.436 304.396 184.965C304.42 184.764 304.392 184.559 304.316 184.37C304.241 184.181 304.119 184.014 303.962 183.884C303.319 183.245 302.738 182.028 303.502 181.174C304.867 179.65 306.515 180.86 309.322 182.919L309.327 182.923L309.335 182.929C311.7 184.664 314.884 186.999 319.409 188.814C321.343 189.59 324.011 190.218 324.913 188.34C325.404 187.034 325.574 185.632 325.406 184.246C325.534 181.472 329.297 181.743 331.237 181.882L331.265 181.884C331.926 181.931 332.369 181.962 332.369 181.845ZM335.587 76.552C325.88 76.5065 312.7 88.4578 305.618 94.8809L305.566 94.9277C305.102 95.3476 305.077 95.4331 305.469 95.9227C305.735 96.2564 306.022 96.6178 306.326 97.0023L306.33 97.0078L306.332 97.011L306.334 97.013L306.336 97.0152C310.961 102.861 319.82 114.058 332.708 115.775C335.034 115.964 337.372 115.954 339.697 115.743C340.239 115.743 340.29 115.562 340.446 114.997L340.447 114.996L340.449 114.987L340.449 114.986C340.471 114.907 340.494 114.82 340.522 114.726C344.399 101.491 349.328 76.6157 335.587 76.552ZM289.767 102.233L289.773 102.233C291.433 102.054 293.108 101.873 294.235 101.64L294.295 101.628L294.306 101.626C294.343 101.619 294.377 101.612 294.408 101.603C294.641 101.536 294.832 101.33 296.269 99.7805L296.271 99.7781C296.693 99.3232 297.222 98.7527 297.891 98.0361C298.392 97.4988 290.561 94.8521 284.016 99.0649C282.69 99.9199 281.583 100.662 280.616 101.31L280.613 101.312C274.958 105.105 274.132 105.658 262.258 106.671C267.76 111.933 275.03 114.951 282.641 115.13C283.463 115.103 283.491 115.066 284.992 113.073L284.993 113.072C285.372 112.57 285.843 111.945 286.444 111.164L286.446 111.161L286.454 111.15C286.549 111.027 286.605 110.954 286.585 110.914C286.56 110.855 286.381 110.864 285.947 110.886L285.945 110.886C285.216 110.923 283.772 110.996 281.139 110.846C279.945 110.778 276.363 110.05 276.504 109.156C276.566 108.749 276.97 108.776 277.499 108.811L277.609 108.818L277.67 108.821L277.752 108.826C279.413 108.905 288.136 109.061 289.035 108.042C290.074 106.93 291.039 105.752 291.925 104.514C291.905 104.508 291.74 104.51 291.473 104.513L291.451 104.513C289.754 104.532 284.094 104.593 284.207 103.353C284.255 102.828 286.989 102.533 289.767 102.233ZM167.526 68.9168L167.529 68.918C167.589 68.9464 167.571 69.1415 167.4 71.0025L167.4 71.0053L167.399 71.015L167.399 71.0162L167.392 71.0971C167.314 71.9468 167.205 73.1286 167.06 74.773C167.002 75.4177 166.578 75.4058 166.463 75.171C165.132 72.5881 165.237 70.1142 165.298 68.6953C165.337 67.7813 165.357 67.3051 164.963 67.5194C164.186 67.9413 163.592 68.2557 163.136 68.4969C161.806 69.2006 161.652 69.2824 161.58 69.589C161.476 70.0612 161.399 70.9068 161.308 71.899C161.042 74.8321 160.658 79.0477 159.11 78.6953C158.213 78.4919 158.452 76.4369 158.82 73.2864L158.82 73.2852C158.927 72.368 159.044 71.3579 159.148 70.2736C159.184 69.8975 158.993 69.8139 158.662 69.8199C158.141 69.8309 157.74 69.8177 157.433 69.8076L157.425 69.8073C156.63 69.7809 156.467 69.7753 156.449 70.2656C156.316 74.4 155.171 77.586 154.284 80.0544C152.638 84.634 151.88 86.7448 160.115 87.8632C162.947 88.2472 171.685 86.2513 171.337 80.542C171.325 80.3549 171.161 78.1022 171.108 77.9192C169.381 71.9863 169.111 69.1424 168.979 67.7534C168.861 66.5039 168.854 66.4321 167.997 66.3453C167.469 66.2926 167.471 66.4355 167.493 67.7407L167.494 67.8181C167.499 68.1203 167.504 68.4814 167.504 68.9124L167.512 68.9135C167.514 68.9139 167.517 68.9144 167.52 68.915L167.526 68.9168ZM134.374 119.019C143.487 117.472 146.738 111.52 146.378 109.258C146.153 107.841 145.188 107.266 141.035 104.787L140.838 104.669C137.486 102.666 136.25 101.016 135.583 100.125C135.039 99.398 134.873 99.1767 134.247 99.6818C133.787 100.05 133.432 100.284 133.178 100.451L133.177 100.452C132.61 100.825 132.556 100.861 132.989 101.31C133.198 101.525 133.429 101.76 133.689 102.023L133.727 102.06L133.731 102.065C134.631 102.974 135.864 104.22 137.618 106.169C138.931 107.63 137.552 109.202 134.504 106.121C133.083 104.685 132.182 103.723 131.587 103.088L131.583 103.084C130.605 102.041 130.459 101.884 130.195 101.958C128.537 102.422 127.445 102.479 126.841 102.511C126.272 102.541 126.138 102.548 126.375 102.852L126.41 102.896C126.853 103.438 131.12 108.669 129.706 109.707C128.563 108.68 127.494 107.575 126.506 106.398C126.163 105.988 125.846 105.582 125.566 105.222C124.869 104.329 124.393 103.719 124.277 104.028C124.228 104.157 124.184 104.275 124.143 104.381L124.141 104.385C123.933 104.928 123.829 105.202 123.85 105.466C123.871 105.733 124.021 105.991 124.324 106.509C124.86 107.427 125.874 109.162 127.493 113.218C129.501 118.252 131.648 118.738 134.374 119.019ZM148.913 71.0795C148.889 71.4712 148.711 71.8373 148.418 72.0982C148.125 72.3593 147.741 72.4938 147.349 72.4725C147.251 72.4592 147.129 72.4363 146.989 72.4098C145.807 72.186 143.323 71.7159 142.629 74.8068C142.541 75.1923 143.08 75.5278 143.203 75.6042C143.215 75.6114 143.222 75.6163 143.226 75.6187C144.238 76.3875 145.084 77.3536 145.713 78.4586C146.341 79.5639 146.738 80.785 146.881 82.048C147.024 83.3113 146.909 84.5902 146.543 85.8077C146.177 87.0252 145.568 88.1557 144.752 89.1308C144.525 89.4387 144.328 89.6377 144.187 89.7803C144.04 89.9284 143.954 90.0158 143.956 90.1011C143.959 90.2245 144.147 90.3432 144.608 90.6335L144.61 90.6353C144.734 90.7133 144.878 90.8038 145.043 90.9099C146.17 91.6357 146.697 92.4459 147.047 92.9838L147.048 92.9849C147.386 93.505 147.559 93.7701 147.948 93.4571C148.904 92.7029 149.674 92.8205 150.921 93.0111L151.132 93.0432C151.699 93.1293 151.759 92.9815 151.958 92.4915C152.131 92.0643 152.41 91.3773 153.222 90.3587C153.533 89.9688 153.511 89.9523 152.825 89.4516C152.692 89.3545 152.533 89.2391 152.348 89.099C148.553 86.2632 149.244 81.935 151.496 77.756C152.641 75.1272 153.296 72.3117 153.431 69.4477L153.433 69.426C153.536 68.5859 153.538 68.5709 152.834 68.194C151.259 67.3544 150.616 66.3835 150.285 65.8838C150.032 65.5033 149.961 65.3961 149.799 65.8279C148.995 67.4535 148.687 69.28 148.913 71.0795ZM341.627 123.936C338.554 132.468 334.958 140.803 330.861 148.893C330.053 150.417 329.971 150.61 330.556 150.584C333.631 150.444 335.679 150.556 337.066 150.631C339.092 150.742 339.708 150.775 340.053 149.838C345.143 135.983 343.366 126.356 341.627 123.936ZM207.519 184.593C207.317 183.922 206.983 183.299 206.536 182.76C206.088 182.221 205.537 181.777 204.914 181.456C204.292 181.134 203.611 180.941 202.913 180.889C202.214 180.836 201.512 180.925 200.848 181.148C192.781 183.649 197.209 193.166 203.945 190.913C205.253 190.543 206.362 189.671 207.031 188.489C207.701 187.305 207.876 185.904 207.519 184.593ZM191.231 174.758C190.603 174.754 189.981 174.876 189.4 175.112C188.819 175.349 188.291 175.697 187.845 176.139C187.398 176.579 187.044 177.104 186.8 177.683C186.557 178.261 186.43 178.881 186.427 179.508C186.473 180.822 187.02 182.067 187.956 182.989C188.891 183.912 190.144 184.441 191.457 184.469C197.776 184.352 197.547 174.657 191.231 174.758ZM178.783 180.418C177.941 180.432 177.119 180.674 176.404 181.118C175.689 181.564 175.108 182.195 174.724 182.943C173.549 185.755 175.364 188.756 176.96 189.003C177.127 189.028 177.365 189.086 177.644 189.154L177.656 189.157C178.573 189.375 179.923 189.698 180.62 189.375C181.646 188.983 182.5 188.238 183.029 187.275C183.557 186.312 183.726 185.194 183.506 184.117C183.285 183.041 182.689 182.077 181.824 181.401C180.959 180.722 179.881 180.374 178.783 180.418ZM162.396 181.751C162.688 182.525 163.164 183.218 163.782 183.769C164.4 184.32 165.143 184.714 165.946 184.915C169.761 185.239 172.751 182.034 171.402 178.662C169.4 173.664 160.899 176.665 162.396 181.751ZM221.166 188.24C221.395 182.668 212.311 181.291 212.14 187.98C212.132 188.601 212.251 189.215 212.489 189.789C212.727 190.362 213.079 190.879 213.523 191.313C213.968 191.745 214.496 192.083 215.075 192.306C215.653 192.529 216.272 192.63 216.892 192.606C217.46 192.604 218.022 192.489 218.545 192.266C219.068 192.045 219.542 191.721 219.94 191.315C220.337 190.909 220.65 190.429 220.861 189.9C221.071 189.373 221.175 188.81 221.166 188.24ZM210.936 174.087C210.311 173.773 208.11 175.92 209.254 179.047C209.752 180.406 211.355 182.083 212.498 181.478C213.945 180.712 214.986 180.572 215.664 180.48L215.67 180.479C216.38 180.386 216.688 180.344 216.641 179.687C216.514 178.917 216.592 178.127 216.869 177.397C217.145 176.667 217.609 176.022 218.215 175.528C218.304 175.427 218.417 175.35 218.532 175.271L218.546 175.262L218.547 175.261C218.781 175.102 219.015 174.943 219.047 174.603C216.336 174.573 213.628 174.4 210.936 174.087ZM174.964 172.738C174.131 173.781 173.639 175.055 173.555 176.386C174.179 177.439 174.346 178.201 174.443 178.647C174.545 179.112 174.571 179.232 174.968 178.973C177.32 177.449 178.962 177.685 180.079 177.847L180.084 177.847C180.847 177.956 181.363 178.03 181.693 177.478C182.279 176.585 182.496 175.498 182.297 174.45C182.097 173.399 181.497 172.468 180.623 171.853C179.749 171.236 178.67 170.985 177.614 171.15C176.558 171.315 175.608 171.885 174.964 172.738ZM245.898 189.341L245.687 188.256C245.48 187.647 245.134 187.096 244.676 186.644C244.216 186.193 243.661 185.854 243.048 185.657C242.437 185.458 241.787 185.405 241.152 185.502C240.517 185.598 239.912 185.842 239.387 186.213C236.334 188.889 238.672 192.905 240.758 192.614C241.946 192.449 242.515 192.401 242.955 192.363L242.998 192.36L243 192.36C243.346 192.332 243.618 192.31 244.071 192.238C245.15 192.073 245.898 190.417 245.898 189.341ZM186.271 172.889L186.271 172.933C186.258 173.703 186.253 174.02 186.664 173.749C190.673 171.118 193.241 172.287 194.62 172.915C195.362 173.254 195.759 173.435 195.849 172.778C195.956 172.103 195.919 171.413 195.739 170.754C195.56 170.096 195.242 169.483 194.808 168.955C194.373 168.428 193.832 167.998 193.219 167.696C192.606 167.393 191.936 167.224 191.254 167.2C190.571 167.176 189.891 167.298 189.258 167.556C188.626 167.813 188.055 168.203 187.585 168.699C187.114 169.194 186.754 169.785 186.528 170.43C186.303 171.075 186.216 171.759 186.276 172.44C186.276 172.603 186.273 172.753 186.271 172.889ZM232.183 193.084C232.698 193.06 232.959 192.885 233.003 192.051C233.164 189.044 228.663 187.339 224.911 188.583C224.497 188.72 224.402 189.142 224.259 189.775L224.258 189.777C224.077 190.571 223.82 191.698 222.76 193.014C222.314 193.569 229.207 193.23 231.649 193.11L231.659 193.11L232.014 193.092L232.183 193.084ZM200.655 178.251C202.13 177.833 203.696 177.87 205.149 178.36C205.652 178.454 205.659 178.056 205.67 177.391C205.686 176.468 205.711 175.031 207.099 173.701C207.288 173.526 207.117 173.471 206.584 173.299L206.502 173.272C204.664 172.673 203.972 172.225 203.557 171.956C203.245 171.755 203.09 171.656 202.721 171.668C197.481 171.853 198.958 178.742 200.655 178.251ZM195.201 191.884C195.211 191.81 195.899 191.888 196.119 191.914C196.153 191.918 196.176 191.92 196.184 191.92C196.182 191.826 196.164 191.735 196.13 191.647C194.825 189.534 193.567 187.691 190.719 187.375C189.754 187.257 188.775 187.422 187.902 187.854C187.03 188.284 186.303 188.961 185.81 189.799L185.781 189.832C185.762 189.855 185.744 189.876 185.726 189.896L185.725 189.898C185.556 190.093 185.437 190.232 185.458 190.344C185.51 190.612 186.379 190.724 189.341 191.104L189.342 191.104L189.414 191.113C190.829 191.295 192.713 191.538 195.201 191.884ZM224.683 183.291H224.677L224.672 183.291C222.97 183.261 222.878 183.26 223.116 183.685C223.375 184.151 223.566 184.513 223.713 184.79C224.181 185.679 224.199 185.713 224.569 185.538C226.71 184.664 229.102 184.633 231.265 185.448C232.038 185.755 232.073 185.677 232.889 182.826C233.046 182.268 232.516 182.385 231.353 182.642L231.343 182.645C230.125 182.915 228.215 183.339 225.676 183.307C225.299 183.303 224.973 183.297 224.692 183.291H224.683ZM250.522 191.584L250.646 191.57C250.801 191.553 250.95 191.536 251.092 191.52C253.973 191.2 254.228 191.17 254.465 190.549C254.732 190.091 254.964 189.613 255.161 189.122C253.368 189.588 251.466 189.339 249.852 188.431C248.405 187.301 248.443 186.147 248.469 185.44L248.469 185.439C248.489 184.851 248.498 184.573 247.621 184.881C247.187 185.034 247.383 185.396 247.714 186.01L247.719 186.018C248.216 186.935 249.018 188.414 248.495 190.587L248.441 190.809V190.811V190.813V190.815V190.817H248.439V190.819L248.431 190.854C248.314 191.352 248.287 191.47 248.328 191.562C248.34 191.59 248.36 191.613 248.383 191.647C248.413 191.685 248.451 191.735 248.495 191.81V191.818C249.271 191.725 249.942 191.65 250.522 191.584ZM237.407 181.184C237.001 181.293 236.67 181.377 236.4 181.447C235.357 181.709 235.234 181.741 235.329 182.107C235.977 184.552 235.365 185.974 234.993 186.84L234.991 186.845C234.704 187.506 234.561 187.84 235.232 188.057C235.46 188.131 235.502 187.92 235.542 187.721L235.546 187.703C235.56 187.634 235.574 187.569 235.596 187.518C236.78 184.701 237.683 184.092 238.124 183.796L238.125 183.795L238.137 183.787C238.264 183.701 238.351 183.643 238.394 183.56C238.489 183.375 238.364 183.078 237.973 182.142L237.97 182.135C237.922 182.023 237.872 181.901 237.817 181.769C237.78 181.681 237.742 181.588 237.701 181.49C237.663 181.403 237.582 181.333 237.504 181.269H237.502V181.267C237.468 181.24 237.434 181.212 237.407 181.184ZM196.341 62.4069C195.646 61.6658 194.299 60.2288 190.667 59.8078C185.358 59.8734 182.825 62.6117 182.648 66.5678C182.622 67.1614 182.688 67.6635 182.745 68.0935C182.857 68.9496 182.932 69.519 182.174 69.9508C174.859 74.1278 175.311 82.1276 181.308 86.4001C181.802 86.7527 182.361 87.0297 182.797 87.2461L182.799 87.2469C183.392 87.5406 183.759 87.7225 183.428 87.829C182.093 88.2622 181.299 88.7712 180.774 89.1079C180.305 89.4088 180.051 89.5722 179.816 89.421C178.991 88.891 178.259 88.9438 177.732 88.9818C177.258 89.016 176.949 89.0383 176.887 88.613C176.755 87.7155 175.514 86.2091 174.535 86.6071C174.169 86.7551 174.188 87.3542 174.216 88.2154L174.217 88.2166C174.247 89.1511 174.288 90.3941 173.858 91.7035C173.816 91.9688 173.851 92.2404 173.96 92.486C174.068 92.7315 174.245 92.9403 174.47 93.0875C174.695 93.2348 174.957 93.3138 175.225 93.3154C175.494 93.317 175.757 93.241 175.983 93.0965C176.111 93.0221 176.254 92.9017 176.406 92.7733C176.92 92.3401 177.543 91.8153 178.065 92.6487C178.123 92.7413 178.171 92.8392 178.22 92.9377L178.221 92.9401L178.222 92.9418C178.277 93.0539 178.333 93.1665 178.403 93.2716C178.588 93.5588 178.836 93.7998 179.128 93.9763C179.42 94.1526 179.749 94.2596 180.089 94.2893C180.429 94.3189 180.771 94.2702 181.09 94.1468C181.408 94.0236 181.694 93.829 181.925 93.5781C183.037 92.5839 184.272 91.7365 185.599 91.0567C186.367 90.5871 186.378 90.602 186.885 91.2605L186.974 91.3751C187.357 91.8679 187.256 91.9731 186.923 92.319L186.863 92.3821C185.756 93.7976 184.421 95.0182 182.912 95.9939C182.246 96.4741 181.508 96.9372 180.755 97.4092C177.443 99.4872 173.845 101.744 174.829 106.431C176.523 114.487 191.613 121.496 197.694 113.235C198.634 111.958 198.979 110.915 199.473 109.419L199.473 109.418C199.993 107.846 200.678 105.772 202.395 102.4C202.726 101.748 202.78 101.784 203.262 102.104L203.266 102.106C203.341 102.156 203.426 102.213 203.525 102.274C205.517 103.529 206.977 103.64 208.107 103.725C209.393 103.823 210.252 103.888 210.983 105.572C211.054 105.733 211.166 106.058 211.296 106.437C211.478 106.966 211.697 107.599 211.887 108.031C212.045 108.278 212.262 108.48 212.519 108.619C212.776 108.759 213.065 108.83 213.357 108.828C213.65 108.826 213.937 108.749 214.191 108.606C214.446 108.462 214.66 108.257 214.814 108.008C215.26 107.386 215.831 106.864 216.49 106.476C217.149 106.088 217.883 105.842 218.643 105.755C221.27 105.203 222.322 106.53 223.051 107.449C223.218 107.661 223.369 107.851 223.518 107.992C223.739 108.176 224 108.309 224.277 108.384C224.555 108.458 224.848 108.471 225.13 108.421C225.415 108.372 225.684 108.261 225.922 108.098C226.159 107.934 226.356 107.72 226.503 107.472C226.778 106.793 227.214 106.191 227.775 105.718C228.334 105.245 228.999 104.914 229.715 104.756C231.298 104.358 232.468 105.225 233.367 105.893L233.369 105.894C233.568 106.043 233.755 106.182 233.93 106.294C234.137 106.463 234.394 106.557 234.66 106.562C234.927 106.567 235.188 106.483 235.401 106.323C235.616 106.162 235.769 105.935 235.836 105.678C235.906 105.42 235.886 105.147 235.783 104.901C233.92 100.324 228.545 100.76 225.319 103.508L225.305 103.52C224.832 103.926 224.818 103.939 224.336 103.586C221.274 101.343 217.28 102.159 214.143 104.091C213.849 104.277 213.812 104.229 213.498 103.83L213.496 103.828C213.339 103.628 213.113 103.34 212.75 102.949C212.5 102.677 212.735 102.57 213.226 102.346L213.229 102.345C213.322 102.302 213.424 102.256 213.535 102.203C215.721 101.158 216.529 100.295 217.005 99.7863C217.478 99.281 217.624 99.1254 218.468 99.4884C219.212 99.9632 220.074 100.222 220.957 100.237C225.544 100.233 229.807 96.0656 231.441 91.801C232.368 89.7624 232.467 87.4433 231.717 85.3329C230.967 83.2227 229.427 81.4862 227.421 80.4898C227.029 80.3318 226.694 80.1993 226.408 80.0861L226.406 80.0855C225.295 79.6465 224.923 79.499 224.878 79.2831C224.854 79.175 224.914 79.05 225.004 78.863L225.007 78.8568L225.051 78.7625C225.697 77.5912 226.038 76.2764 226.044 74.9389C226.05 73.6013 225.719 72.2837 225.083 71.107C224.629 69.9723 223.944 68.9441 223.073 68.0876C222.201 67.2313 221.161 66.5652 220.018 66.132C218.02 65.2534 216.641 65.2815 215.7 65.3008C214.747 65.3201 214.242 65.3304 213.996 64.3848C212.219 57.5611 207.282 55.5412 201.726 58.0168C199.764 58.9817 198.193 60.5892 197.272 62.5719C196.953 63.0592 196.773 62.8674 196.341 62.4069ZM197.575 106.779L197.575 106.781C196.113 110.735 195.236 113.106 190.389 113.866C179.84 112.328 176.495 104.806 179.064 102.907C181.096 101.412 182.439 100.499 183.43 99.8255L183.433 99.8237C185.825 98.1969 186.163 97.967 189.203 94.3084C189.382 94.0929 189.405 94.1086 190.483 94.8469C190.708 95.0017 190.98 95.1882 191.31 95.4109C191.772 95.7235 190.535 97.0214 189.193 98.4293L189.192 98.4309C187.979 99.7032 186.681 101.065 186.475 101.87C186.077 103.401 187.925 102.877 189.062 101.777C190.441 100.442 192.291 98.3939 193.684 96.8019C193.893 96.5643 194.049 96.6059 194.458 96.7143C194.963 96.8482 195.853 97.0845 197.7 97.0228C198.265 97.0041 197.741 97.7286 196.974 98.7893C195.948 100.21 194.485 102.233 194.616 103.882C194.732 105.464 197.607 101.45 199.006 99.4963L199.009 99.4915C199.397 98.9498 199.671 98.5678 199.74 98.5093C199.897 98.3839 200.02 98.366 200.138 98.5829L200.19 98.6784C200.567 99.364 200.938 100.041 200.178 100.746C198.953 103.053 198.209 105.065 197.575 106.779ZM189.694 144.115L189.695 144.072C189.707 142.809 189.711 142.361 189.541 142.281C189.448 142.237 189.303 142.305 189.076 142.41L189.075 142.411C189.032 142.431 188.985 142.452 188.936 142.475C185.8 143.898 184.586 141.41 186.058 140.73C186.34 140.616 186.629 140.525 186.924 140.455C187.495 140.293 187.944 140.174 188.295 140.081L188.302 140.08C189.525 139.757 189.571 139.744 189.565 139.261C189.544 137.542 189.532 136.293 189.523 135.369V135.365L189.523 135.353V135.35L189.523 135.343C189.503 133.301 189.499 132.861 189.45 132.426C189.438 132.314 189.422 132.202 189.403 132.063L189.399 132.037L189.397 132.023C189.364 131.784 189.319 131.462 189.259 130.933C189.013 128.83 188.91 122.717 188.887 121.389L188.887 121.38V121.379V121.376L188.886 121.343C188.884 121.21 188.883 121.136 188.882 121.132C188.883 120.569 189.106 120.028 189.503 119.628C189.9 119.229 190.438 119.002 191.002 118.997C195.373 118.994 199.662 120.183 203.407 122.437C207.153 124.69 210.212 127.923 212.257 131.787C215.727 138.795 213.574 150.025 204.916 156.707C200.955 159.121 196.381 160.339 191.744 160.215C189.959 160.03 189.958 159.915 189.926 155.939L189.926 155.907L189.926 155.902C189.921 155.31 189.915 154.634 189.903 153.862C189.878 152.298 189.785 152.31 189.257 152.381C188.936 152.424 188.455 152.488 187.732 152.234C187.287 152.078 187.112 152.22 186.806 152.468C186.505 152.714 186.076 153.062 185.133 153.328C184.728 153.398 184.311 153.375 183.916 153.262C183.52 153.148 183.155 152.946 182.849 152.671C182.543 152.396 182.303 152.055 182.147 151.674C181.991 151.293 181.923 150.882 181.949 150.471C181.935 150.316 181.968 150.16 182.045 150.024C182.121 149.889 182.237 149.779 182.377 149.711C182.516 149.643 182.674 149.618 182.828 149.641C182.982 149.664 183.125 149.733 183.239 149.84C183.5 150.013 183.687 150.211 183.848 150.38L183.849 150.381C184.312 150.871 184.548 151.121 185.684 149.84C186.559 148.851 187.136 148.957 187.852 149.089L187.854 149.089C188.225 149.157 188.633 149.232 189.139 149.165C189.76 149.083 189.759 148.985 189.743 146.95V146.947C189.74 146.557 189.736 146.096 189.736 145.55L189.686 145.548C189.686 144.983 189.691 144.51 189.694 144.115ZM184.624 129.151C184.819 127.939 183.265 127.368 181.905 127.605C162.873 130.916 149.743 144.365 161.627 157.354C164.738 160.681 168.499 163.332 172.678 165.142C175.531 166.358 176.135 164.038 180.365 147.776L180.366 147.772L180.493 147.286C182.176 141.315 183.555 135.262 184.624 129.151ZM149.076 132.813C156.76 135.826 172.767 131.028 172.988 113.755C173.135 102.35 162.586 92.8499 160.624 96.5911C156.08 106.24 152.117 116.152 148.758 126.274L148.658 126.605L148.654 126.619L148.652 126.626C147.959 128.911 147.021 132.006 149.076 132.813ZM94.8768 125.345C95.4887 125.101 95.9369 125 96.2477 124.93C96.7856 124.809 96.9114 124.781 96.7613 124.262C95.8444 121.096 97.9289 119.592 99.1436 118.715L99.1444 118.714C99.7059 118.309 100.081 118.038 99.8876 117.799C97.2489 114.547 97.7802 112.016 99.9533 110.352C103.404 107.709 105.539 109.039 104.16 110.597C103.802 111 103.467 111.36 103.163 111.687C101.776 113.178 101.027 113.984 101.621 115.064C102.087 116.12 102.721 117.094 103.499 117.946C103.696 118.096 103.853 118.294 103.953 118.521C104.053 118.747 104.094 118.996 104.072 119.243C104.051 119.489 103.967 119.727 103.829 119.933C103.691 120.139 103.503 120.306 103.283 120.42C102.952 120.603 102.528 120.75 102.086 120.904C100.398 121.49 98.424 122.176 100.172 125.345C100.324 125.565 100.41 125.823 100.42 126.091C100.431 126.358 100.365 126.622 100.231 126.853C100.097 127.085 99.9002 127.273 99.6632 127.397C99.4262 127.52 99.1589 127.574 98.8926 127.552C98.71 127.567 98.467 127.565 98.1904 127.563H98.187C96.8821 127.552 94.8354 127.535 94.8569 129.323C94.8619 129.77 94.8604 130.108 94.8592 130.369L94.8591 130.392L94.8591 130.394C94.8563 130.962 94.8554 131.154 94.9293 131.31C94.967 131.389 95.0241 131.46 95.11 131.566C95.165 131.633 95.2316 131.716 95.3126 131.824C95.9474 132.672 94.3634 133.034 93.5574 132.322C93.0247 131.846 92.6239 131.24 92.3943 130.564C92.1646 129.887 92.1137 129.163 92.2464 128.461C92.3792 127.759 92.691 127.103 93.1519 126.557C93.6128 126.011 94.207 125.593 94.8768 125.345ZM131.18 134.544C131.089 134.976 130.973 135.523 130.848 136.22C130.748 139.496 133.093 140.444 134.676 141.083L134.681 141.085C135.044 141.232 135.367 141.363 135.61 141.502C137.389 142.526 138.605 139.227 135.728 137.796C134.253 137.064 134.464 136.363 134.829 135.157L134.829 135.155C134.948 134.76 135.084 134.31 135.182 133.786C135.841 130.296 133.291 129.565 131.042 128.919C129.262 128.409 127.669 127.952 128.004 126.224C128.118 125.629 127.756 125.106 126.991 125.474C124.808 126.533 125.232 130.527 128.962 132.041C129.568 132.287 130.038 132.435 130.395 132.547L130.398 132.548C130.895 132.704 131.173 132.792 131.299 132.981C131.459 133.221 131.374 133.625 131.18 134.544ZM146.267 137.378L146.272 137.379C147.431 137.548 148.63 137.723 149.357 139.297C149.465 139.541 149.624 139.761 149.824 139.939C150.023 140.118 150.258 140.253 150.513 140.334C153.444 141.416 153.025 144.781 152.304 145.03C151.941 145.154 151.714 144.926 151.373 144.582C150.977 144.184 150.429 143.631 149.337 143.291C147.529 142.729 147.109 141.988 146.794 141.434C146.545 140.995 146.361 140.673 145.608 140.648C144.482 140.654 143.395 140.234 142.566 139.471C141.737 138.709 141.227 137.661 141.138 136.539C141.123 134.645 141.448 132.764 142.098 130.985C142.389 129.671 141.929 129.176 141.586 128.806C141.321 128.521 141.126 128.311 141.391 127.858C142.002 126.817 144.428 127.761 144.637 130.165C144.731 131.271 144.511 132.407 144.311 133.439C143.952 135.292 143.658 136.81 145.367 137.219C145.658 137.289 145.961 137.333 146.267 137.378ZM207.442 115.878C207.445 115.739 207.447 115.579 207.447 115.395L207.549 115.393C207.491 114.654 207.394 113.919 207.258 113.19C206.285 109.087 201.624 109.341 201.007 111.757C200.755 112.712 201.539 112.681 201.905 112.667L201.943 112.666C201.965 112.665 201.985 112.665 202.002 112.665C202.005 112.665 202.014 112.66 202.028 112.652L202.055 112.637C202.334 112.473 203.634 111.711 204.205 113.272C204.467 114.705 204.467 116.173 204.205 117.606C204.19 117.929 204.242 118.251 204.359 118.553C204.476 118.854 204.654 119.128 204.883 119.356C205.112 119.584 205.386 119.762 205.688 119.878C205.99 119.994 206.312 120.046 206.635 120.03C207.723 119.966 208.453 119.859 208.979 119.782L208.981 119.781C209.565 119.696 209.895 119.647 210.183 119.737C210.559 119.855 210.861 120.21 211.557 121.028L211.558 121.029L211.686 121.178L211.822 121.338L211.988 121.531L212.066 121.622C212.951 122.647 214.008 123.518 214.711 122.34C215.582 120.874 214.591 118.887 213.417 117.672C211.85 116.046 210.408 116.28 208.386 116.608L208.369 116.61C208.243 116.631 208.115 116.651 207.985 116.672L207.829 116.697C207.429 116.758 207.431 116.613 207.442 115.885L207.442 115.878ZM174.825 119.554C174.781 117.469 178.208 116.657 179.551 119.305C179.728 119.656 179.805 119.931 179.863 120.139C179.975 120.539 180.016 120.687 180.566 120.631C185.046 120.181 185.814 125.238 184.148 124.611L183.548 124.381L183.545 124.38C181.866 123.737 181.357 123.542 180.834 123.487C180.607 123.463 180.378 123.464 180.048 123.467L179.947 123.468L179.794 123.468C177.85 123.468 177.641 122.518 177.393 121.394C177.313 121.034 177.23 120.655 177.084 120.284C176.885 119.767 176.487 119.664 176.174 120.074C175.699 120.712 174.793 120.603 174.825 119.554ZM214.122 147.037C214.071 147.196 214.065 147.366 214.106 147.527C215.001 150.514 219.524 151.633 220.402 148.49C220.503 148.185 220.502 147.856 220.401 147.551C220.299 147.246 220.102 146.982 219.838 146.798C219.575 146.615 219.259 146.521 218.938 146.531C218.617 146.541 218.307 146.655 218.056 146.855C217.208 147.418 216.549 147.099 215.326 146.486C215.172 146.421 215.004 146.4 214.839 146.425C214.674 146.45 214.52 146.521 214.393 146.629C214.266 146.737 214.172 146.878 214.122 147.037ZM185.464 158.822C185.38 159.172 185.246 159.507 185.066 159.817C184.696 160.388 184.204 160.868 183.625 161.222C183.046 161.576 182.395 161.797 181.72 161.867C178.051 162.229 178.113 158.936 180.083 158.749C181.997 158.569 183.227 158.323 184.018 158.164C185.339 157.899 185.437 157.879 185.464 158.822ZM291.011 46.3975C285.76 45.6851 281.935 49.4204 281.139 54.5566C281.071 55.0003 280.767 54.871 280.11 54.5922L280.108 54.5913C278.951 54.1009 276.709 53.1503 272.751 54.0352C265.235 55.7068 259.149 61.9852 264.741 67.4478C265.159 67.8555 265.503 68.1844 265.781 68.4514L265.816 68.4848L265.822 68.4899L265.824 68.4929L265.828 68.4963L265.83 68.4983C266.624 69.2569 266.876 69.4978 266.831 69.6491C266.809 69.7196 266.723 69.7705 266.598 69.8453C266.554 69.8712 266.506 69.8999 266.455 69.9333C261.557 73.0775 259.494 77.8415 263.945 82.1738C264.725 82.9325 264.572 83.0176 263.119 83.8294L263.115 83.8314C262.387 84.2378 261.334 84.8257 259.91 85.7697C251.494 91.3477 255.75 98.3982 258.877 97.5585C259.358 97.4291 259.579 96.7505 258.911 96.0859C258.495 95.6725 258.178 95.1687 257.987 94.6137C257.796 94.0585 257.736 93.467 257.812 92.885C257.886 92.3029 258.095 91.7459 258.419 91.2569C258.743 90.7682 259.177 90.3606 259.685 90.0661C261.47 88.7786 265.86 85.7299 267.615 84.5658C267.953 84.3795 268.236 84.1073 268.433 83.7767C268.632 83.4462 268.739 83.0691 268.745 82.6836C268.751 82.2982 268.656 81.9177 268.468 81.5812C268.279 81.2446 268.007 80.9637 267.674 80.7668C265.969 79.5669 263.987 78.0644 264.946 76.0744C266.043 74.1413 267.808 72.6767 269.911 71.9571C272.506 70.9482 272.584 69.199 271.38 68.1005C271.074 67.8211 270.626 67.4779 270.121 67.0908L270.096 67.0719C268.09 65.5378 265.191 63.3185 266.443 61.5952C268.086 59.7375 270.228 58.3885 272.612 57.7067C273.8 57.303 275.059 57.1461 276.311 57.2456C277.563 57.3453 278.781 57.6992 279.891 58.2858C283.994 60.0655 284.13 58.6359 284.341 56.3901L284.341 56.3888C284.498 54.7273 284.697 52.6196 286.576 51.0343C289.525 48.5448 293.154 50.4313 295.765 53.2551C296.46 54.0061 297.109 54.9886 297.737 55.9412C299.441 58.5224 301.001 60.8846 302.955 57.8321C303.885 56.4751 305.25 55.4749 306.824 54.9963C308.012 54.5705 308.672 54.9247 309.154 56.1187C309.587 57.1999 309.572 58.5522 309.558 59.8223L309.558 59.8314L309.558 59.8356C309.528 62.389 309.502 64.6047 313.134 63.6091C314.533 63.1967 315.988 63.0127 317.444 63.0638C320.109 63.2034 318.813 66.5506 317.624 69.6228L317.621 69.6292C316.963 71.3255 316.338 72.937 316.431 73.8775C316.422 74.0572 316.461 74.2361 316.549 74.3937C316.636 74.5511 316.766 74.6806 316.923 74.767C317.082 74.8532 317.261 74.893 317.44 74.8814C317.619 74.8697 317.793 74.8074 317.938 74.7013C319.958 73.4715 322.173 68.7472 322.63 67.0339C323.715 62.9723 321.321 58.8808 316.762 59.3584C315.566 59.4836 314.766 59.6322 314.233 59.7315C313.307 59.9035 313.18 59.927 313.168 59.4221C313.291 57.5587 312.951 55.6936 312.173 53.9954C309.805 49.689 304.935 51.0163 301.95 53.7805C301.777 53.9414 301.594 54.0899 301.409 54.2387C301.309 54.3199 301.21 54.4013 301.11 54.4849C299.18 51.8322 295.606 47.0184 291.011 46.3975ZM277.366 90.3368C276.572 91.004 276.614 91.8585 276.647 92.5437C276.685 93.2889 276.713 93.8338 275.642 93.7197C273.684 93.5068 272.458 89.3418 276.874 86.5558C278.783 85.3908 280.924 84.6605 283.147 84.4165C283.779 84.2722 283.686 84.0872 283.398 83.5123L283.397 83.5105C283.061 82.8404 282.46 81.6422 282.424 79.3659C282.367 75.5948 284.95 70.8726 287.097 68.1264C290.888 63.2787 296.072 64.1304 298.135 69.9273C298.484 70.9028 298.484 70.9026 299.435 70.6304L299.457 70.6238C299.998 70.3723 300.589 70.2467 301.186 70.2567C301.783 70.2666 302.37 70.4119 302.903 70.6813C303.437 70.9508 303.9 71.3376 304.263 71.8126C304.623 72.2877 304.874 72.8385 304.991 73.4237C305.096 73.779 305.138 74.0755 305.172 74.3159L305.174 74.3167L305.174 74.3184C305.244 74.809 305.28 75.0653 305.759 75.1093C307.729 75.2884 309.017 75.6804 309.739 77.6565C311.132 81.5012 307.26 84.8543 306.481 79.7121C306.366 78.945 305.817 78.8558 305.106 78.741C304.868 78.7024 304.611 78.6608 304.348 78.5898C302.318 78.0467 302.015 76.6859 301.704 75.2976L301.703 75.2933L301.701 75.2825C301.648 75.0431 301.595 74.803 301.532 74.566C301.353 73.8854 301.162 73.9511 298.506 75.0476C296.157 76.0189 295.596 74.3248 294.943 72.3549C294.836 72.0286 294.725 71.6948 294.603 71.3641C293.986 69.6865 293.011 68.2915 291.473 69.189C289.65 70.2497 287.443 74.2536 286.697 76.2515C286.106 77.6849 285.994 79.2704 286.374 80.773C286.757 82.2755 287.612 83.6153 288.814 84.5936C289.037 84.871 289.182 85.2038 289.232 85.5566C289.284 85.9094 289.236 86.2692 289.099 86.5981C288.962 86.9269 288.739 87.2124 288.452 87.4248C288.166 87.6369 287.827 87.7679 287.473 87.8035C286.771 87.8658 286.072 87.893 285.378 87.9201C282.651 88.0266 279.983 88.1308 277.366 90.3368ZM305.898 168.396C306.711 168.358 307.233 168.334 307.526 168.886C308.961 171.584 318.183 179.767 319.434 177.051C319.625 176.635 319.208 176.298 318.545 175.767L318.505 175.733C315.618 173.441 312.903 170.937 310.384 168.245C311.198 167.99 311.646 167.928 312.322 167.839H312.324L312.374 167.832C312.93 167.755 313.65 167.656 314.843 167.413C316.173 167.142 317.044 166.914 317.633 166.758L317.636 166.758C318.653 166.492 318.834 166.444 319.096 166.768C321.655 169.855 324.996 172.195 328.771 173.546C330.966 174.05 330.974 172.575 328.821 171.321C326.389 169.912 324.089 168.287 321.952 166.462C321.832 166.36 321.711 166.279 321.605 166.209L321.604 166.208C321.445 166.101 321.331 166.024 321.329 165.944C321.325 165.718 322.242 165.479 325.737 164.569L325.741 164.567L325.751 164.565L325.765 164.561C326.762 164.303 327.968 163.988 329.42 163.604C335.404 162.026 338.684 161.216 340.485 160.772L340.499 160.769C342.644 160.239 342.678 160.231 342.703 160.046C342.739 159.769 342.548 159.779 342.363 159.789C342.297 159.793 342.232 159.795 342.18 159.785C339.573 159.286 334.546 160.279 332.351 160.713C332.263 160.73 332.179 160.746 332.1 160.762C332.034 160.775 331.972 160.787 331.914 160.798C331.862 160.808 331.813 160.818 331.766 160.826C331.701 160.838 331.621 160.856 331.54 160.876C331.305 160.928 331.05 160.983 331.024 160.932C330.909 160.699 331.068 160.561 331.227 160.424C331.301 160.36 331.374 160.299 331.422 160.225C331.564 160.01 331.709 159.815 331.844 159.634L331.91 159.545C332.523 158.723 332.925 158.183 332.172 157.439C331.591 156.864 330.785 157.397 330.296 157.994C329.042 159.499 328.807 160.372 328.666 160.902L328.665 160.904C328.544 161.356 328.492 161.553 327.92 161.67C325.241 162.398 322.521 162.969 319.775 163.377C320.668 161.825 321.436 160.203 322.069 158.528C322.326 157.656 321.452 156.753 320.278 157.684C319.036 159.121 318.209 160.868 317.878 162.737C317.86 162.868 317.86 163.017 317.858 163.162C317.858 163.451 317.858 163.736 317.715 163.879C315.066 164.601 312.368 165.132 309.644 165.471C309.781 161.891 311.049 158.591 311.928 156.307L311.931 156.3C312.614 154.521 313.06 153.359 312.545 153.165C311.158 152.642 306.432 160.649 307.088 165.439C307.162 165.973 306.788 166.034 305.97 166.166L305.964 166.167C305.282 166.277 304.29 166.436 302.995 166.957C302.864 166.995 302.748 167.075 302.667 167.186C302.587 167.296 302.545 167.429 302.547 167.566C302.551 167.704 302.599 167.835 302.687 167.94C302.772 168.046 302.891 168.121 303.025 168.151C304.231 168.475 305.17 168.43 305.884 168.396L305.89 168.396L305.898 168.396ZM280.209 165.417C280.747 165.491 281.171 165.554 281.505 165.606C282.753 165.797 282.781 165.801 283.053 165.387C284.86 162.663 284.995 162.565 285.738 162.04C285.799 161.996 285.865 161.95 285.935 161.899C286.444 161.531 286.532 162.446 286.309 163.079C285.881 164.277 285.572 165.03 285.373 165.516L285.368 165.529C285.015 166.386 285.009 166.402 285.282 166.567C287.68 168.012 289.097 172.969 288.367 175.672C288.309 175.882 288.146 176.064 287.982 176.241C287.915 176.316 287.847 176.392 287.787 176.468C286.913 175.583 286.56 174.483 286.129 173.138L286.128 173.134C285.738 171.914 285.282 170.492 284.315 168.844C284.036 168.372 283.881 168.603 283.608 169.122L278.832 178.077C278.745 178.236 278.835 178.309 279.032 178.471L279.035 178.473L279.038 178.475C279.467 178.828 280.398 179.595 281.133 182.509C281.459 183.805 281.354 184.246 281.26 184.638C281.193 184.921 281.131 185.178 281.244 185.709C281.4 186.447 281.145 188.694 280.422 188.74C279.734 188.776 279.513 187.352 279.243 185.61L279.242 185.608L279.241 185.598C279.002 184.058 278.726 182.27 278.052 181.019C277.578 180.139 277.478 180.302 276.774 181.448L276.771 181.454C276.138 182.487 275.018 184.316 272.703 186.899C272.359 187.283 272.464 187.878 272.607 188.687L272.608 188.688C272.819 189.876 273.111 191.524 272.18 193.637C271.282 195.673 270.767 192.185 270.512 189.912C270.413 189.042 266.959 193.591 264.898 196.305L264.886 196.32L264.813 196.416C264.088 197.373 263.551 198.081 263.42 198.202C263.296 198.306 263.143 198.367 262.982 198.375C262.823 198.383 262.664 198.34 262.53 198.25C262.397 198.161 262.296 198.029 262.244 197.878C262.192 197.725 262.19 197.56 262.24 197.406C263.897 193.617 265.091 192.362 266.279 191.114C266.849 190.517 267.416 189.92 268.031 189.048C266.865 189.174 266.477 189.257 266.084 189.343L266.065 189.347C265.797 189.405 265.518 189.466 264.978 189.538C263.814 189.695 262.799 188.796 263.762 187.996C265.627 186.967 267.74 186.477 269.867 186.587C272.049 184.356 273.875 181.807 275.29 179.025C275 179.037 273.814 179.435 272.391 179.914L272.382 179.917C269.982 180.723 266.912 181.753 266.303 181.546C264.616 180.971 267.947 177.809 275.505 176.77C275.859 176.722 276.066 176.788 276.22 176.838L276.23 176.841C276.307 176.865 276.369 176.885 276.43 176.881C276.713 176.868 276.972 176.386 278.359 173.803C279.01 172.591 279.909 170.917 281.175 168.611C281.494 168.027 281.392 168.04 278.59 168.382L278.57 168.384L277.889 168.466C276.934 168.691 275.955 168.784 274.976 168.746C272.741 168.305 275 165.449 280.209 165.417ZM275.014 148.759C276.21 149.105 276.711 149.722 276.442 150.685C276.389 151.705 276.357 152.496 276.333 153.107C276.251 155.123 276.247 155.191 275.824 155.063C273.471 154.465 271.163 153.704 268.916 152.787L268.914 152.785L268.911 152.784C268.059 152.384 266.59 151.693 266.847 153.133C267.129 154.717 271.658 157.015 275.768 156.798C276.068 156.782 276.06 157.35 276.05 158.014L276.05 158.02C276.038 158.915 276.024 159.98 276.763 160.022C277.322 160.054 277.567 159.823 278.096 157.447L278.116 157.36L278.119 157.346C278.161 157.156 278.183 157.054 278.247 157.001C278.319 156.942 278.444 156.944 278.709 156.95H278.737C279.583 157.027 280.434 156.975 281.264 156.798C288.737 154.687 290.446 150.261 288.854 150.964L288.406 151.16C285.282 152.53 282.156 153.901 278.914 154.985C278.466 155.134 278.468 155.106 278.552 154.14L278.553 154.122C278.617 153.367 278.729 152.053 278.715 149.829C278.713 149.503 278.807 149.471 279.153 149.353C279.535 149.223 280.225 148.988 281.437 148.136C284.928 145.68 286.693 144.401 288.247 141.74C289.447 139.696 281.131 145.33 279.234 146.661C278.502 147.175 278.472 147.177 278.319 146.299C276.542 136.023 270.59 133.169 273.41 138.391C274.882 141.008 275.814 143.894 276.148 146.878C276.03 146.863 275.722 146.708 275.308 146.499C273.849 145.762 271.067 144.357 270.576 146.025C270.381 146.685 271.278 147.143 272.029 147.481C272.992 147.976 273.991 148.403 275.014 148.759ZM228.247 166.728H228.253C231.648 167.041 232.766 167.142 232.875 166.858C232.929 166.719 232.739 166.485 232.458 166.139L232.455 166.135L232.447 166.125C232.242 165.873 231.991 165.563 231.747 165.184C230.282 162.912 231.801 162.331 233.06 164.112C233.765 165.107 234.199 165.781 234.491 166.239C235.025 167.073 235.096 167.184 235.514 167.192L235.576 167.196L235.747 167.21L235.826 167.216C237.054 167.307 241.54 167.64 242.405 167.554C242.689 167.527 242.003 166.861 241.124 166.008L241.11 165.994L241.103 165.987C239.509 164.437 237.3 162.289 239.064 162.225C240.704 162.167 243.462 165.795 244.177 167.274L244.202 167.327L244.205 167.333C244.256 167.438 244.293 167.516 244.35 167.574C244.522 167.742 244.875 167.728 246.241 167.671L246.266 167.67L246.414 167.664L246.415 167.664L246.417 167.664C247.306 167.628 248.591 167.576 250.465 167.542H250.566C251.064 167.546 251.78 167.55 251.37 167.053C250.485 166.12 249.685 165.109 248.982 164.03C248.889 163.877 248.851 163.696 248.877 163.517C248.903 163.338 248.988 163.174 249.12 163.051C249.253 162.93 249.422 162.856 249.603 162.846C249.782 162.834 249.96 162.886 250.107 162.989C251.386 163.944 252.385 165.226 253 166.699L253.03 166.774L253.032 166.78C253.124 167.019 253.182 167.169 253.291 167.256C253.471 167.401 253.79 167.371 254.631 167.294L254.638 167.294L254.701 167.288C255.137 167.249 255.706 167.198 256.457 167.15C256.584 167.17 256.708 167.214 256.821 167.278C256.799 167.324 256.783 167.379 256.765 167.435L256.763 167.442C256.726 167.555 256.69 167.664 256.622 167.694C254.889 168.41 254.618 168.406 254.419 168.402C254.363 168.4 254.312 168.4 254.234 168.416C253.217 168.627 253.153 168.782 252.937 169.311L252.933 169.321C252.791 169.665 252.585 170.169 252.009 170.945C249.764 173.982 247.285 174.963 246.975 174.476C246.75 174.128 248.263 172.227 249.434 170.755L249.438 170.75L249.471 170.709C250.072 169.953 250.577 169.317 250.7 169.073C250.316 168.98 250.296 168.981 249.813 169.018L249.806 169.019L249.795 169.02C249.251 169.064 248.134 169.155 245.341 169.212H245.241L245.174 169.21L245.171 169.21C244.795 169.202 244.258 169.191 244.105 169.449C243.383 170.665 238.396 174.822 237.641 174.08C237.092 173.538 239.223 171.516 240.543 170.265C241.034 169.799 241.412 169.441 241.498 169.304C241.271 169.242 241.246 169.242 240.71 169.23L240.696 169.23C240.019 169.218 238.549 169.19 234.919 169.013C234.225 168.981 233.751 169.429 233.092 170.056C232.402 170.712 231.508 171.56 229.944 172.255C229.921 172.265 229.898 172.276 229.875 172.287C229.845 172.302 229.814 172.318 229.783 172.334L229.733 172.36C229.439 172.515 229.11 172.689 228.871 172.434C228.507 172.054 228.862 171.642 229.128 171.331L229.166 171.288C230.06 170.243 230.713 169.654 231.096 169.309L231.1 169.306L231.103 169.303C231.55 168.901 231.621 168.838 231.259 168.764C230.899 168.687 230.03 168.585 228.978 168.461L228.949 168.458H228.947L228.921 168.455C226.268 168.142 222.49 167.698 222.633 167.172C222.665 167.055 222.738 166.884 222.832 166.86C224.201 166.482 224.911 166.527 225.254 166.549L225.263 166.55C225.449 166.561 225.52 166.566 225.528 166.482C226.41 166.56 227.194 166.632 227.888 166.695L227.893 166.696L228.247 166.728ZM332.622 91.2537C330.724 92.514 329.07 93.6129 330.533 95.857C333.657 100.653 340.994 99.4331 340.914 95.469C340.893 94.5233 340.432 94.797 339.797 95.1746L339.794 95.1762C339.462 95.3742 339.082 95.6003 338.694 95.6938C336.964 96.0881 335.149 95.8128 333.613 94.9237C333.243 94.7253 333.38 94.6342 333.991 94.2334L333.997 94.2297C334.359 93.9916 334.886 93.6447 335.571 93.1029C338.958 90.4223 336.849 86.6712 335.637 88.6015C334.936 89.7179 333.738 90.5137 332.622 91.2537ZM319.466 90.4265C319.466 87.7201 323.595 88.1858 323.58 90.7111C323.556 93.5448 319.466 93.0593 319.466 90.4265ZM163.686 85.1263C163.839 85.004 163.951 84.8382 164.007 84.6509C164.714 82.5992 164.554 74.1019 163.506 75.4213C162.385 76.8262 161.209 82.9833 162.204 84.7862C162.288 84.963 162.424 85.11 162.593 85.2083C162.762 85.3066 162.957 85.3514 163.152 85.3367C163.347 85.3221 163.533 85.2487 163.686 85.1263ZM139.282 114.4C139.238 115.759 137.735 115.825 136.695 114.575L136.448 114.278C134.83 112.33 132.292 109.274 132.118 107.831C133.574 107.851 137.751 110.973 139.282 114.4ZM191.879 102.619C189.682 103.264 182.904 110.364 186.644 110.457C187.266 110.293 187.809 109.913 188.178 109.385C188.356 109.136 188.597 108.811 188.875 108.438L188.883 108.426L188.883 108.426C190.566 106.158 193.557 102.126 191.879 102.619ZM172.825 42.6502C171.775 42.8062 171.036 43.0098 170.527 43.1499C169.687 43.3811 169.478 43.4386 169.538 42.8213C169.56 41.3266 169.145 39.8582 168.344 38.5966C167.299 37.106 165.359 37.3528 163.767 38.1986C159.202 40.6343 160.537 44.3317 161.844 42.7039C162.5 41.5467 163.465 40.5947 164.63 39.9537C166.356 38.9587 167.444 39.5557 167.715 41.3169C167.788 41.7911 167.844 42.2072 167.894 42.5716C168.06 43.798 168.147 44.4364 168.511 44.7275C168.907 45.0438 169.63 44.9504 171.139 44.7554C171.723 44.6798 172.426 44.589 173.273 44.5009C174.074 44.4637 174.864 44.6963 175.517 45.1614C176.17 45.6264 176.648 46.2971 176.875 47.066C177.648 49.9788 177.495 50.5005 177.255 51.3148C177.205 51.4874 177.15 51.6732 177.1 51.8977C176.982 52.4251 177.896 52.2957 178.727 51.0341C179.975 49.1535 179.175 41.7049 172.825 42.6502ZM215.081 77.6326C216.33 74.9819 215.158 74.3829 212.78 74.2794C211.734 74.2888 210.699 74.5025 209.734 74.9083C207.204 75.3779 209.608 71.5034 214.141 72.4108C215.932 72.769 217.274 73.4974 217.325 75.3182C217.383 77.3263 216.618 78.3568 216.137 79.0045C215.589 79.7412 215.41 79.983 217.228 80.6057C225.588 83.4713 220.129 93.2143 216.705 91.485C216.981 91.1467 217.177 90.9841 217.354 90.8366L217.356 90.8353C217.667 90.5776 217.923 90.365 218.46 89.3378C220.989 84.5005 218.621 83.2941 216.206 82.0641C215.678 81.7949 215.147 81.5244 214.665 81.2146C213.512 80.4685 213.947 79.699 214.56 78.6149C214.73 78.3138 214.913 77.9884 215.081 77.6326ZM197.449 81.6488C197.138 82.7367 197.787 82.65 199.027 82.4842C200.164 82.3324 201.798 82.1141 203.642 82.6737C204.776 83.0173 204.506 83.6135 204.169 84.3612C203.825 85.1241 203.409 86.0449 204.341 87.0158C205.77 88.5085 205.203 89.2582 204.831 89.7489C204.582 90.0777 204.422 90.2902 205.009 90.5322C206.999 91.356 208.649 88.0288 206.999 86.5522C206.645 86.2358 206.36 86.0378 206.146 85.8889C205.674 85.56 205.546 85.4704 205.759 84.8746C207.903 78.9086 198.126 79.2747 197.449 81.6488ZM189.251 73.1037C189.471 73.0898 191.181 73.0639 191.181 73.1037C193.825 73.1037 193.825 73.0936 193.773 72.331C193.746 71.9193 193.704 71.2885 194.054 70.3217C195.718 65.7388 201.923 71.2869 200.729 72.1824C200.548 72.3189 200.306 72.1438 200.049 71.9573L200.048 71.9567C199.934 71.8741 199.818 71.7896 199.702 71.7287C195.684 69.56 195.671 69.7347 195.494 71.9555C195.482 72.1107 195.469 72.2759 195.453 72.451C195.444 72.5545 195.446 72.6721 195.448 72.7987C195.46 73.485 195.475 74.4285 193.776 74.7276C192.406 74.9696 191.371 74.9465 190.557 74.9284C189.415 74.9031 188.709 74.8876 188.128 75.6251C186.92 77.1773 185.659 73.3883 189.251 73.1037ZM163.371 118.599C165.488 118.312 166.923 116.265 164.764 113.54C164.076 112.67 163.281 112.205 162.764 111.903C162.257 111.608 162.018 111.468 162.405 111.254C162.706 111.088 162.974 110.943 163.214 110.813L163.269 110.783L163.271 110.783C164.52 110.107 164.994 109.85 165.404 109.25C167.054 106.838 162.565 105.162 158.509 108.275C158.091 108.595 158.386 108.818 158.827 108.989C158.833 108.992 158.946 108.964 159.132 108.918L159.166 108.909L159.169 108.909C160.308 108.627 163.909 107.738 163.912 108.392C163.912 109.232 161.603 110.218 160.845 110.542L160.712 110.599C158.754 111.451 159.641 111.942 161.032 112.71L161.033 112.711C162.094 113.298 163.449 114.047 164.055 115.244C164.638 116.398 163.717 117.494 161.962 117.055C160.88 116.687 159.778 116.383 158.66 116.145C156.893 116.067 157.553 117.536 158.019 118.575C158.098 118.75 158.171 118.913 158.226 119.055C158.823 120.559 158.875 121.771 157.333 121.335C156.266 121.034 155.836 121.381 155.458 121.685C155.124 121.954 154.832 122.19 154.175 121.914C154.035 121.856 153.893 121.793 153.75 121.73L153.741 121.726C152.844 121.33 151.926 120.924 151.449 121.532C150.292 123.003 154.706 125.759 156.008 123.596C156.477 122.815 157.064 122.839 157.619 122.861C157.791 122.868 157.96 122.875 158.121 122.858C158.494 122.845 158.858 122.747 159.187 122.571C159.516 122.395 159.799 122.146 160.016 121.842C160.232 121.538 160.376 121.189 160.435 120.821C160.494 120.452 160.468 120.076 160.358 119.719C160.205 119.244 160.08 118.916 159.994 118.692L159.993 118.688C159.889 118.417 159.844 118.301 159.882 118.261C159.909 118.232 159.984 118.246 160.113 118.27L160.159 118.279C161.205 118.558 162.29 118.666 163.371 118.599ZM106.204 82.1957C105.738 79.2823 108.614 78.1838 110.803 78.3928C114.516 78.2575 115.845 81.342 113.495 80.7867C112.751 80.4642 111.95 80.2924 111.139 80.2815C110.327 80.2705 109.522 80.4206 108.769 80.7231C107.655 81.1051 107.794 82.4066 108.21 83.2404C108.57 83.9576 108.902 84.5065 109.167 84.9454C110.053 86.4091 110.2 86.6527 108.21 87.8512C108.01 87.9712 107.788 88.094 107.555 88.223C105.88 89.1491 103.6 90.4094 104.524 93.4571C105.094 95.1074 106.093 96.5764 107.418 97.7137C106.001 98.4739 104.457 97.3913 103.637 96.0859C100.837 91.6143 102.194 88.4363 107.105 86.5339C108.141 86.1275 107.957 85.8676 107.482 85.197C107.074 84.6195 106.45 83.7377 106.204 82.1957ZM125.71 88.0184C126.8 87.9925 126.432 86.7368 125.527 86.2971C122.156 84.6573 116.255 86.3309 117.953 90.1895C118.372 91.1413 118.351 91.1564 117.541 91.7596L117.511 91.7815C117.223 91.9483 116.972 92.1711 116.772 92.4372C116.572 92.7033 116.428 93.0069 116.348 93.3299C116.268 93.6531 116.254 93.9888 116.307 94.3173C116.36 94.6459 116.478 94.9605 116.655 95.2421C117.553 97.053 120.005 96.3267 119.374 95.6739C118.091 94.3504 118.723 93.6648 119.38 92.9514C119.932 92.352 120.502 91.7329 119.971 90.6989C118.944 88.7089 119.203 88.3666 121.248 88.1119C121.681 88.061 123.39 88.0443 124.6 88.0325H124.601H124.603L124.604 88.0323H124.605H124.607H124.608H124.61H124.611H124.613H124.614H124.616H124.617H124.619H124.62H124.622H124.623H124.625H124.626H124.628L124.629 88.0321H124.631H124.632C125.111 88.0276 125.507 88.0236 125.71 88.0184ZM133.525 78.2294C135.238 78.1438 135.865 78.6115 136.297 79.4075C136.981 80.6632 136.016 81.4631 135.385 80.8263C135.106 80.5022 134.739 80.2656 134.328 80.145C133.918 80.0242 133.481 80.0246 133.071 80.1458C131.756 80.2395 130.435 80.1661 129.139 79.9269C127.914 79.6194 127.909 78.831 127.902 77.7942C127.901 77.6638 127.9 77.5295 127.897 77.3916C127.851 75.4772 127.159 75.316 126.04 75.8752C125.124 76.321 124.244 76.838 123.409 77.4215C121.877 78.514 122.709 76.6712 122.964 76.3429C124.629 74.2016 127.74 72.8086 129.061 75.2663C129.353 75.9837 129.529 76.7427 129.582 77.515L129.592 77.5846C129.641 77.9251 129.671 78.1371 129.791 78.2616C129.99 78.4672 130.435 78.4354 131.612 78.3506C132.107 78.315 132.733 78.27 133.525 78.2294ZM165.43 53.7194C165.586 53.7126 165.763 53.705 165.966 53.705C166.483 53.7138 166.984 53.8891 167.394 54.2049C167.804 54.5205 168.101 54.9599 168.242 55.458C168.382 55.9559 168.359 56.4859 168.175 56.9694C167.991 57.453 167.655 57.8645 167.219 58.1427C166.523 58.4004 166.512 58.0295 166.495 57.4928L166.495 57.4823C166.493 57.4299 166.491 57.3759 166.489 57.3209C166.425 55.9102 165.782 55.8542 165.033 55.789C164.431 55.7366 163.761 55.6785 163.269 54.905C162.989 54.467 162.905 53.9761 162.831 53.5484C162.685 52.7013 162.582 52.1029 161.09 52.6583C159.535 53.3347 158.137 54.3269 156.985 55.5717C156.165 56.2781 155.568 55.5338 155.687 54.8155C156.09 53.6997 156.784 52.7118 157.696 51.9536C158.608 51.1956 159.706 50.6948 160.877 50.5031C163.184 50.0812 163.926 51.4285 164.447 53.307C164.573 53.7562 164.848 53.7442 165.43 53.7194ZM148.33 44.7681C147.959 44.8262 147.606 44.9695 147.299 45.1868C146.992 45.4043 146.74 45.6897 146.562 46.021C146.384 46.3522 146.285 46.7201 146.273 47.096C146.261 47.4718 146.337 47.8453 146.493 48.187C146.794 49.0086 147.117 49.4978 147.339 49.8343C147.707 50.3905 147.799 50.5302 147.057 51.0645C145.865 51.8281 144.728 52.6732 143.654 53.5938C141.821 55.5579 144.513 57.6793 144.689 55.8664C144.785 54.8781 145.311 54.5132 146.213 53.8867L146.214 53.8859C146.89 53.4162 147.778 52.7995 148.856 51.6635C149.048 51.5214 149.206 51.3387 149.319 51.1282C149.433 50.9176 149.498 50.6846 149.51 50.4458C149.523 50.207 149.483 49.9686 149.392 49.7473C149.302 49.526 149.163 49.3276 148.987 49.166C147.069 46.5313 147.309 46.2348 152.716 45.9184C153.823 45.8527 151.936 43.7552 148.33 44.7681ZM146.269 169.938C147.733 171.347 147.186 173.477 143.538 173.477C142.2 173.427 140.889 173.083 139.698 172.468C138.408 171.656 138.486 170.768 139.403 170.828C141.118 171.095 142.857 171.176 144.589 171.069C144.515 170.754 144.182 170.544 143.824 170.318L143.811 170.31C143.569 170.159 143.316 170 143.124 169.799C142.088 168.709 143.5 168.199 145.138 167.608L145.141 167.607C146.1 167.261 147.137 166.887 147.805 166.35C149.44 165.051 144.971 163.756 143.596 163.358L143.594 163.357C143.406 163.304 143.276 163.266 143.228 163.246C141.994 162.758 142.856 162.004 144.102 160.916L144.107 160.911C145.112 160.032 146.365 158.937 146.967 157.586C147.395 156.627 145.566 157.557 144.925 157.998C142.099 159.941 140.936 161.379 140.363 162.088C140.019 162.512 139.888 162.673 139.739 162.524C138.595 161.377 142.734 157.415 145.033 156.084C147.534 154.636 149.387 155.839 148.579 157.863C147.945 159.449 146.729 160.49 145.936 161.166L145.932 161.171C145.229 161.773 144.863 162.086 145.542 162.241C150.412 163.357 150.83 166.078 148.84 167.584C148.11 168.072 147.33 168.478 146.513 168.796C146.276 168.9 146.082 168.981 145.925 169.045C145.529 169.21 145.375 169.276 145.378 169.331C145.38 169.367 145.445 169.399 145.551 169.451L145.562 169.456C145.729 169.54 145.99 169.672 146.269 169.938ZM112.174 142.72C111.941 146.501 116.924 146.616 118.1 142.603C118.174 142.35 118.434 141.18 118.178 141.076C117.996 141.003 117.763 141.346 117.443 141.818C116.841 142.706 115.931 144.047 114.472 143.932C113.901 143.888 113.804 143.834 113.82 143.279C113.86 141.815 114.609 140.986 115.187 140.347L115.188 140.345C115.43 140.078 115.641 139.845 115.758 139.612C115.829 139.467 115.864 139.308 115.859 139.147C115.855 138.986 115.812 138.829 115.734 138.689C115.656 138.548 115.545 138.429 115.41 138.341C115.276 138.253 115.122 138.198 114.962 138.183C114.711 138.158 114.443 138.241 114.131 138.338C113.284 138.6 112.115 138.963 110.096 137.542C109.159 136.881 110.025 136.028 110.954 135.339C112.509 134.437 114.293 134.007 116.088 134.103C116.336 134.085 116.571 133.987 116.759 133.825C116.948 133.663 117.079 133.445 117.135 133.203C117.19 132.961 117.167 132.707 117.068 132.479C116.97 132.252 116.8 132.061 116.586 131.936C115.203 130.897 111.422 125.743 113.153 125.729C115.054 125.729 115.986 126.433 117.401 127.502C117.797 127.802 118.232 128.13 118.737 128.479C118.998 128.659 119.786 128.34 119.181 127.484C116.329 123.483 109.738 122.925 111.619 127.218C112.52 129.281 113.513 130.546 114.116 131.314C114.691 132.046 114.912 132.329 114.365 132.422C112.292 132.616 110.357 133.54 108.902 135.029C106.938 137.188 109.641 139.767 112.383 140.02C112.852 140.067 112.764 140.271 112.577 140.706C112.394 141.133 112.116 141.781 112.174 142.72ZM171.703 143.041L171.708 143.041L171.821 143.03C172.052 143.006 172.284 142.983 172.515 142.956C172.518 142.99 172.522 143.016 172.535 143.035C172.578 143.096 172.729 143.083 173.369 143.023L173.371 143.023C173.627 142.999 173.961 142.968 174.397 142.932C173.531 141.853 172.966 140.563 172.759 139.195C172.654 135.967 178.952 137.581 179.494 139.394C179.609 139.782 179.187 140.562 178.514 140.092C178.371 139.992 178.29 139.899 178.207 139.802L178.205 139.8C177.943 139.495 177.645 139.147 175.233 138.407C175.193 138.395 174.246 138.248 173.903 138.701C173.527 139.197 174.829 140.964 175.727 142.182L175.734 142.191C176.08 142.66 176.365 143.047 176.469 143.246C176.877 144.027 176.242 145.018 174.72 144.675C172.952 144.275 168.775 144.114 167.112 146.005C166.294 146.934 167.355 148.229 168.549 148.327C169.576 148.543 170.632 148.593 171.675 148.474C172.075 148.431 172.478 148.522 172.821 148.731C173.941 149.324 173.392 150.235 172.548 151.151C172.283 151.438 172.036 151.695 171.813 151.926C170.544 153.244 170.05 153.756 171.438 154.514C172.956 155.341 173.903 155.578 174.4 155.702L174.402 155.702C174.861 155.817 174.934 155.836 174.716 156.138C172.742 158.872 165.237 155.887 169.872 150.779C169.935 150.701 169.994 150.619 170.047 150.534C169.932 150.488 169.813 150.455 169.691 150.436C163.997 150.363 164.023 144.305 169.794 143.282C170.424 143.171 171.064 143.106 171.703 143.041ZM199.778 135.824C200.074 135.865 200.37 135.896 200.654 135.926C202.526 136.121 203.843 136.258 200.908 138.809C200.676 139.012 200.429 139.209 200.186 139.402C198.996 140.352 197.905 141.222 199.117 142.25C199.437 142.52 199.972 142.824 200.518 143.134L200.521 143.135C200.972 143.391 201.431 143.651 201.786 143.902C203.481 145.096 202.781 146.461 200.806 147.102C200.566 147.18 200.256 147.273 199.903 147.378L199.89 147.382C197.662 148.048 193.775 149.209 195.131 150.322C195.295 150.487 195.5 150.608 195.724 150.671C195.949 150.733 196.186 150.736 196.413 150.68C198.857 150.154 201.202 149.244 203.36 147.981C204.009 147.489 204.45 146.773 204.598 145.972C204.745 145.171 204.587 144.344 204.156 143.653C203.233 142.624 202.111 141.793 200.858 141.209C202.214 140.345 203.38 139.213 204.283 137.882C206.016 134.768 201.999 133.305 198.512 134.043C198.059 134.139 198.374 133.657 198.882 132.881C199.568 131.833 200.604 130.249 200.572 128.828C200.582 128.581 200.535 128.336 200.435 128.111C200.335 127.886 200.183 127.687 199.993 127.531C199.803 127.374 199.579 127.264 199.339 127.208C199.099 127.153 198.849 127.154 198.61 127.212C193.989 128.185 191.995 132.607 193.117 133.026C193.351 133.114 193.79 132.659 194.388 132.037C195.407 130.979 196.89 129.439 198.618 129.277C198.698 130.263 196.775 132.547 195.602 133.939L195.601 133.941C195.3 134.299 195.047 134.599 194.892 134.802C194.17 135.745 194.928 136.557 195.941 136.394L199.778 135.824ZM303.391 109.968C303.451 107.518 303.027 107.616 301.759 107.911L301.755 107.912C301.101 108.064 300.225 108.267 299.075 108.201C297.881 108.133 297.013 107.622 297.051 106.426C297.051 106.181 296.727 105.789 296.426 106.044C294.265 107.857 297.867 111.037 301.091 109.858C301.552 109.691 301.546 110.041 301.54 110.397C301.538 110.501 301.536 110.606 301.546 110.698C301.934 114.268 303.216 117.769 306.754 117.02C307.55 116.851 307.628 116.967 307.66 117.371C307.926 120.61 310.953 122.768 313.116 121.908C313.317 121.828 313.544 121.752 313.78 121.672L313.793 121.668C314.796 121.331 316.004 120.925 316.609 119.844C317.094 118.975 316.557 118.491 315.777 118.599C315.657 118.616 312.826 119.484 312.792 119.496C311.558 119.854 309.906 118.955 309.743 116.591C309.725 116.349 309.729 116.105 309.733 115.866C309.747 115.016 309.759 114.243 308.816 113.956C308.449 113.843 307.834 114.153 307.288 114.428L307.283 114.43L307.274 114.435C307.013 114.566 306.77 114.688 306.577 114.752C304.281 115.514 303.333 112.368 303.391 109.968ZM303.735 125.827L303.823 126.006C304.529 127.422 305.244 128.855 307.648 128.879C307.948 128.803 308.211 128.729 308.447 128.662L308.448 128.662L308.489 128.65C309.996 128.226 310.312 128.137 311.259 129.864C312.26 131.704 314.766 131.753 316.549 131.787C317.972 131.815 318.933 131.834 318.294 132.749C317.639 133.272 316.879 133.647 316.065 133.848C315.251 134.048 314.404 134.071 313.582 133.913C312.758 133.756 311.98 133.422 311.297 132.935C310.617 132.448 310.048 131.819 309.632 131.092C309.341 130.537 309.309 130.493 308.782 130.656C307.48 130.936 306.123 130.724 304.969 130.063C303.815 129.402 302.945 128.337 302.529 127.074C302.31 126.36 301.831 126.272 301.112 126.142C300.201 125.975 298.908 125.74 297.278 124.059C296.472 123.225 295.805 121.601 296.842 120.979C297.196 120.766 297.948 120.955 297.572 121.472C297.196 121.989 298.279 122.985 298.629 123.247C300.03 124.299 301.097 124.474 301.91 124.608C302.677 124.733 303.218 124.822 303.604 125.57L303.636 125.633L303.672 125.703L303.735 125.827ZM332.556 125.325C334.72 125.056 334.604 122.539 333.975 123.19C333.022 124.175 331.492 123.626 329.329 122.758C328.444 122.408 328.064 122.623 327.601 122.884L327.599 122.885L327.595 122.888C327.27 123.071 326.906 123.276 326.3 123.325C325.312 123.405 324.634 122.863 323.981 122.341L323.978 122.338C323.701 122.117 323.428 121.899 323.138 121.733C322.628 121.435 321.615 122.131 321.89 122.81C322.107 123.364 322.447 123.863 322.885 124.268C323.321 124.673 323.844 124.974 324.413 125.149C324.982 125.324 325.583 125.368 326.173 125.278C326.762 125.189 327.323 124.967 327.814 124.631C328.387 124.227 328.754 124.426 329.295 124.719C329.932 125.064 330.811 125.541 332.556 125.325ZM308.097 140.839C308.704 141.271 307.791 141.872 307.049 141.961C305.5 141.35 305.242 141.082 305.011 140.84L305.01 140.839C304.867 140.691 304.734 140.552 304.314 140.349C304.191 140.291 303.985 140.254 303.729 140.208L303.727 140.208C302.77 140.038 301.126 139.746 300.621 137.762C300.348 136.706 301.542 135.866 302.139 136.608C302.211 136.698 302.287 136.841 302.374 137.006L302.375 137.008C302.66 137.547 303.074 138.331 303.918 138.373C305.019 138.429 305.66 138.941 306.678 139.754C307.076 140.073 307.532 140.437 308.097 140.839ZM289.354 125.124C291.622 125.124 288.416 123.222 287.35 122.935C286.767 122.806 286.243 122.489 285.857 122.034C285.473 121.579 285.246 121.009 285.216 120.414C285.057 118.834 283.296 119.894 283.624 121.257C284.325 124.154 286.348 124.539 288.371 124.925L288.372 124.925L288.387 124.928C288.71 124.99 289.036 125.052 289.354 125.124ZM330.111 135.335C331.241 135.367 330.791 137.235 327.536 137.413C326.925 137.484 325.41 136.776 325.392 135.62C325.373 135.483 325.396 135.344 325.462 135.222C325.526 135.1 325.629 135.002 325.753 134.942C325.878 134.883 326.017 134.865 326.155 134.89C326.29 134.916 326.413 134.985 326.507 135.086C327.15 135.729 327.926 135.603 328.785 135.463L328.789 135.462C329.212 135.393 329.652 135.321 330.111 135.335Z" fill="#2E3A45"/>
<path d="M58.7054 131.654C64.093 140.833 64.7233 142.327 60.9616 153.636C56.1379 168.132 56.2311 160.566 75.6104 210.956C90.5674 249.849 92.0352 252.735 90.4163 257.218C89.7764 259.344 88.3913 261.167 86.5165 262.352C84.64 263.538 82.3982 264.008 80.204 263.674C68.3634 261.648 69.0287 242.895 58.472 202.904C50.7069 173.48 50.7926 166.412 44.6926 161.944C36.8265 156.178 34.0451 154.887 31.8643 145.114C27.3623 124.912 28.8754 114.863 31.4214 119.869C38.5103 133.84 39.395 137.168 37.6563 130.652C35.5885 122.903 32.7634 114.942 35.1558 116.47C36.4503 117.296 39.2801 123.245 40.6762 126.205C43.0229 131.178 38.6314 119.05 38.5216 114.778C38.5071 114.164 39.3003 114.049 39.6183 114.453C41.8023 117.671 43.8052 121.008 45.6174 124.449C45.6322 123.688 43.1238 115.091 43.3919 113.401C43.5018 112.727 44.2112 112.348 45.1521 113.42C46.7291 115.21 49.2926 118.115 51.8986 121.332C54.4289 124.593 56.7058 128.043 58.7054 131.654ZM57.1715 134.258C57.302 134.181 46.749 118.145 46.2536 117.808C46.1601 120.503 52.7512 138.957 52.6187 139.997C52.6306 140.159 52.5846 140.32 52.4895 140.453C52.3963 140.585 52.2589 140.681 52.1018 140.724C51.9447 140.767 51.778 140.754 51.6304 140.688C51.481 140.622 51.3602 140.506 51.2865 140.361C48.6927 135.813 43.4133 123.733 41.928 121.317C42.1626 123.544 47.9393 140.764 47.6242 142.047C47.4388 142.805 46.544 142.617 46.1349 141.998C45.402 140.825 44.8134 139.566 44.3792 138.253C43.4149 135.918 43.1101 135.564 42.7954 134.65C42.3019 133.247 41.665 131.899 40.8951 130.627C38.135 124.745 38.4832 125.229 38.0112 124.802C42.3209 141.747 41.9088 139.107 42.4628 141.867C42.8472 143.776 41.6275 144.474 40.2498 142.158C37.4163 137.402 31.9847 124.292 31.0094 123.252C31.2784 129.917 32.203 136.54 33.769 143.025C39.2075 165.215 47.4776 150.332 53.929 175.726C58.5596 193.941 64.9103 217.945 67.121 227.977C68.1151 232.493 71.1241 250.549 75.0294 257.025C79.7134 264.788 89.2472 260.537 87.4584 251.99C85.7838 243.988 64.3223 192.319 58.7377 175.25C55.3518 164.906 54.1911 163.483 57.9395 153.409C61.2456 144.544 61.6685 141.919 57.1715 134.258Z" fill="#2E3A45"/>
<path fill-rule="evenodd" clip-rule="evenodd" d="M394.181 181.675C400.835 167.554 411.423 136.179 415 115.31C414.915 115.299 414.901 115.058 414.88 114.712C414.835 113.987 414.761 112.807 413.96 112.368C413.647 112.173 413.3 112.052 412.941 112.014C412.581 111.975 412.22 112.018 411.877 112.141C406.08 114.562 396.72 123.861 395.177 125.393C395.054 125.516 394.983 125.589 394.963 125.605C381.213 138.102 381.257 149.329 381.297 159.815C381.308 162.493 381.318 165.123 381.098 167.713C380.458 175.275 370.796 194.845 361.772 213.12C353.687 229.491 346.116 244.826 346.002 249.56C345.837 256.278 354.903 260.361 356.88 259.975C361.267 259.122 364.392 251.886 366.311 247.436C366.616 246.734 366.889 246.102 367.132 245.574C376.99 224.292 384.428 205.685 389.185 193.788C391.49 188.022 393.166 183.832 394.181 181.675ZM377.46 186.633C379.709 181.693 384.2 171.839 383.91 159.96C383.589 146.826 385.092 139.946 397.83 126.794C402.175 122.413 406.843 118.414 411.784 114.835L411.788 114.833C412.108 114.581 412.56 114.224 412.841 114.476C414.953 116.388 386.361 196.259 385.285 194.254C384.361 192.703 383.033 191.478 381.468 190.73C379.904 189.982 378.168 189.746 376.479 190.048C375.849 190.168 376.413 188.934 377.46 186.633ZM360.419 249.266C360.899 250.069 361.214 250.972 361.345 251.915V251.922C361.324 252.052 360.994 254.057 360.4 254.102C360.083 254.132 359.994 253.754 359.918 253.429C359.901 253.357 359.884 253.288 359.867 253.227C359.208 250.94 354.979 249.039 352.613 248.68C351.681 248.666 350.753 248.575 349.833 248.405C348.78 248.127 348.412 246.725 349.947 245.793C352.391 244.306 356.273 245.442 358.561 247.261C359.305 247.782 359.939 248.464 360.419 249.266Z" fill="#2E3A45"/>
</svg>
