<svg width="300" height="312" viewBox="0 0 300 312" fill="none" xmlns="http://www.w3.org/2000/svg">
<path d="M166.44 21.0692C168.103 27.3417 174.859 30.3138 180.208 27.1229C187.067 23.0202 195.349 29.0739 194.234 37.352C193.36 43.8068 198.384 49.4411 204.488 48.8211C212.324 48.0371 217.571 57.154 213.387 64.2287C210.112 69.7536 212.564 77.0653 218.376 79.144C225.818 81.8243 227.155 92.4182 220.606 97.0678C215.513 100.696 214.947 108.427 219.457 112.858C225.235 118.529 222.389 128.776 214.639 130.199C208.603 131.311 205.122 138.13 207.54 144.129C210.661 151.806 204.128 159.938 196.515 157.896C190.565 156.291 184.786 161.032 184.701 167.542C184.615 175.911 175.545 180.524 169.355 175.346C164.536 171.316 157.438 173.139 154.883 179.065C151.608 186.669 141.543 186.961 137.874 179.558C135.01 173.796 127.826 172.374 123.231 176.695C117.332 182.22 108.039 178.135 107.507 169.784C107.096 163.275 101.077 158.881 95.2303 160.832C87.7201 163.33 80.7929 155.562 83.5192 147.721C85.6454 141.595 81.8217 134.976 75.7176 134.228C67.9159 133.262 64.5381 123.179 70.0249 117.18C74.2944 112.512 73.3342 104.799 68.0702 101.48C61.3145 97.2137 62.0861 86.5469 69.3905 83.4472C75.0832 81.0221 77.1579 73.5827 73.6086 68.2584C69.0647 61.4389 73.8486 52.0303 81.7017 52.3585C87.823 52.6138 92.5726 46.706 91.3552 40.3059C89.812 32.1007 97.7851 25.5912 104.832 29.2745C110.336 32.1554 116.921 28.8004 118.275 22.4368C120.007 14.2862 129.781 11.77 134.804 18.1883C138.731 23.2026 146.035 22.9838 149.688 17.7507C154.403 11.0771 164.296 13.0281 166.44 21.0692Z" fill="#2E3A45"/>
<path d="M263.144 217.848C256.714 193.926 236.91 176.859 213.574 175.108C160.163 171.079 68.9603 169.62 49.6019 191.61C43.2748 198.794 56.1861 185.739 49.6019 191.61C19.9899 217.994 15.3774 281.995 15.3774 281.995L84.5464 281.485L277.187 282.068C278.25 276.233 270.277 244.433 263.144 217.848Z" fill="#AEDADE"/>
<path d="M173.059 148.541L168.293 132.423C172.288 133.425 176.677 132.368 179.918 129.177C185.113 124.071 185.439 115.465 180.638 109.94C175.837 104.415 167.744 104.069 162.549 109.174C162.24 109.484 161.949 109.794 161.674 110.123L156.05 91.123C155.347 88.7708 153.152 87.3121 150.855 87.6768C139.469 89.4819 107.68 97.9606 105.365 136.252C105.194 139.151 107.337 141.631 110.08 141.631L124.106 141.612L122.992 151.969C139.898 155.415 156.736 153.537 173.059 148.541Z" fill="#F7F4E8"/>
<path d="M173.055 148.541C156.749 153.555 139.894 155.415 123.005 151.969L119.678 182.912C117.998 198.502 126.537 213.563 140.511 218.614C141.163 218.851 141.831 219.069 142.5 219.288C166.711 226.764 188.882 202.021 181.303 176.439L173.055 148.541Z" fill="#AEDADE"/>
<path d="M129.624 99.4931C122.697 103.304 115.752 107.097 108.825 110.907C107.916 111.4 107.831 112.804 108.499 113.533C110.557 115.758 112.597 117.964 114.655 120.188C116.078 121.72 118.29 119.368 116.867 117.836C114.809 115.612 112.769 113.405 110.711 111.181C110.608 112.056 110.505 112.931 110.385 113.807C117.313 109.996 124.257 106.203 131.184 102.392C133.002 101.389 131.407 98.5085 129.624 99.4931Z" fill="#2E3A45"/>
<path d="M127.657 125.312C127.846 127.026 125.959 128.594 124.485 127.628C122.753 126.515 121.176 129.396 122.907 130.509C126.251 132.678 131.258 129.579 130.812 125.312C130.709 124.418 130.16 123.653 129.234 123.653C128.463 123.634 127.571 124.4 127.657 125.312Z" fill="#2E3A45"/>
<path d="M173.641 115.954C170.949 116.921 168.257 117.887 165.565 118.853C163.662 119.546 164.485 122.756 166.405 122.063C169.097 121.096 171.789 120.13 174.481 119.163C176.384 118.489 175.561 115.261 173.641 115.954Z" fill="#2E3A45"/>
<path d="M135.75 109.464C138.75 116.667 148.112 118.508 153.616 113.512C155.159 112.108 152.93 109.756 151.404 111.16C147.289 114.898 140.602 112.892 138.476 107.787C137.653 105.817 134.944 107.513 135.75 109.464Z" fill="#2E3A45"/>
<path d="M138.323 110.797C137.174 112.037 136.008 113.258 134.859 114.498C133.436 116.012 135.648 118.382 137.071 116.85C138.22 115.61 139.386 114.389 140.535 113.149C141.975 111.635 139.763 109.283 138.323 110.797Z" fill="#2E3A45"/>
<path d="M143.272 115.609C143.289 116.849 143.307 118.07 143.324 119.31C143.341 121.462 146.496 121.462 146.462 119.31C146.444 118.07 146.427 116.849 146.41 115.609C146.376 113.475 143.238 113.457 143.272 115.609Z" fill="#2E3A45"/>
<path d="M149.447 115.575C149.825 116.669 150.185 117.782 150.562 118.876C150.853 119.714 151.625 120.298 152.5 120.043C153.271 119.824 153.888 118.839 153.597 117.982C153.22 116.888 152.86 115.776 152.482 114.682C152.191 113.825 151.419 113.26 150.545 113.515C149.773 113.752 149.173 114.737 149.447 115.575Z" fill="#2E3A45"/>
<path d="M160.251 238.07C160.251 241.261 157.817 243.868 154.799 243.868C151.798 243.868 149.346 241.279 149.346 238.07C149.346 234.879 151.781 232.271 154.799 232.271C157.817 232.271 160.251 234.861 160.251 238.07Z" fill="#2E3A45"/>
<path d="M81.3443 219.764C63.872 229.3 46.3997 238.836 28.9103 248.373C24.898 250.561 20.8857 252.749 16.8734 254.937C10.2892 258.547 4.93948 263.306 2.04172 270.782C-0.530257 277.401 -0.838894 286.536 2.07601 293.137C5.09379 299.974 10.0834 306.247 16.9592 308.909C23.492 311.425 31.5508 312.373 37.9808 308.873C48.9374 302.892 59.9112 296.911 70.8678 290.912C86.6254 282.306 102.383 273.718 118.141 265.111C109.122 248.263 100.171 231.361 91.7179 214.111C88.2543 216.008 84.7907 217.886 81.3443 219.764Z" fill="#AEDADE"/>
<path d="M135.322 255.738C141.906 252.146 147.256 247.387 150.154 239.911C152.726 233.292 153.034 224.157 150.119 217.557C147.102 210.719 142.112 204.446 135.236 201.784C128.703 199.268 134.413 189.258 127.983 192.777C120.473 196.879 99.2113 210.026 91.7012 214.11C100.154 231.378 109.088 248.281 118.124 265.11C119.839 264.18 121.57 263.232 123.285 262.302C127.297 260.114 131.31 257.926 135.322 255.738Z" fill="#F7F4E8"/>
<path d="M138.27 214.969C140.344 200.181 142.419 185.375 144.494 170.588C145.094 166.285 142.179 161.544 137.961 161.052C133.76 160.559 129.645 163.385 128.993 167.999C126.919 182.786 124.844 197.592 122.769 212.38C122.169 216.683 125.084 221.424 129.302 221.916C133.503 222.427 137.618 219.582 138.27 214.969Z" fill="#F7F4E8"/>
<path d="M139.029 215.186C140.59 204.009 142.167 192.813 143.728 181.636C144.654 174.999 147.98 164.532 140.247 160.867C137.521 159.573 134.16 160.102 131.742 161.888C128.742 164.095 128.279 167.413 127.781 171.024C126.221 182.219 124.644 193.397 123.083 204.592C122.929 205.65 124.455 206.087 124.592 205.03C125.861 196.004 127.113 186.978 128.381 177.953C128.69 175.783 128.982 173.613 129.29 171.461C129.565 169.51 129.633 167.377 130.576 165.608C132.514 161.998 137.383 160.63 140.641 163.001C144.533 165.845 143.745 170.385 143.145 174.67C142.544 178.992 141.927 183.331 141.327 187.653C140.058 196.679 138.807 205.686 137.538 214.712C137.366 215.806 138.875 216.244 139.029 215.186Z" fill="#2E3A45"/>
<path d="M142.027 243.029C145.577 218.906 149.126 194.764 152.675 170.641C153.31 166.338 150.429 161.579 146.194 161.05C141.993 160.521 137.861 163.329 137.175 167.942C133.626 192.066 130.076 216.207 126.527 240.331C125.893 244.634 128.773 249.393 133.008 249.922C137.209 250.45 141.342 247.642 142.027 243.029Z" fill="#F7F4E8"/>
<path d="M146.754 219.198C148.057 209.863 149.378 200.527 150.681 191.209C151.332 186.542 151.984 181.874 152.635 177.206C153.098 173.851 154.213 170.076 153.27 166.703C151.795 161.415 146.566 158.79 141.799 160.814C139.398 161.835 137.495 163.95 136.758 166.594C135.575 170.842 135.403 175.692 134.786 180.087C133.294 190.681 131.82 201.256 130.328 211.85C130.174 212.908 131.7 213.345 131.837 212.288C133.243 202.241 134.649 192.194 136.055 182.147C136.706 177.498 137.135 172.757 138.009 168.144C138.85 163.713 143.119 160.558 147.371 162.09C152.464 163.932 152.121 169.511 151.469 174.051C150.784 178.902 150.115 183.752 149.429 188.584C148.023 198.631 146.617 208.677 145.211 218.743C145.091 219.8 146.6 220.256 146.754 219.198Z" fill="#2E3A45"/>
<path d="M142.896 176.674C140.376 194.653 137.855 212.631 135.335 230.61C134.735 234.913 137.649 239.654 141.867 240.146C146.068 240.639 150.184 237.812 150.835 233.199C153.356 215.221 155.876 197.242 158.397 179.264C158.997 174.96 156.082 170.22 151.864 169.727C147.663 169.235 143.548 172.061 142.896 176.674Z" fill="#F7F4E8"/>
<path d="M150.284 242.879C153.079 222.986 155.856 203.093 158.651 183.2C159.183 179.462 159.817 175.961 157.64 172.642C155.651 169.615 152.307 168.284 148.912 169.068C140.99 170.892 141.488 181.194 140.544 187.94C139.138 198.024 137.715 208.107 136.309 218.209C136.155 219.266 137.681 219.704 137.818 218.646C138.864 211.134 139.927 203.621 140.973 196.109C141.539 192.007 142.122 187.904 142.688 183.82C143.151 180.501 143.065 175.888 145.208 173.244C148.432 169.287 154.416 169.743 156.799 174.411C158.668 178.094 157.057 183.181 156.508 187.083C155.256 196.018 154.004 204.971 152.753 213.905C151.415 223.405 150.095 232.923 148.758 242.423C148.62 243.481 150.129 243.936 150.284 242.879Z" fill="#2E3A45"/>
<path d="M218.66 220.622C236.132 230.158 253.604 239.694 271.094 249.231C275.106 251.419 279.118 253.607 283.131 255.795C289.715 259.387 295.064 264.146 297.962 271.622C300.534 278.241 300.843 287.376 297.928 293.977C294.91 300.814 289.921 307.105 283.045 309.749C276.512 312.265 268.453 313.213 262.023 309.712C251.067 303.732 240.093 297.751 229.136 291.752C213.379 283.146 197.621 274.558 181.863 265.951C190.882 249.103 199.833 232.2 208.286 214.951C211.75 216.847 215.213 218.744 218.66 220.622Z" fill="#AEDADE"/>
<path d="M164.681 256.578C158.096 252.986 152.747 248.227 149.849 240.751C147.277 234.132 146.968 224.997 149.883 218.396C152.901 211.559 157.891 205.268 164.766 202.624C171.299 200.108 165.589 190.098 172.019 193.617C179.529 197.719 200.791 210.866 208.301 214.968C199.848 232.236 190.915 249.139 181.878 265.968C180.164 265.039 178.432 264.09 176.717 263.16C172.705 260.972 168.693 258.784 164.681 256.578Z" fill="#F7F4E8"/>
<path d="M161.733 215.822C159.658 201.035 157.584 186.229 155.509 171.441C154.909 167.138 157.824 162.397 162.042 161.905C166.243 161.413 170.358 164.239 171.009 168.852C173.084 183.64 175.159 198.446 177.234 213.233C177.834 217.536 174.919 222.277 170.701 222.77C166.5 223.262 162.385 220.436 161.733 215.822Z" fill="#F7F4E8"/>
<path d="M162.486 215.604C161.217 206.579 159.965 197.571 158.697 188.545C158.096 184.224 157.479 179.884 156.879 175.563C156.279 171.278 155.473 166.738 159.382 163.893C162.64 161.505 167.493 162.89 169.447 166.501C170.391 168.233 170.459 170.403 170.733 172.354C171.042 174.524 171.334 176.693 171.642 178.845C172.911 187.871 174.163 196.897 175.432 205.922C175.586 206.98 177.095 206.524 176.94 205.485C175.38 194.289 173.803 183.112 172.242 171.916C171.728 168.306 171.282 164.987 168.282 162.781C165.864 160.994 162.503 160.465 159.777 161.76C152.027 165.425 155.37 175.873 156.296 182.528C157.856 193.706 159.434 204.901 160.994 216.079C161.114 217.1 162.64 216.644 162.486 215.604Z" fill="#2E3A45"/>
<path d="M157.982 243.885C154.432 219.761 150.883 195.62 147.334 171.496C146.699 167.193 149.58 162.434 153.815 161.905C158.016 161.377 162.148 164.185 162.834 168.798C166.383 192.921 169.933 217.063 173.482 241.186C174.116 245.489 171.236 250.248 167.001 250.777C162.8 251.306 158.667 248.498 157.982 243.885Z" fill="#F7F4E8"/>
<path d="M154.753 219.598C153.347 209.551 151.941 199.504 150.535 189.439C149.883 184.772 149.232 180.104 148.58 175.436C147.928 170.768 147.294 164.86 152.609 162.946C156.605 161.505 161.011 164.331 161.903 168.616C162.863 173.321 163.275 178.226 163.926 182.985C165.332 193.031 166.738 203.078 168.144 213.125C168.298 214.183 169.807 213.727 169.653 212.688C168.35 203.352 167.03 194.016 165.727 184.699C165.075 180.031 164.423 175.363 163.772 170.695C163.343 167.686 162.794 165.079 160.48 163.073C156.433 159.554 150.295 160.502 147.603 165.334C145.991 168.233 146.368 171.078 146.814 174.251C147.465 178.918 148.117 183.586 148.769 188.254C150.26 198.848 151.735 209.424 153.227 220.018C153.381 221.112 154.907 220.656 154.753 219.598Z" fill="#2E3A45"/>
<path d="M157.101 177.53C159.622 195.508 162.142 213.487 164.663 231.466C165.263 235.769 162.348 240.509 158.13 241.002C153.929 241.494 149.814 238.668 149.162 234.055C146.642 216.076 144.121 198.098 141.601 180.119C141.001 175.816 143.916 171.075 148.134 170.583C152.334 170.09 156.45 172.917 157.101 177.53Z" fill="#F7F4E8"/>
<path d="M151.249 243.282C148.814 225.942 146.379 208.583 143.962 191.243C143.413 187.286 142.333 183.02 142.333 179.026C142.316 173.684 147.185 170.001 151.9 171.915C156.05 173.611 156.376 177.768 156.942 181.834C157.49 185.773 158.039 189.711 158.605 193.65C159.805 202.256 161.022 210.863 162.223 219.487C162.377 220.545 163.886 220.089 163.732 219.05C162.48 210.17 161.245 201.29 159.994 192.392C159.393 188.07 158.776 183.749 158.176 179.428C157.645 175.69 156.616 172.462 153.221 170.694C146.276 167.083 139.984 173.593 140.961 181.05C142.247 190.787 143.687 200.488 145.042 210.206C146.602 221.384 148.18 232.543 149.74 243.72C149.877 244.796 151.403 244.34 151.249 243.282Z" fill="#2E3A45"/>
<path d="M21.6749 253.278C41.8049 241.864 61.952 230.45 82.082 219.035C84.9284 217.412 87.7747 215.808 90.621 214.185C91.5126 213.674 90.7239 212.234 89.8323 212.745C69.7023 224.159 49.5551 235.573 29.4251 246.988C26.5788 248.61 23.7325 250.215 20.8862 251.838C19.9774 252.348 20.7833 253.789 21.6749 253.278Z" fill="#2E3A45"/>
<path d="M268.002 246.624C250.667 237.052 233.349 227.461 216.014 217.888C213.596 216.557 211.179 215.208 208.744 213.876C207.852 213.384 207.046 214.825 207.955 215.317C225.29 224.89 242.608 234.481 259.943 244.053C262.361 245.384 264.779 246.734 267.213 248.065C268.105 248.557 268.894 247.117 268.002 246.624Z" fill="#2E3A45"/>
<path d="M33.4387 236.905C37.1424 237.981 40.846 239.039 44.5668 240.115C45.5442 240.388 45.9557 238.784 44.9783 238.51C41.2747 237.434 37.571 236.377 33.8502 235.301C32.8729 235.009 32.4614 236.614 33.4387 236.905Z" fill="#2E3A45"/>
<path d="M252.243 238.656C255.21 237.671 258.107 236.486 260.936 235.1C261.845 234.663 261.056 233.222 260.148 233.66C257.439 234.973 254.661 236.103 251.832 237.051C250.871 237.361 251.283 238.984 252.243 238.656Z" fill="#2E3A45"/>
<path d="M218.464 83.5586C221.345 90.2139 229.266 89.8493 234.085 85.9837C239.246 81.8264 244.441 72.91 242.178 65.8171C240.497 60.5475 232.919 57.3566 230.055 63.4467C228.821 66.0541 229.798 69.1721 231.701 71.1231C234.136 73.6029 237.857 74.0223 241.063 74.1317C248.659 74.4052 257.541 70.7767 258.707 61.7509C258.981 59.654 255.963 58.7424 255.689 60.8575C254.832 67.4034 249.002 70.5032 243.292 70.7767C240.583 70.9043 237.222 70.9226 234.805 69.4091C233.484 68.5886 232.387 67.0752 232.764 65.4159C233.142 63.702 235.01 63.1367 236.451 63.629C239.4 64.6501 239.829 68.5886 239.331 71.3237C238.731 74.6058 236.999 77.8514 235.01 80.4041C231.77 84.5432 224.14 88.7005 221.19 81.8446C220.316 79.9301 217.624 81.6258 218.464 83.5586Z" fill="#2E3A45"/>
<path d="M49.3481 39.1019C48.7822 46.979 54.955 53.7984 62.4308 53.0144C69.7353 52.2303 74.7077 44.5903 72.8388 37.0233C72.1529 34.27 69.9753 31.0244 66.9918 32.8113C64.0083 34.5982 63.3739 39.3572 63.7854 42.5846C64.9342 51.5192 72.753 56.0959 80.1603 58.4298C82.0979 59.0497 82.9209 55.8224 81.0005 55.2206C76.3709 53.7619 71.4156 51.6103 68.6722 47.1431C67.3004 44.9003 66.4774 42.0376 66.8889 39.339C66.9747 38.8102 67.0947 38.2632 67.2833 37.7709C67.4891 37.1692 68.3635 35.7287 69.1866 36.1481C69.941 36.531 70.0953 39.6307 70.0953 40.2142C70.1296 45.6114 66.0145 49.8964 60.9391 49.7505C55.6408 49.6046 52.1086 44.4992 52.4859 39.1019C52.6402 36.9686 49.5024 36.9686 49.3481 39.1019Z" fill="#2E3A45"/>
<path d="M52.0726 166.044C56.0677 170.056 62.4119 170.803 67.0929 167.631C69.6477 165.898 71.1909 163.163 72.254 160.228C73.3171 157.219 74.6202 153.171 72.9227 150.126C71.7396 147.993 68.9619 146.607 66.8014 147.92C64.6066 149.251 64.298 152.259 64.9839 154.593C66.6642 160.374 72.9741 163.254 78.2724 162.963C85.7997 162.543 91.4924 156.49 95.5561 150.29C96.7049 148.522 93.9957 146.862 92.8469 148.613C89.8806 153.135 86.0398 157.584 80.8958 159.152C76.7121 160.428 71.2252 159.316 68.7218 155.213C68.2588 154.448 67.5215 153.062 67.7787 152.095C68.5332 149.233 70.1107 151.64 70.4022 152.642C70.6765 153.591 70.5393 154.466 70.3507 155.414C69.8363 158.149 68.8075 161.303 66.99 163.382C63.6807 167.157 57.7309 167.138 54.2844 163.656C52.827 162.197 50.598 164.567 52.0726 166.044Z" fill="#2E3A45"/>
<path d="M182.986 35.3458C180.14 30.5321 180.534 23.8403 184.632 19.92C188.165 16.5468 196.618 14.9787 199.464 20.2482C200.424 22.0352 199.721 24.4603 197.424 23.9315C195.64 23.5121 194.835 21.5611 194.697 19.7924C194.474 17.0208 195.469 14.1399 196.789 11.806C199.464 7.10165 204.179 3.87426 209.323 3.34548C211.312 3.14491 211.329 -0.191884 209.323 0.008688C203.031 0.628638 197.355 4.33011 194.08 10.1102C191.337 14.9422 189.468 24.442 196 26.9401C198.298 27.8153 201.059 27.25 202.396 24.9343C204.076 22.0534 202.808 18.5343 200.544 16.4921C195.726 12.1889 188.062 12.8818 183.278 16.802C177.499 21.5428 176.471 30.5868 180.277 37.0234C181.357 38.8467 184.067 37.1692 182.986 35.3458Z" fill="#2E3A45"/>
</svg>
