<svg width="15" height="14" viewBox="0 0 15 14" fill="none" xmlns="http://www.w3.org/2000/svg">
<path d="M6.5 0.5C10.4001 0.423739 13.5 2.93814 13.5 6.5C13.5 10.0619 11.9001 13.0701 8 13.1463C4.09988 13.2226 1 10.7083 1 7.14648C1 3.58463 2.59988 0.57626 6.5 0.5Z" fill="#AEDADE"/>
<path d="M7.00581 13.3621C10.599 13.3621 13.5116 10.4829 13.5116 6.93106C13.5116 3.37919 10.599 0.5 7.00581 0.5C3.41265 0.5 0.5 3.37919 0.5 6.93106C0.5 10.4829 3.41265 13.3621 7.00581 13.3621Z" stroke="#2E3A45" stroke-linecap="round" stroke-linejoin="round"/>
<path d="M10.9196 4.18577L11.1122 6.16653C11.2371 7.45146 10.2625 8.59555 8.96269 8.71967C7.68755 8.84057 6.53212 7.919 6.40916 6.65851C6.3799 6.35869 6.41068 6.05611 6.49973 5.76805C6.58879 5.48 6.73438 5.2121 6.92819 4.97967C7.122 4.74724 7.36023 4.55483 7.62927 4.41342C7.89832 4.27202 8.19291 4.18439 8.49622 4.15554L10.6327 3.95232C10.702 3.94587 10.771 3.96682 10.8247 4.01057C10.8783 4.05433 10.9129 4.11733 10.9196 4.18577Z" stroke="#2E3A45" stroke-linecap="round" stroke-linejoin="round"/>
<path d="M8.6315 6.61114C7.49299 7.82147 6.35447 10.7913 6.35447 10.7913C6.35447 10.7913 4.72802 6.61114 3.10156 5.64648" stroke="#2E3A45" stroke-linecap="round" stroke-linejoin="round"/>
</svg>
