<svg width="16" height="18" viewBox="0 0 16 18" fill="none" xmlns="http://www.w3.org/2000/svg">
<path d="M6.12943 0.880148C10.0295 0.803888 15.9969 6.98854 15.9969 10.5504C15.9969 14.1123 12.8353 17.0615 8.93515 17.1378C5.03503 17.214 0 15.5288 0 11.967C0 8.40513 2.22931 0.956409 6.12943 0.880148Z" fill="#AEDADE"/>
<path d="M9.6315 8.61114C8.49299 9.82147 7.35447 12.7913 7.35447 12.7913C7.35447 12.7913 5.72802 8.61114 4.10156 7.64648" stroke="#2E3A45" stroke-linecap="round" stroke-linejoin="round"/>
<path d="M11.9196 6.18577L12.1122 8.16653C12.2371 9.45146 11.2625 10.5955 9.96269 10.7197C8.68755 10.8406 7.53212 9.919 7.40916 8.65851C7.3799 8.35869 7.41068 8.05611 7.49973 7.76805C7.58879 7.48 7.73438 7.2121 7.92819 6.97967C8.122 6.74724 8.36023 6.55483 8.62927 6.41342C8.89832 6.27202 9.19291 6.18439 9.49622 6.15554L11.6327 5.95232C11.702 5.94587 11.771 5.96682 11.8247 6.01057C11.8783 6.05433 11.9122 6.11733 11.919 6.18577" stroke="#2E3A45" stroke-linecap="round" stroke-linejoin="round"/>
<path d="M8.00581 15.3621C11.599 15.3621 14.5116 12.4829 14.5116 8.93106C14.5116 5.37919 11.599 2.5 8.00581 2.5C4.41265 2.5 1.5 5.37919 1.5 8.93106C1.5 12.4829 4.41265 15.3621 8.00581 15.3621Z" stroke="#2E3A45" stroke-linecap="round" stroke-linejoin="round"/>
</svg>
