<svg width="48" height="48" viewBox="0 0 48 48" fill="none" xmlns="http://www.w3.org/2000/svg">
<circle cx="24" cy="24" r="24" fill="url(#paint0_linear_2012_6008)"/>
<path d="M31.8954 14.4004H17.3015C15.6538 14.4004 14.3984 15.6558 14.3984 17.3035V31.8973C14.3984 33.545 15.6538 34.8004 17.3015 34.8004H31.8954C33.5431 34.8004 34.7984 33.545 34.7984 31.8973V17.3035C34.7984 15.6558 33.5431 14.4004 31.8954 14.4004ZM24.5984 30.7204C27.9723 30.7204 30.7184 28.0527 30.7184 24.8358C30.7184 24.2865 30.64 23.6589 30.4831 23.1881H32.2092V31.505C32.2092 31.8973 31.8954 32.2896 31.4246 32.2896H17.7723C17.38 32.2896 16.9877 31.9758 16.9877 31.505V23.1096H18.7923C18.6354 23.6589 18.5569 24.2081 18.5569 24.7573C18.4784 28.0527 21.2246 30.7204 24.5984 30.7204ZM24.5984 28.3665C22.4015 28.3665 20.6754 26.6404 20.6754 24.5219C20.6754 22.4035 22.4015 20.6773 24.5984 20.6773C26.7954 20.6773 28.5215 22.4035 28.5215 24.5219C28.5215 26.7189 26.7954 28.3665 24.5984 28.3665ZM32.1308 19.9712C32.1308 20.4419 31.7384 20.8342 31.2677 20.8342H29.0707C28.6 20.8342 28.2077 20.4419 28.2077 19.9712V17.8527C28.2077 17.3819 28.6 16.9896 29.0707 16.9896H31.2677C31.7384 16.9896 32.1308 17.3819 32.1308 17.8527V19.9712Z" fill="#FFFEFE"/>
<defs>
<linearGradient id="paint0_linear_2012_6008" x1="10.2" y1="42.6" x2="42" y2="9.6" gradientUnits="userSpaceOnUse">
<stop stop-color="#EEA054"/>
<stop offset="0.502762" stop-color="#D64763"/>
<stop offset="1" stop-color="#B62A99"/>
</linearGradient>
</defs>
</svg>
