<svg width="26" height="26" viewBox="0 0 26 26" fill="none" xmlns="http://www.w3.org/2000/svg">
<path d="M25.0002 12H14.0002V1C14.0002 0.734784 13.8948 0.48043 13.7073 0.292893C13.5197 0.105357 13.2654 0 13.0002 0C12.735 0 12.4806 0.105357 12.2931 0.292893C12.1055 0.48043 12.0002 0.734784 12.0002 1V12H1.00017C0.734951 12 0.480597 12.1054 0.29306 12.2929C0.105524 12.4804 0.000167 12.7348 0.000167 13C-0.00476763 13.13 0.0182138 13.2595 0.0675622 13.3798C0.116911 13.5001 0.191479 13.6085 0.286244 13.6976C0.381008 13.7867 0.493765 13.8544 0.616918 13.8962C0.74007 13.938 0.870755 13.953 1.00017 13.94H12.0002V25C12.0002 25.2652 12.1055 25.5196 12.2931 25.7071C12.4806 25.8946 12.735 26 13.0002 26C13.2654 26 13.5197 25.8946 13.7073 25.7071C13.8948 25.5196 14.0002 25.2652 14.0002 25V14H25.0002C25.2654 14 25.5197 13.8946 25.7073 13.7071C25.8948 13.5196 26.0002 13.2652 26.0002 13C26.0002 12.7348 25.8948 12.4804 25.7073 12.2929C25.5197 12.1054 25.2654 12 25.0002 12Z" fill="#2E3A45"/>
</svg>
