<svg width="33" height="29" viewBox="0 0 33 29" fill="none" xmlns="http://www.w3.org/2000/svg">
<path fill-rule="evenodd" clip-rule="evenodd" d="M15.4205 2.30859C8.22442 2.30859 2.38239 7.44341 2.38239 13.7663C2.38239 20.0901 8.22442 25.2249 15.4205 25.2249C22.6165 25.2249 28.4586 20.0901 28.4586 13.7663C28.4586 7.44341 22.6165 2.30859 15.4205 2.30859ZM15.4205 4.12109C21.478 4.12109 26.3961 8.443 26.3961 13.7663C26.3961 19.0905 21.478 23.4124 15.4205 23.4124C9.36292 23.4124 4.44489 19.0905 4.44489 13.7663C4.44489 8.443 9.36292 4.12109 15.4205 4.12109Z" fill="#636363"/>
<path fill-rule="evenodd" clip-rule="evenodd" d="M31.3923 26.0914L24.9202 20.4037C24.518 20.0503 23.8642 20.0503 23.462 20.4037C23.0598 20.7572 23.0598 21.3317 23.462 21.6852L29.9341 27.3728C30.3363 27.7272 30.9901 27.7272 31.3923 27.3728C31.7945 27.0194 31.7945 26.4448 31.3923 26.0914Z" fill="#636363"/>
</svg>
