<svg width="62" height="62" viewBox="0 0 62 62" fill="none" xmlns="http://www.w3.org/2000/svg">
<path d="M41.7541 40.1874L32.4305 30.7356L41.8823 21.4119C42.1102 21.1871 42.2394 20.881 42.2416 20.5609C42.2438 20.2408 42.1187 19.933 41.8939 19.7051C41.6691 19.4772 41.363 19.3479 41.0429 19.3458C40.7228 19.3436 40.415 19.4686 40.1871 19.6934L30.7353 29.0171L21.4116 19.5653C21.1868 19.3374 20.8807 19.2081 20.5606 19.2059C20.2405 19.2038 19.9326 19.3288 19.7047 19.5536C19.5889 19.6595 19.4971 19.7891 19.4355 19.9335C19.3739 20.0779 19.344 20.2338 19.3478 20.3907C19.3516 20.5476 19.389 20.7019 19.4574 20.8432C19.5259 20.9845 19.6238 21.1094 19.7446 21.2096L29.0683 30.6615L19.5649 40.036C19.337 40.2608 19.2078 40.5669 19.2056 40.887C19.2034 41.2071 19.3285 41.5149 19.5533 41.7428C19.7781 41.9707 20.0842 42.1 20.4043 42.1022C20.7244 42.1044 21.0322 41.9793 21.2601 41.7545L30.712 32.4308L40.0356 41.8826C40.2604 42.1105 40.5665 42.2398 40.8866 42.242C41.2067 42.2442 41.5146 42.1191 41.7425 41.8943C41.9704 41.6695 42.0996 41.3634 42.1018 41.0433C42.104 40.7232 41.9789 40.4153 41.7541 40.1874Z" fill="#EAE4CE"/>
</svg>
