<svg width="50" height="50" viewBox="0 0 50 50" fill="none" xmlns="http://www.w3.org/2000/svg">
<circle cx="25" cy="25" r="25" fill="#59A2A9"/>
<path d="M37.296 26.5671C37.358 26.0649 37.3994 25.5425 37.3994 25.0001C37.3994 24.4577 37.358 23.9354 37.2754 23.4332L40.7676 20.7814C41.0775 20.5403 41.1602 20.0984 40.9742 19.7568L37.668 14.1921C37.4614 13.8305 37.0274 13.71 36.6555 13.8305L32.5434 15.4376C31.6755 14.7948 30.7663 14.2725 29.7538 13.8707L29.1339 9.61175C29.0719 9.20996 28.7206 8.92871 28.3073 8.92871H21.6949C21.2816 8.92871 20.951 9.20996 20.889 9.61175L20.2691 13.8707C19.2566 14.2725 18.3267 14.8149 17.4795 15.4376L13.3674 13.8305C12.9955 13.6899 12.5615 13.8305 12.3549 14.1921L9.0487 19.7568C8.84206 20.1184 8.92472 20.5403 9.25534 20.7814L12.7475 23.4332C12.6649 23.9354 12.6029 24.4778 12.6029 25.0001C12.6029 25.5225 12.6442 26.0649 12.7268 26.5671L9.23467 29.2189C8.92472 29.46 8.84206 29.9019 9.02804 30.2434L12.3342 35.8082C12.5409 36.1698 12.9748 36.2903 13.3468 36.1698L17.4588 34.5626C18.3267 35.2055 19.2359 35.7278 20.2485 36.1296L20.8684 40.3885C20.951 40.7903 21.2816 41.0716 21.6949 41.0716H28.3073C28.7206 41.0716 29.0719 40.7903 29.1132 40.3885L29.7331 36.1296C30.7456 35.7278 31.6755 35.1854 32.5227 34.5626L36.6348 36.1698C37.0068 36.3104 37.4407 36.1698 37.6473 35.8082L40.9535 30.2434C41.1602 29.8818 41.0775 29.46 40.7469 29.2189L37.296 26.5671ZM25.0011 31.0269C21.5916 31.0269 18.802 28.3149 18.802 25.0001C18.802 21.6854 21.5916 18.9734 25.0011 18.9734C28.4106 18.9734 31.2002 21.6854 31.2002 25.0001C31.2002 28.3149 28.4106 31.0269 25.0011 31.0269Z" fill="#2E3A45"/>
</svg>
