<svg width="50" height="50" viewBox="0 0 50 50" fill="none" xmlns="http://www.w3.org/2000/svg">
<circle cx="25" cy="25" r="25" fill="#E2DD01"/>
<path d="M39.2862 35.179C39.2862 35.4586 39.1733 35.7268 38.9724 35.9246C38.7714 36.1223 38.4989 36.2334 38.2147 36.2334H30.9291C30.6904 37.1091 30.1649 37.8829 29.434 38.4347C28.703 38.9866 27.8075 39.2857 26.8862 39.2857C25.965 39.2857 25.0694 38.9866 24.3385 38.4347C23.6075 37.8829 23.082 37.1091 22.8434 36.2334H11.7863C11.5021 36.2334 11.2296 36.1223 11.0287 35.9246C10.8277 35.7268 10.7148 35.4586 10.7148 35.179C10.7148 34.8993 10.8277 34.6311 11.0287 34.4334C11.2296 34.2356 11.5021 34.1245 11.7863 34.1245H22.8434C23.082 33.2488 23.6075 32.475 24.3385 31.9232C25.0694 31.3713 25.965 31.0722 26.8862 31.0722C27.8075 31.0722 28.703 31.3713 29.434 31.9232C30.1649 32.475 30.6904 33.2488 30.9291 34.1245H38.2147C38.4989 34.1245 38.7714 34.2356 38.9724 34.4334C39.1733 34.6311 39.2862 34.8993 39.2862 35.179ZM39.2862 16.6068C39.2862 16.8864 39.1733 17.1546 38.9724 17.3524C38.7714 17.5501 38.4989 17.6612 38.2147 17.6612H34.7148C34.4761 18.5369 33.9506 19.3107 33.2197 19.8625C32.4887 20.4144 31.5932 20.7135 30.6719 20.7135C29.7507 20.7135 28.8551 20.4144 28.1242 19.8625C27.3932 19.3107 26.8677 18.5369 26.6291 17.6612H11.7863C11.6456 17.6612 11.5062 17.6339 11.3763 17.5809C11.2463 17.5279 11.1281 17.4503 11.0287 17.3524C10.9292 17.2545 10.8502 17.1382 10.7964 17.0103C10.7426 16.8824 10.7148 16.7452 10.7148 16.6068C10.7148 16.4683 10.7426 16.3312 10.7964 16.2032C10.8502 16.0753 10.9292 15.9591 11.0287 15.8612C11.1281 15.7632 11.2463 15.6856 11.3763 15.6326C11.5062 15.5796 11.6456 15.5523 11.7863 15.5523H26.6291C26.8677 14.6766 27.3932 13.9028 28.1242 13.351C28.8551 12.7991 29.7507 12.5 30.6719 12.5C31.5932 12.5 32.4887 12.7991 33.2197 13.351C33.9506 13.9028 34.4761 14.6766 34.7148 15.5523H38.2147C38.356 15.5504 38.4962 15.5764 38.627 15.6287C38.7579 15.6811 38.8768 15.7587 38.9766 15.8569C39.0765 15.9552 39.1554 16.0722 39.2085 16.201C39.2617 16.3298 39.2881 16.4678 39.2862 16.6068ZM39.2862 25.8858C39.2881 26.0248 39.2617 26.1628 39.2085 26.2916C39.1554 26.4204 39.0765 26.5374 38.9766 26.6356C38.8768 26.7339 38.7579 26.8115 38.627 26.8639C38.4962 26.9162 38.356 26.9422 38.2147 26.9403H21.5005C21.2619 27.816 20.7364 28.5898 20.0054 29.1416C19.2745 29.6935 18.3789 29.9926 17.4577 29.9926C16.5364 29.9926 15.6409 29.6935 14.9099 29.1416C14.179 28.5898 13.6535 27.816 13.4148 26.9403H11.7863C11.5021 26.9403 11.2296 26.8292 11.0287 26.6314C10.8277 26.4337 10.7148 26.1655 10.7148 25.8858C10.7148 25.6062 10.8277 25.338 11.0287 25.1402C11.2296 24.9425 11.5021 24.8314 11.7863 24.8314H13.4148C13.6535 23.9557 14.179 23.1819 14.9099 22.63C15.6409 22.0782 16.5364 21.7791 17.4577 21.7791C18.3789 21.7791 19.2745 22.0782 20.0054 22.63C20.7364 23.1819 21.2619 23.9557 21.5005 24.8314H38.2147C38.4989 24.8314 38.7714 24.9425 38.9724 25.1402C39.1733 25.338 39.2862 25.6062 39.2862 25.8858Z" fill="#2E3A45"/>
</svg>
