<svg width="50" height="50" viewBox="0 0 50 50" fill="none" xmlns="http://www.w3.org/2000/svg">
<circle cx="25" cy="25" r="25" fill="#E2DD01"/>
<path d="M16.1102 25.8745L25.6285 35.3927C25.7988 35.5631 25.8881 35.7638 25.8962 35.9947C25.9032 36.2257 25.8099 36.4375 25.6162 36.63C25.4249 36.8167 25.219 36.9117 24.9985 36.9152C24.7791 36.9176 24.5726 36.8225 24.379 36.63L13.739 25.99C13.5861 25.836 13.4788 25.6797 13.417 25.521C13.3551 25.3623 13.3242 25.1885 13.3242 24.9995C13.3242 24.8105 13.3551 24.6367 13.417 24.478C13.4788 24.3193 13.5861 24.1636 13.739 24.0107L24.379 13.369C24.5423 13.2057 24.7412 13.1182 24.9757 13.1065C25.2114 13.0948 25.4255 13.1823 25.618 13.369C25.8105 13.5615 25.9067 13.7692 25.9067 13.992C25.9067 14.216 25.8105 14.4242 25.618 14.6167L16.1085 24.1245H36.3735C36.6231 24.1245 36.8314 24.2079 36.9982 24.3747C37.1651 24.5416 37.2485 24.7498 37.2485 24.9995C37.2485 25.2492 37.1651 25.4574 36.9982 25.6242C36.8314 25.7911 36.6231 25.8745 36.3735 25.8745H16.1102Z" fill="#2E3A45"/>
</svg>
