<svg width="50" height="50" viewBox="0 0 50 50" fill="none" xmlns="http://www.w3.org/2000/svg">
<circle cx="25" cy="25" r="25" fill="#E2DD01"/>
<path d="M33.8883 25.8748H13.625C13.3765 25.8748 13.1683 25.7914 13.0003 25.6245C12.8323 25.4577 12.7488 25.2494 12.75 24.9998C12.7512 24.7501 12.8346 24.5419 13.0003 24.375C13.1659 24.2082 13.3742 24.1248 13.625 24.1248H33.8883L24.37 14.6083C24.1985 14.4379 24.1093 14.2367 24.1023 14.0045C24.0953 13.7724 24.1874 13.5606 24.3788 13.3693C24.5713 13.1826 24.7778 13.0875 24.9983 13.084C25.2188 13.0817 25.4253 13.1768 25.6178 13.3693L36.2578 24.0093C36.4106 24.1633 36.5179 24.3196 36.5798 24.4783C36.6416 24.6381 36.6725 24.8119 36.6725 24.9998C36.6725 25.1876 36.6416 25.3614 36.5798 25.5213C36.5191 25.6811 36.4123 25.8374 36.2595 25.9903L25.6178 36.6303C25.4544 36.7936 25.2555 36.8811 25.021 36.8928C24.7853 36.9044 24.5713 36.8169 24.3788 36.6303C24.1863 36.4378 24.09 36.2301 24.09 36.0073C24.09 35.7833 24.1863 35.575 24.3788 35.3825L33.8883 25.8748Z" fill="#2E3A45"/>
</svg>
