<svg width="50" height="50" viewBox="0 0 50 50" fill="none" xmlns="http://www.w3.org/2000/svg">
<circle cx="25" cy="25" r="25" fill="#E2DD01"/>
<path d="M37.296 26.5661C37.358 26.0639 37.3994 25.5416 37.3994 24.9992C37.3994 24.4568 37.358 23.9344 37.2754 23.4322L40.7676 20.7804C41.0775 20.5393 41.1602 20.0974 40.9742 19.7559L37.668 14.1911C37.4614 13.8295 37.0274 13.709 36.6555 13.8295L32.5434 15.4367C31.6755 14.7938 30.7663 14.2715 29.7538 13.8697L29.1339 9.61077C29.0719 9.20898 28.7206 8.92773 28.3073 8.92773H21.6949C21.2816 8.92773 20.951 9.20898 20.889 9.61077L20.2691 13.8697C19.2566 14.2715 18.3267 14.8139 17.4795 15.4367L13.3674 13.8295C12.9955 13.6889 12.5615 13.8295 12.3549 14.1911L9.0487 19.7559C8.84206 20.1175 8.92472 20.5393 9.25534 20.7804L12.7475 23.4322C12.6649 23.9344 12.6029 24.4768 12.6029 24.9992C12.6029 25.5215 12.6442 26.0639 12.7268 26.5661L9.23467 29.2179C8.92472 29.459 8.84206 29.9009 9.02804 30.2425L12.3342 35.8072C12.5409 36.1688 12.9748 36.2893 13.3468 36.1688L17.4588 34.5617C18.3267 35.2045 19.2359 35.7268 20.2485 36.1286L20.8684 40.3876C20.951 40.7893 21.2816 41.0706 21.6949 41.0706H28.3073C28.7206 41.0706 29.0719 40.7893 29.1132 40.3876L29.7331 36.1286C30.7456 35.7268 31.6755 35.1844 32.5227 34.5617L36.6348 36.1688C37.0068 36.3094 37.4407 36.1688 37.6473 35.8072L40.9535 30.2425C41.1602 29.8809 41.0775 29.459 40.7469 29.2179L37.296 26.5661ZM25.0011 31.0259C21.5916 31.0259 18.802 28.3139 18.802 24.9992C18.802 21.6844 21.5916 18.9724 25.0011 18.9724C28.4106 18.9724 31.2002 21.6844 31.2002 24.9992C31.2002 28.3139 28.4106 31.0259 25.0011 31.0259Z" fill="#2E3A45"/>
</svg>
