<svg width="50" height="50" viewBox="0 0 50 50" fill="none" xmlns="http://www.w3.org/2000/svg">
<circle cx="25" cy="25" r="25" fill="#E2DD01"/>
<path d="M24.9986 7.95508C15.5997 7.95508 7.95312 15.6017 7.95312 25.0005V32.0625C7.95312 33.8079 9.4821 35.2278 11.3622 35.2278H13.0668C13.5188 35.2278 13.9524 35.0482 14.2721 34.7286C14.5917 34.4089 14.7713 33.9753 14.7713 33.5233V24.7568C14.7713 24.3047 14.5917 23.8712 14.2721 23.5515C13.9524 23.2318 13.5188 23.0522 13.0668 23.0522H11.519C12.4668 16.4556 18.1429 11.3642 24.9986 11.3642C31.8543 11.3642 37.5304 16.4556 38.4781 23.0522H36.9304C36.4783 23.0522 36.0448 23.2318 35.7251 23.5515C35.4054 23.8712 35.2259 24.3047 35.2259 24.7568V35.2278C35.2259 37.1079 33.6969 38.6369 31.8168 38.6369H28.4077V36.9324H21.5895V42.046H31.8168C35.577 42.046 38.6349 38.988 38.6349 35.2278C40.5151 35.2278 42.044 33.8079 42.044 32.0625V25.0005C42.044 15.6017 34.3974 7.95508 24.9986 7.95508Z" fill="#2E3A45"/>
</svg>
