<svg width="62" height="62" viewBox="0 0 62 62" fill="none" xmlns="http://www.w3.org/2000/svg">
<circle cx="31" cy="31" r="25" fill="#E2DD01"/>
<path d="M41.7546 40.1865L32.431 30.7346L41.8828 21.411C42.1107 21.1862 42.2399 20.88 42.2421 20.5599C42.2443 20.2398 42.1192 19.932 41.8944 19.7041C41.6696 19.4762 41.3635 19.347 41.0434 19.3448C40.7233 19.3426 40.4155 19.4677 40.1876 19.6925L30.7358 29.0161L21.4121 19.5643C21.1873 19.3364 20.8812 19.2072 20.5611 19.205C20.241 19.2028 19.9331 19.3278 19.7052 19.5526C19.5894 19.6586 19.4976 19.7881 19.436 19.9325C19.3744 20.0769 19.3445 20.2328 19.3483 20.3897C19.3521 20.5467 19.3895 20.701 19.4579 20.8422C19.5264 20.9835 19.6243 21.1084 19.7451 21.2087L29.0688 30.6605L19.5654 40.035C19.3375 40.2598 19.2083 40.5659 19.2061 40.886C19.2039 41.2061 19.329 41.514 19.5538 41.7419C19.7786 41.9698 20.0847 42.099 20.4048 42.1012C20.7249 42.1034 21.0327 41.9783 21.2606 41.7535L30.7124 32.4298L40.0361 41.8817C40.2609 42.1096 40.567 42.2388 40.8871 42.241C41.2072 42.2432 41.5151 42.1181 41.743 41.8933C41.9709 41.6685 42.1001 41.3624 42.1023 41.0423C42.1045 40.7222 41.9794 40.4143 41.7546 40.1865Z" fill="#2E3A45"/>
</svg>
