<svg width="34" height="34" viewBox="0 0 34 34" fill="none" xmlns="http://www.w3.org/2000/svg">
<circle cx="17" cy="17" r="16" stroke="#F7F4E8"/>
<path d="M26.7736 15.0191C26.7736 16.0257 26.3738 16.9911 25.662 17.7028C24.9502 18.4146 23.9849 18.8145 22.9783 18.8145C22.0536 18.8201 21.1599 18.482 20.4706 17.8656C20.0421 18.668 19.3978 19.3346 18.6105 19.7903C17.8232 20.2459 16.9243 20.4724 16.0151 20.4442C15.1059 20.416 14.2226 20.1343 13.4651 19.6307C12.7075 19.1272 12.1058 18.4219 11.7278 17.5945C11.355 17.8681 10.9024 18.011 10.4401 18.0012C10.1197 18.0012 9.80242 17.9381 9.5064 17.8155C9.21038 17.6928 8.94142 17.5131 8.71486 17.2866C8.4883 17.06 8.30857 16.791 8.18596 16.495C8.06334 16.199 8.00024 15.8817 8.00024 15.5613C7.99336 15.0814 8.13218 14.6108 8.39839 14.2115C8.6646 13.8122 9.04566 13.503 9.49126 13.3248C9.37593 12.9523 9.33 12.5617 9.35572 12.1726C9.3617 11.3172 9.6286 10.484 10.1208 9.78436C10.6129 9.08471 11.3069 8.55193 12.11 8.25723C12.913 7.96253 13.7869 7.91995 14.6148 8.13517C15.4427 8.35039 16.1852 8.81317 16.7431 9.46166C17.5309 8.88886 18.48 8.58042 19.454 8.58059C20.307 8.58012 21.1398 8.83921 21.842 9.32345C22.5441 9.80768 23.0823 10.4941 23.3849 11.2916C24.3137 11.3763 25.1769 11.8062 25.8043 12.4963C26.4316 13.1863 26.7775 14.0865 26.7736 15.0191Z" fill="#F7F4E8" stroke="#2E3A45" stroke-linecap="round" stroke-linejoin="round"/>
<path d="M22.9784 18.8145C22.9784 18.8145 19.6575 19.4244 19.6575 26.9473H16.201C16.201 26.9473 16.4043 21.7287 13.0156 19.2211" fill="#F7F4E8"/>
<path d="M22.9784 18.8145C22.9784 18.8145 19.6575 19.4244 19.6575 26.9473H16.201C16.201 26.9473 16.4043 21.7287 13.0156 19.2211" stroke="#2E3A45" stroke-linecap="round" stroke-linejoin="round"/>
</svg>
