<svg width="34" height="34" viewBox="0 0 34 34" fill="none" xmlns="http://www.w3.org/2000/svg">
<path d="M20.9984 16.2008C18.1984 19.212 15.3984 26.6008 15.3984 26.6008C15.3984 26.6008 11.3984 16.2008 7.39844 13.8008" stroke="#F7F4E8" stroke-linecap="round" stroke-linejoin="round"/>
<path d="M26.627 10.1676L27.1006 15.0956C27.4078 18.2924 25.011 21.1388 21.8142 21.4476C18.6782 21.7484 15.8366 19.4556 15.5342 16.3196C15.4622 15.5737 15.5379 14.8209 15.7569 14.1043C15.976 13.3876 16.334 12.7211 16.8107 12.1428C17.2873 11.5645 17.8732 11.0858 18.5349 10.734C19.1965 10.3822 19.921 10.1642 20.667 10.0924L25.9214 9.58684C26.0917 9.57079 26.2614 9.6229 26.3934 9.73177C26.5253 9.84064 26.6088 9.99737 26.6254 10.1676" stroke="#F7F4E8" stroke-linecap="round" stroke-linejoin="round"/>
<path d="M17 33C25.8368 33 33 25.8368 33 17C33 8.1632 25.8368 1 17 1C8.1632 1 1 8.1632 1 17C1 25.8368 8.1632 33 17 33Z" stroke="#F7F4E8" stroke-linecap="round" stroke-linejoin="round"/>
</svg>
