<svg width="34" height="34" viewBox="0 0 34 34" fill="none" xmlns="http://www.w3.org/2000/svg">
<circle cx="17" cy="17" r="16" stroke="#F7F4E8"/>
<path d="M6 6L28 28" stroke="#F7F4E8" stroke-linecap="round"/>
<path d="M11.2 9.77402C11.2859 11.6078 11.253 12.5083 12.972 14.1981C14.691 15.888 15.9451 15.8793 17.425 15.8934C17.6078 14.4781 17.4068 13.4527 15.6878 11.7629C13.9689 10.0731 13.4187 9.89686 11.2 9.77402Z" fill="#F7F4E8" stroke="#F7F4E8"/>
<path d="M23.4996 9.96937C23.474 11.8014 23.5365 12.7034 21.8722 14.3387C20.2078 15.9739 18.9528 15.9248 17.4725 15.8912C17.2431 14.4692 17.4105 13.4498 19.0748 11.8145C20.7392 10.1793 21.2839 10.0207 23.4996 9.96937Z" fill="#F7F4E8" stroke="#F7F4E8"/>
<path d="M11.2782 14.6158C11.364 16.4496 11.3311 17.3501 13.0501 19.0399C14.7691 20.7298 16.0232 20.7211 17.5032 20.7352C17.686 19.3199 17.485 18.2945 15.766 16.6047C14.047 14.9149 13.4968 14.7387 11.2782 14.6158Z" fill="#F7F4E8" stroke="#F7F4E8"/>
<path d="M23.5778 14.8151C23.5522 16.6471 23.6147 17.5491 21.9503 19.1844C20.286 20.8196 19.0309 20.7705 17.5506 20.7369C17.3212 19.3149 17.4886 18.2955 19.153 16.6602C20.8173 15.025 21.362 14.8664 23.5778 14.8151Z" fill="#F7F4E8" stroke="#F7F4E8"/>
<path d="M11.3602 19.44C11.446 21.2739 11.4131 22.1743 13.1321 23.8641C14.8511 25.554 16.1052 25.5453 17.5852 25.5594C17.768 24.1441 17.567 23.1187 15.848 21.4289C14.129 19.7391 13.5788 19.5629 11.3602 19.44Z" fill="#F7F4E8" stroke="#F7F4E8"/>
<path d="M23.6637 19.6393C23.6381 21.4713 23.7006 22.3733 22.0362 24.0086C20.3719 25.6439 19.1169 25.5947 17.6366 25.5611C17.4071 24.1391 17.5745 23.1197 19.2389 21.4845C20.9032 19.8492 21.4479 19.6906 23.6637 19.6393Z" fill="#F7F4E8" stroke="#F7F4E8"/>
<path d="M17.0299 4.50849C15.7198 5.83783 14.7089 6.30086 14.7459 8.55862C14.783 10.8164 16.0737 11.7568 17.1861 12.6988C18.3862 11.8296 19.4853 10.8922 19.4482 8.63444C19.4111 6.37668 18.6213 5.99123 17.0299 4.50849Z" fill="#F7F4E8" stroke="#F7F4E8"/>
<path d="M17.8749 12.4923L17.8666 11.9924L16.8668 11.9765L16.8751 12.4764L17.8749 12.4923ZM17.1475 28.8759C17.1521 29.152 17.3797 29.3794 17.6558 29.3838C17.9319 29.3882 18.152 29.168 18.1474 28.8919L17.1475 28.8759ZM16.8751 12.4764L17.1475 28.8759L18.1474 28.8919L17.8749 12.4923L16.8751 12.4764Z" fill="#F7F4E8"/>
<rect x="12" y="11" width="10" height="12" fill="#2E3A45"/>
<path d="M11.2 10.1373C11.2859 11.9711 11.253 12.8716 12.972 14.5614C14.691 16.2512 15.9451 16.2425 17.425 16.2567C17.6078 14.8413 17.4068 13.816 15.6878 12.1262C13.9689 10.4363 13.4187 10.2601 11.2 10.1373Z" fill="#2E3A45" stroke="#F7F4E8"/>
<path d="M23.4996 10.3326C23.474 12.1647 23.5365 13.0667 21.8722 14.702C20.2078 16.3372 18.9528 16.2881 17.4725 16.2545C17.2431 14.8325 17.4105 13.8131 19.0748 12.1778C20.7392 10.5425 21.2839 10.384 23.4996 10.3326Z" fill="#2E3A45" stroke="#F7F4E8"/>
<path d="M11.2782 14.9791C11.364 16.8129 11.3311 17.7134 13.0501 19.4032C14.7691 21.093 16.0232 21.0843 17.5032 21.0985C17.686 19.6831 17.485 18.6578 15.766 16.968C14.047 15.2781 13.4968 15.1019 11.2782 14.9791Z" fill="#2E3A45" stroke="#F7F4E8"/>
<path d="M23.5778 15.1784C23.5522 17.0104 23.6147 17.9124 21.9503 19.5477C20.286 21.1829 19.0309 21.1338 17.5506 21.1002C17.3212 19.6782 17.4886 18.6588 19.153 17.0235C20.8173 15.3882 21.362 15.2297 23.5778 15.1784Z" fill="#2E3A45" stroke="#F7F4E8"/>
<path d="M11.3602 19.8033C11.446 21.6371 11.4131 22.5376 13.1321 24.2274C14.8511 25.9173 16.1052 25.9086 17.5852 25.9227C17.768 24.5074 17.567 23.482 15.848 21.7922C14.129 20.1024 13.5788 19.9262 11.3602 19.8033Z" fill="#2E3A45" stroke="#F7F4E8"/>
<path d="M23.6637 20.0026C23.6381 21.8346 23.7006 22.7366 22.0362 24.3719C20.3719 26.0071 19.1169 25.958 17.6366 25.9244C17.4071 24.5024 17.5745 23.483 19.2389 21.8477C20.9032 20.2125 21.4479 20.0539 23.6637 20.0026Z" fill="#2E3A45" stroke="#F7F4E8"/>
<path d="M17.0299 4.87177C15.7198 6.20111 14.7089 6.66414 14.7459 8.9219C14.783 11.1797 16.0737 12.1201 17.1861 13.062C18.3862 12.1929 19.4853 11.2555 19.4482 8.99772C19.4111 6.73996 18.6213 6.35451 17.0299 4.87177Z" fill="#2E3A45" stroke="#F7F4E8"/>
<path d="M17.8749 12.8556L17.8666 12.3557L16.8668 12.3398L16.8751 12.8397L17.8749 12.8556ZM17.1475 29.2392C17.1521 29.5153 17.3797 29.7427 17.6558 29.7471C17.9319 29.7515 18.152 29.5312 18.1474 29.2551L17.1475 29.2392ZM16.8751 12.8397L17.1475 29.2392L18.1474 29.2551L17.8749 12.8556L16.8751 12.8397Z" fill="#F7F4E8"/>
</svg>
