<svg width="34" height="34" viewBox="0 0 34 34" fill="none" xmlns="http://www.w3.org/2000/svg">
<circle cx="17" cy="17" r="16" stroke="#F7F4E8"/>
<path fill-rule="evenodd" clip-rule="evenodd" d="M20.117 8.89794C20.64 8.32788 21.526 8.2897 22.0961 8.81268C22.5453 9.22482 22.6643 9.86245 22.4385 10.3932L22.5564 10.5013C23.0657 10.2308 23.7112 10.2944 24.1605 10.7065C24.7306 11.2295 24.7687 12.1156 24.2458 12.6857C23.7228 13.2557 22.8367 13.2939 22.2666 12.7709C22.1458 12.6601 22.0489 12.5329 21.9761 12.3959L20.0287 14.5197L18.6524 13.2571L20.5999 11.1339C20.4575 11.0732 20.3228 10.9877 20.2022 10.8771C19.6322 10.3541 19.594 9.468 20.117 8.89794ZM9.87123 24.2103C7.59097 22.1184 7.43828 18.5741 9.53019 16.2938C10.3175 15.4356 11.8554 14.7394 14.144 14.2054C15.0582 13.992 15.8868 13.5081 16.5218 12.8167L16.6449 12.6826C16.9935 12.3026 17.5843 12.2772 17.9643 12.6258L20.7168 15.151C21.0969 15.4996 21.1223 16.0903 20.7737 16.4704L20.6522 16.6028C20.0169 17.2953 19.6053 18.1634 19.4713 19.0935C19.1363 21.4191 18.5751 23.0111 17.7877 23.8693C15.6958 26.1495 12.1515 26.3022 9.87123 24.2103Z" fill="#F7F4E8" stroke="#F7F4E8" stroke-linecap="round"/>
</svg>
