<svg width="34" height="34" viewBox="0 0 34 34" fill="none" xmlns="http://www.w3.org/2000/svg">
<circle cx="17" cy="17" r="16" stroke="#F7F4E8"/>
<path d="M6 6L28 28" stroke="#F7F4E8" stroke-linecap="round"/>
<rect x="13" y="12" width="9" height="11" fill="#2E3A45"/>
<mask id="path-4-inside-1_1696_14410" fill="white">
<path fill-rule="evenodd" clip-rule="evenodd" d="M14.3894 8.31836C12.9495 10.5241 11.9985 14.3282 11.9985 18.6512C11.92 19.7268 11.9245 20.7691 11.9992 21.7621V25.0999C11.9992 27.0551 13.5842 28.6401 15.5395 28.6401H19.0293C20.9845 28.6401 22.5695 27.0551 22.5695 25.0999V21.5345C22.5695 21.5 22.5692 21.4657 22.5685 21.4314C22.6259 20.5386 22.6289 19.608 22.5689 18.6512C22.5689 14.3282 21.6179 10.5241 20.178 8.31836H14.3894ZM17.2837 30.9983C17.2258 30.9983 17.1678 30.9962 17.1099 30.9919H17.4574C17.3996 30.9962 17.3417 30.9983 17.2837 30.9983Z"/>
</mask>
<path d="M11.9985 18.6512L12.9959 18.724L12.9985 18.6876V18.6512H11.9985ZM14.3894 8.31836V7.31836H13.848L13.5521 7.77172L14.3894 8.31836ZM11.9992 21.7621H12.9992V21.7245L12.9964 21.687L11.9992 21.7621ZM22.5685 21.4314L21.5706 21.3672L21.5679 21.4088L21.5687 21.4505L22.5685 21.4314ZM22.5689 18.6512H21.5689V18.6825L21.5708 18.7138L22.5689 18.6512ZM20.178 8.31836L21.0154 7.77173L20.7194 7.31836H20.178V8.31836ZM17.1099 30.9919V29.9919L17.0358 31.9891L17.1099 30.9919ZM17.4574 30.9919L17.5316 31.9891L17.4574 29.9919V30.9919ZM12.9985 18.6512C12.9985 14.4354 13.9322 10.8481 15.2268 8.86499L13.5521 7.77172C11.9669 10.2001 10.9985 14.221 10.9985 18.6512H12.9985ZM12.9964 21.687C12.9254 20.7431 12.921 19.7502 12.9959 18.724L11.0012 18.5784C10.9191 19.7034 10.9237 20.7951 11.0021 21.8371L12.9964 21.687ZM12.9992 25.0999V21.7621H10.9992V25.0999H12.9992ZM15.5395 27.6401C14.1365 27.6401 12.9992 26.5028 12.9992 25.0999H10.9992C10.9992 27.6074 13.032 29.6401 15.5395 29.6401V27.6401ZM19.0293 27.6401H15.5395V29.6401H19.0293V27.6401ZM21.5695 25.0999C21.5695 26.5028 20.4322 27.6401 19.0293 27.6401V29.6401C21.5368 29.6401 23.5695 27.6074 23.5695 25.0999H21.5695ZM21.5695 21.5345V25.0999H23.5695V21.5345H21.5695ZM21.5687 21.4505C21.5692 21.4784 21.5695 21.5064 21.5695 21.5345H23.5695C23.5695 21.4937 23.5691 21.4529 23.5683 21.4123L21.5687 21.4505ZM21.5708 18.7138C21.6282 19.6283 21.6253 20.5165 21.5706 21.3672L23.5664 21.4956C23.6266 20.5607 23.6296 19.5878 23.5669 18.5886L21.5708 18.7138ZM19.3406 8.86499C20.6352 10.8481 21.5689 14.4354 21.5689 18.6512H23.5689C23.5689 14.221 22.6006 10.2001 21.0154 7.77173L19.3406 8.86499ZM14.3894 9.31836H20.178V7.31836H14.3894V9.31836ZM17.0358 31.9891C17.1181 31.9952 17.2008 31.9983 17.2837 31.9983V29.9983C17.2507 29.9983 17.2175 29.9971 17.1841 29.9946L17.0358 31.9891ZM17.4574 29.9919H17.1099V31.9919H17.4574V29.9919ZM17.2837 31.9983C17.3667 31.9983 17.4493 31.9952 17.5316 31.9891L17.3832 29.9946C17.3499 29.9971 17.3167 29.9983 17.2837 29.9983V31.9983Z" fill="#F7F4E8" mask="url(#path-4-inside-1_1696_14410)"/>
<rect x="13.679" y="6.15552" width="7.07" height="1.16259" rx="0.581297" stroke="#F7F4E8" stroke-width="1.16259"/>
</svg>
