<svg width="34" height="34" viewBox="0 0 34 34" fill="none" xmlns="http://www.w3.org/2000/svg">
<circle cx="17" cy="17" r="16" stroke="#F7F4E8"/>
<path d="M25.1505 21.2178C24.767 21.6457 24.3245 22.0168 23.8364 22.32C22.7352 23.0886 21.4772 23.6034 20.1532 23.8275C18.8291 24.0516 17.4718 23.9793 16.179 23.6159C14.8862 23.2525 13.6901 22.6069 12.6767 21.7258C11.6633 20.8446 10.8579 19.7497 10.3184 18.52C10.1402 18.1543 10.0098 17.7672 9.93045 17.3682L9.76382 16.7649C9.81855 16.7098 9.8182 16.6 9.87293 16.5449C10.2473 15.7256 10.7656 14.9802 11.4032 14.344L11.7315 14.0135C11.8465 13.8075 11.9943 13.6216 12.169 13.4631C13.5183 12.0962 15.2631 11.188 17.1568 10.8668C16.8296 9.83529 16.2621 8.89624 15.501 8.12698L15.1155 7.7439C15.9581 7.71815 16.7972 7.86422 17.5816 8.1732C18.366 8.48218 19.0793 8.9476 19.678 9.54112C20.1089 9.96315 20.4799 10.4423 20.7806 10.965C22.4284 11.366 23.9326 12.2165 25.1257 13.4218C26.2266 14.5022 27.042 15.839 27.4989 17.3123C27.0427 18.7845 26.237 20.1245 25.1505 21.2178Z" stroke="#F7F4E8" stroke-linecap="round" stroke-linejoin="round"/>
<path d="M9.70653 16.7093L7.89917 18.0876L6.09215 19.5757L6.08306 16.7209L6.07396 13.866L7.89042 15.3426L9.70653 16.7093Z" stroke="#F7F4E8" stroke-linecap="round" stroke-linejoin="round"/>
<path d="M20.8737 23.4274C19.3055 21.8403 18.4275 19.6982 18.4307 17.4671C18.4338 15.2359 19.3179 13.0963 20.8906 11.5137" stroke="#F7F4E8" stroke-linecap="round" stroke-linejoin="round"/>
<path d="M23.3527 16.3715C23.2148 16.5102 22.9906 16.5109 22.8519 16.3731C22.7132 16.2352 22.7125 16.011 22.8503 15.8723C22.9882 15.7336 23.2124 15.7329 23.3511 15.8707C23.4898 16.0086 23.4905 16.2327 23.3527 16.3715Z" fill="#F7F4E8" stroke="#F7F4E8"/>
</svg>
