<svg width="34" height="34" viewBox="0 0 34 34" fill="none" xmlns="http://www.w3.org/2000/svg">
<path d="M6 6L28 28" stroke="#F7F4E8" stroke-linecap="round"/>
<path d="M6 6L28 28" stroke="#F7F4E8" stroke-linecap="round"/>
<rect x="12" y="10" width="14" height="15" rx="3" fill="#2E3A45"/>
<mask id="path-4-inside-1_1696_14484" fill="white">
<path fill-rule="evenodd" clip-rule="evenodd" d="M21.2013 8.90871L16.9981 6.52901L12.7949 8.90871L16.9981 11.2884L21.2013 8.90871ZM17.4342 6.28208L16.9981 6.03516L16.562 6.28208L12.3587 8.66179L11.9229 8.90852L11.9227 8.90837V8.90867L11.9226 8.90871L11.9227 8.90876V9.40594V14.1579V14.6555L11.9679 14.6811L11.5808 14.9003L7.37755 17.28L6.94175 17.5267L6.94149 17.5266V17.5269L6.94141 17.5269L6.94149 17.5269L6.94149 18.0241L6.94149 22.7761L6.94149 23.2737L7.37763 23.5206L11.5809 25.9003L12.017 26.1472V26.1468L12.4531 25.9L16.6563 23.5203L16.9982 23.3267L17.3406 23.5206L21.5439 25.9003L21.98 26.1472V26.1468L22.4161 25.9L26.6193 23.5203L27.0555 23.2733V22.7758V18.0238V17.5269V17.5262L27.0549 17.5266L26.6193 17.28L22.4161 14.9003L22.0284 14.6808L22.0736 14.6551V14.1576V9.40559V8.90871V8.90803L22.073 8.90837L21.6375 8.66179L17.4342 6.28208ZM16.562 12.0326L12.3588 9.65286V14.4048L16.562 16.7845V12.0326ZM17.4342 12.0322L21.6375 9.65252V14.4045L17.4342 16.7842V12.0322ZM26.1832 17.5269L21.9799 15.1472L17.7767 17.5269L21.9799 19.9066L26.1832 17.5269ZM17.3406 18.2711L21.5439 20.6508V25.4027L17.3406 23.023V18.2711ZM26.6193 18.2707L22.4161 20.6504V25.4024L26.6193 23.0227V18.2707ZM12.0169 15.1472L16.2202 17.5269L12.0169 19.9066L7.8137 17.5269L12.0169 15.1472ZM11.5809 20.6508L7.37763 18.2711L7.37763 23.023L11.5809 25.4027V20.6508ZM12.4531 20.6504L16.6563 18.2707V23.0227L12.4531 25.4024V20.6504Z"/>
</mask>
<path d="M16.9981 6.52901L17.4908 5.6588L16.9981 5.37987L16.5054 5.6588L16.9981 6.52901ZM21.2013 8.90871L21.694 9.77893L23.2311 8.90871L21.694 8.0385L21.2013 8.90871ZM12.7949 8.90871L12.3022 8.0385L10.7651 8.90871L12.3022 9.77893L12.7949 8.90871ZM16.9981 11.2884L16.5054 12.1586L16.9981 12.4376L17.4908 12.1586L16.9981 11.2884ZM16.9981 6.03516L17.4908 5.16494L16.9981 4.88601L16.5054 5.16494L16.9981 6.03516ZM17.4342 6.28208L17.9269 5.41187L17.4342 6.28208ZM16.562 6.28208L16.0693 5.41187V5.41187L16.562 6.28208ZM12.3587 8.66179L11.866 7.79157V7.79158L12.3587 8.66179ZM11.9229 8.90852L11.4303 9.77879L11.923 10.0576L12.4156 9.77873L11.9229 8.90852ZM11.9227 8.90837L12.4152 8.0381L10.9227 7.1933V8.90837H11.9227ZM11.9227 8.90867L12.4151 9.77899L12.9227 9.4918V8.90867H11.9227ZM11.9226 8.90871L11.4301 8.03839L9.89206 8.90871L11.4301 9.77903L11.9226 8.90871ZM11.9227 8.90876H12.9227V8.32562L12.4151 8.03844L11.9227 8.90876ZM11.9227 14.6555H10.9227V15.2385L11.43 15.5257L11.9227 14.6555ZM11.9679 14.6811L12.4606 15.5513L13.9976 14.6811L12.4606 13.8109L11.9679 14.6811ZM11.5808 14.9003L11.0881 14.0301H11.0881L11.5808 14.9003ZM7.37755 17.28L7.87023 18.1502H7.87023L7.37755 17.28ZM6.94175 17.5267L6.44972 18.3973L6.94218 18.6756L7.43443 18.3969L6.94175 17.5267ZM6.94149 17.5266L7.43352 16.656L5.94149 15.8127V17.5266H6.94149ZM6.94149 17.5269L7.43054 18.3991L7.94149 18.1126V17.5269H6.94149ZM6.94141 17.5269L6.45235 16.6547L4.89663 17.5269L6.45235 18.3992L6.94141 17.5269ZM6.94149 17.5269H7.94149V16.9412L7.43054 16.6547L6.94149 17.5269ZM6.94149 18.0241H5.94149H6.94149ZM6.94149 22.7761H5.94149H6.94149ZM6.94149 23.2737H5.94149V23.8567L6.44881 24.1439L6.94149 23.2737ZM7.37763 23.5206L7.87031 22.6504L7.87031 22.6504L7.37763 23.5206ZM11.5809 25.9003L11.0882 26.7705V26.7705L11.5809 25.9003ZM12.017 26.1472L11.5243 27.0174L13.017 27.8625V26.1472H12.017ZM12.017 26.1468L11.5243 25.2766L11.017 25.5639V26.1468H12.017ZM12.4531 25.9L12.9458 26.7702L12.9458 26.7702L12.4531 25.9ZM16.6563 23.5203L17.149 24.3905H17.149L16.6563 23.5203ZM16.9982 23.3267L17.4908 22.4565L16.9982 22.1776L16.5055 22.4565L16.9982 23.3267ZM17.3406 23.5206L16.848 24.3908H16.848L17.3406 23.5206ZM21.5439 25.9003L21.0512 26.7705L21.0512 26.7705L21.5439 25.9003ZM21.98 26.1472L21.4873 27.0174L22.98 27.8625V26.1472H21.98ZM21.98 26.1468L21.4873 25.2766L20.98 25.5639V26.1468H21.98ZM22.4161 25.9L21.9234 25.0298H21.9234L22.4161 25.9ZM26.6193 23.5203L27.112 24.3905L26.6193 23.5203ZM27.0555 23.2733L27.5481 24.1435L28.0555 23.8563V23.2733H27.0555ZM27.0555 17.5262H28.0555V15.8111L26.5629 16.656L27.0555 17.5262ZM27.0549 17.5266L26.5622 18.3968L27.0548 18.6757L27.5475 18.3968L27.0549 17.5266ZM26.6193 17.28L27.112 16.4098H27.112L26.6193 17.28ZM22.4161 14.9003L22.9088 14.0301L22.9088 14.0301L22.4161 14.9003ZM22.0284 14.6808L21.5357 13.8106L19.9987 14.6808L21.5357 15.551L22.0284 14.6808ZM22.0736 14.6551L22.5663 15.5253L23.0736 15.2381V14.6551H22.0736ZM22.0736 8.90803H23.0736V7.19349L21.5813 8.03762L22.0736 8.90803ZM22.073 8.90837L21.5803 9.77858L22.0728 10.0574L22.5654 9.77877L22.073 8.90837ZM21.6375 8.66179L22.1302 7.79157L21.6375 8.66179ZM12.3588 9.65286L12.8515 8.78265L11.3588 7.93756V9.65286H12.3588ZM16.562 12.0326H17.562V11.4496L17.0547 11.1624L16.562 12.0326ZM12.3588 14.4048H11.3588V14.9878L11.8661 15.2751L12.3588 14.4048ZM16.562 16.7845L16.0694 17.6548L17.562 18.4999V16.7845H16.562ZM21.6375 9.65252H22.6375V7.93722L21.1448 8.78231L21.6375 9.65252ZM17.4342 12.0322L16.9416 11.162L16.4342 11.4492V12.0322H17.4342ZM21.6375 14.4045L22.1302 15.2747L22.6375 14.9875V14.4045H21.6375ZM17.4342 16.7842H16.4342V18.4995L17.9269 17.6544L17.4342 16.7842ZM21.9799 15.1472L22.4726 14.277L21.9799 13.9981L21.4873 14.277L21.9799 15.1472ZM26.1832 17.5269L26.6758 18.3971L28.2129 17.5269L26.6758 16.6567L26.1832 17.5269ZM17.7767 17.5269L17.284 16.6567L15.747 17.5269L17.284 18.3971L17.7767 17.5269ZM21.9799 19.9066L21.4873 20.7768L21.9799 21.0558L22.4726 20.7768L21.9799 19.9066ZM21.5439 20.6508H22.5439V20.0678L22.0365 19.7805L21.5439 20.6508ZM17.3406 18.2711L17.8333 17.4008L16.3406 16.5558V18.2711H17.3406ZM21.5439 25.4027L21.0512 26.273L22.5439 27.118V25.4027H21.5439ZM17.3406 23.023H16.3406V23.606L16.848 23.8932L17.3406 23.023ZM22.4161 20.6504L21.9234 19.7802L21.4161 20.0674V20.6504H22.4161ZM26.6193 18.2707H27.6193V16.5554L26.1266 17.4005L26.6193 18.2707ZM22.4161 25.4024H21.4161V27.1177L22.9088 26.2726L22.4161 25.4024ZM26.6193 23.0227L27.112 23.8929L27.6193 23.6057V23.0227H26.6193ZM16.2202 17.5269L16.7128 18.3971L18.2499 17.5269L16.7128 16.6567L16.2202 17.5269ZM12.0169 15.1472L12.5096 14.277L12.0169 13.9981L11.5243 14.277L12.0169 15.1472ZM12.0169 19.9066L11.5243 20.7768L12.0169 21.0558L12.5096 20.7768L12.0169 19.9066ZM7.8137 17.5269L7.32102 16.6567L5.78397 17.5269L7.32102 18.3971L7.8137 17.5269ZM7.37763 18.2711L7.87031 17.4008L6.37763 16.5558L6.37763 18.2711H7.37763ZM11.5809 20.6508H12.5809V20.0678L12.0735 19.7805L11.5809 20.6508ZM7.37763 23.023H6.37763V23.606L6.88495 23.8932L7.37763 23.023ZM11.5809 25.4027L11.0882 26.273L12.5809 27.118V25.4027H11.5809ZM16.6563 18.2707H17.6563V16.5554L16.1636 17.4005L16.6563 18.2707ZM12.4531 20.6504L11.9604 19.7802L11.4531 20.0674V20.6504H12.4531ZM16.6563 23.0227L17.149 23.8929L17.6563 23.6057V23.0227H16.6563ZM12.4531 25.4024H11.4531V27.1177L12.9458 26.2726L12.4531 25.4024ZM16.5054 7.39922L20.7087 9.77893L21.694 8.0385L17.4908 5.6588L16.5054 7.39922ZM13.2875 9.77893L17.4908 7.39922L16.5054 5.6588L12.3022 8.0385L13.2875 9.77893ZM17.4908 10.4182L13.2875 8.0385L12.3022 9.77893L16.5054 12.1586L17.4908 10.4182ZM20.7087 8.0385L16.5054 10.4182L17.4908 12.1586L21.694 9.77893L20.7087 8.0385ZM16.5054 6.90537L16.9416 7.1523L17.9269 5.41187L17.4908 5.16494L16.5054 6.90537ZM17.0546 7.1523L17.4908 6.90537L16.5054 5.16494L16.0693 5.41187L17.0546 7.1523ZM12.8514 9.532L17.0546 7.1523L16.0693 5.41187L11.866 7.79157L12.8514 9.532ZM12.4156 9.77873L12.8514 9.532L11.866 7.79158L11.4302 8.03831L12.4156 9.77873ZM11.4301 9.77864L11.4303 9.77879L12.4155 8.03825L12.4152 8.0381L11.4301 9.77864ZM12.9227 8.90867V8.90837H10.9227V8.90867H12.9227ZM12.4151 9.77903L12.4151 9.77899L11.4302 8.03835L11.4301 8.03839L12.4151 9.77903ZM12.4151 8.03844L12.4151 8.03839L11.4301 9.77903L11.4302 9.77908L12.4151 8.03844ZM12.9227 9.40594V8.90876H10.9227V9.40594H12.9227ZM12.9227 14.1579V9.40594H10.9227V14.1579H12.9227ZM12.9227 14.6555V14.1579H10.9227V14.6555H12.9227ZM12.4606 13.8109L12.4153 13.7853L11.43 15.5257L11.4752 15.5513L12.4606 13.8109ZM12.0735 15.7705L12.4606 15.5513L11.4752 13.8109L11.0881 14.0301L12.0735 15.7705ZM7.87023 18.1502L12.0735 15.7705L11.0881 14.0301L6.88487 16.4098L7.87023 18.1502ZM7.43443 18.3969L7.87023 18.1502L6.88487 16.4098L6.44907 16.6565L7.43443 18.3969ZM6.44945 18.3971L6.44972 18.3973L7.43378 16.6561L7.43352 16.656L6.44945 18.3971ZM7.94149 17.5269V17.5266H5.94149V17.5269H7.94149ZM7.43046 18.3992L7.43054 18.3991L6.45243 16.6546L6.45235 16.6547L7.43046 18.3992ZM7.43054 16.6547L7.43046 16.6547L6.45235 18.3992L6.45243 18.3992L7.43054 16.6547ZM7.94149 18.0241V17.5269H5.94149V18.0241H7.94149ZM7.94149 22.7761L7.94149 18.0241H5.94149V22.7761H7.94149ZM7.94149 23.2737V22.7761H5.94149V23.2737H7.94149ZM7.87031 22.6504L7.43416 22.4035L6.44881 24.1439L6.88495 24.3908L7.87031 22.6504ZM12.0735 25.0301L7.87031 22.6504L6.88495 24.3908L11.0882 26.7705L12.0735 25.0301ZM12.5097 25.277L12.0735 25.0301L11.0882 26.7705L11.5243 27.0174L12.5097 25.277ZM11.017 26.1468V26.1472H13.017V26.1468H11.017ZM12.5097 27.0171L12.9458 26.7702L11.9604 25.0298L11.5243 25.2766L12.5097 27.0171ZM12.9458 26.7702L17.149 24.3905L16.1636 22.6501L11.9604 25.0298L12.9458 26.7702ZM17.149 24.3905L17.4908 24.1969L16.5055 22.4565L16.1636 22.6501L17.149 24.3905ZM17.8333 22.6504L17.4908 22.4565L16.5055 24.1969L16.848 24.3908L17.8333 22.6504ZM22.0365 25.0301L17.8333 22.6504L16.848 24.3908L21.0512 26.7705L22.0365 25.0301ZM22.4727 25.277L22.0365 25.0301L21.0512 26.7705L21.4873 27.0174L22.4727 25.277ZM20.98 26.1468V26.1472H22.98V26.1468H20.98ZM21.9234 25.0298L21.4873 25.2766L22.4727 27.0171L22.9088 26.7702L21.9234 25.0298ZM26.1266 22.6501L21.9234 25.0298L22.9088 26.7702L27.112 24.3905L26.1266 22.6501ZM26.5628 22.4031L26.1266 22.6501L27.112 24.3905L27.5481 24.1435L26.5628 22.4031ZM26.0555 22.7758V23.2733H28.0555V22.7758H26.0555ZM26.0555 18.0238V22.7758H28.0555V18.0238H26.0555ZM26.0555 17.5269V18.0238H28.0555V17.5269H26.0555ZM26.0555 17.5262V17.5269H28.0555V17.5262H26.0555ZM27.5475 18.3968L27.5481 18.3965L26.5629 16.656L26.5623 16.6563L27.5475 18.3968ZM26.1266 18.1502L26.5622 18.3968L27.5475 16.6564L27.112 16.4098L26.1266 18.1502ZM21.9234 15.7705L26.1266 18.1502L27.112 16.4098L22.9088 14.0301L21.9234 15.7705ZM21.5357 15.551L21.9234 15.7705L22.9088 14.0301L22.521 13.8106L21.5357 15.551ZM21.5809 13.7849L21.5357 13.8106L22.5211 15.551L22.5663 15.5253L21.5809 13.7849ZM21.0736 14.1576V14.6551H23.0736V14.1576H21.0736ZM21.0736 9.40559V14.1576H23.0736V9.40559H21.0736ZM21.0736 8.90871V9.40559H23.0736V8.90871H21.0736ZM21.0736 8.90803V8.90871H23.0736V8.90803H21.0736ZM22.5654 9.77877L22.566 9.77843L21.5813 8.03762L21.5807 8.03797L22.5654 9.77877ZM21.1448 9.532L21.5803 9.77858L22.5657 8.03816L22.1302 7.79157L21.1448 9.532ZM16.9416 7.1523L21.1448 9.532L22.1302 7.79157L17.9269 5.41187L16.9416 7.1523ZM11.8661 10.5231L16.0694 12.9028L17.0547 11.1624L12.8515 8.78265L11.8661 10.5231ZM13.3588 14.4048V9.65286H11.3588V14.4048H13.3588ZM17.0547 15.9143L12.8515 13.5346L11.8661 15.2751L16.0694 17.6548L17.0547 15.9143ZM15.562 12.0326V16.7845H17.562V12.0326H15.562ZM21.1448 8.78231L16.9416 11.162L17.9269 12.9024L22.1302 10.5227L21.1448 8.78231ZM22.6375 14.4045V9.65252H20.6375V14.4045H22.6375ZM17.9269 17.6544L22.1302 15.2747L21.1448 13.5343L16.9416 15.914L17.9269 17.6544ZM16.4342 12.0322V16.7842H18.4342V12.0322H16.4342ZM21.4873 16.0174L25.6905 18.3971L26.6758 16.6567L22.4726 14.277L21.4873 16.0174ZM18.2694 18.3971L22.4726 16.0174L21.4873 14.277L17.284 16.6567L18.2694 18.3971ZM22.4726 19.0364L18.2694 16.6567L17.284 18.3971L21.4873 20.7768L22.4726 19.0364ZM25.6905 16.6567L21.4873 19.0364L22.4726 20.7768L26.6758 18.3971L25.6905 16.6567ZM22.0365 19.7805L17.8333 17.4008L16.848 19.1413L21.0512 21.521L22.0365 19.7805ZM22.5439 25.4027V20.6508H20.5439V25.4027H22.5439ZM16.848 23.8932L21.0512 26.273L22.0365 24.5325L17.8333 22.1528L16.848 23.8932ZM16.3406 18.2711V23.023H18.3406V18.2711H16.3406ZM22.9088 21.5206L27.112 19.1409L26.1266 17.4005L21.9234 19.7802L22.9088 21.5206ZM23.4161 25.4024V20.6504H21.4161V25.4024H23.4161ZM26.1266 22.1525L21.9234 24.5322L22.9088 26.2726L27.112 23.8929L26.1266 22.1525ZM25.6193 18.2707V23.0227H27.6193V18.2707H25.6193ZM16.7128 16.6567L12.5096 14.277L11.5243 16.0174L15.7275 18.3971L16.7128 16.6567ZM12.5096 20.7768L16.7128 18.3971L15.7275 16.6567L11.5243 19.0364L12.5096 20.7768ZM7.32102 18.3971L11.5243 20.7768L12.5096 19.0364L8.30637 16.6567L7.32102 18.3971ZM11.5243 14.277L7.32102 16.6567L8.30637 18.3971L12.5096 16.0174L11.5243 14.277ZM6.88495 19.1413L11.0882 21.521L12.0735 19.7805L7.87031 17.4008L6.88495 19.1413ZM8.37763 23.023V18.2711H6.37763V23.023H8.37763ZM12.0735 24.5325L7.87031 22.1528L6.88495 23.8932L11.0882 26.273L12.0735 24.5325ZM10.5809 20.6508V25.4027H12.5809V20.6508H10.5809ZM16.1636 17.4005L11.9604 19.7802L12.9458 21.5206L17.149 19.1409L16.1636 17.4005ZM17.6563 23.0227V18.2707H15.6563V23.0227H17.6563ZM12.9458 26.2726L17.149 23.8929L16.1636 22.1525L11.9604 24.5322L12.9458 26.2726ZM11.4531 20.6504V25.4024H13.4531V20.6504H11.4531Z" fill="#F7F4E8" mask="url(#path-4-inside-1_1696_14484)"/>
<circle cx="17" cy="17" r="16" stroke="#F7F4E8"/>
<circle cx="17" cy="17" r="16" stroke="#F7F4E8"/>
</svg>
