<svg width="34" height="34" viewBox="0 0 34 34" fill="none" xmlns="http://www.w3.org/2000/svg">
<circle cx="17" cy="17" r="16" stroke="#F7F4E8"/>
<path fill-rule="evenodd" clip-rule="evenodd" d="M12.5 8H17.5858C18.4913 8 19.3597 8.35971 20 9C20.6403 9.64029 21 10.5087 21 11.4142V11.5C21 12.4737 21.3158 13.4211 21.9 14.2L22.5 15C23.407 16.2094 23.4915 17.8475 22.7138 19.1437L22.029 20.285C21.3557 21.4072 21 22.6913 21 24C21 25.1476 20.1562 26.1205 19.0201 26.2828L14 27V23.4142C14 22.5842 14.3023 21.7853 14.8458 21.1647L15.0151 20.9849C15.614 20.386 15.8041 19.4905 15.5 18.7L15.4667 18.6133C15.1944 17.9053 15.1795 17.1267 15.4201 16.4123L15.5 16.2C15.8025 15.4739 15.637 14.637 15.0808 14.0808L15 14C14.3597 13.3597 14 12.4913 14 11.5858V9.5C14 8.67157 13.3284 8 12.5 8ZM17.5 25C18.3284 25 19 24.3284 19 23.5C19 22.6716 18.3284 22 17.5 22C16.6716 22 16 22.6716 16 23.5C16 24.3284 16.6716 25 17.5 25ZM19 19.5C20.1046 19.5 21 18.6046 21 17.5C21 16.3954 20.1046 15.5 19 15.5C17.8954 15.5 17 16.3954 17 17.5C17 18.6046 17.8954 19.5 19 19.5ZM17.5 13.5C18.3284 13.5 19 12.8284 19 12C19 11.1716 18.3284 10.5 17.5 10.5C16.6716 10.5 16 11.1716 16 12C16 12.8284 16.6716 13.5 17.5 13.5Z" stroke="#F7F4E8" stroke-linecap="round"/>
</svg>
