<svg width="54" height="54" viewBox="0 0 54 54" fill="none" xmlns="http://www.w3.org/2000/svg">
<path d="M30 30.0018C30 39.9427 35.5228 50.0018 30 50.0018C24.4772 50.0018 11.5 28.948 11.5 19.0071C11.5 9.0663 15 -1.97877 24.5 10.0078C30 16.9474 30 20.061 30 30.0018Z" fill="#ECCB78"/>
<circle cx="27" cy="27" r="26" stroke="#2E3A45"/>
<path d="M17.5755 15.2573C17.7151 18.2373 17.6616 19.7005 20.4549 22.4465C23.2483 25.1924 25.2862 25.1783 27.6912 25.2013C27.9882 22.9013 27.6616 21.2352 24.8682 18.4892C22.0749 15.7432 21.1808 15.4569 17.5755 15.2573Z" stroke="#FFFCF2"/>
<path d="M37.5595 15.5735C37.5178 18.5506 37.6194 20.0163 34.9149 22.6736C32.2103 25.3309 30.1708 25.2511 27.7654 25.1965C27.3925 22.8857 27.6646 21.2292 30.3692 18.5719C33.0737 15.9146 33.9589 15.6569 37.5595 15.5735Z" stroke="#FFFCF2"/>
<path d="M17.6986 23.1255C17.8381 26.1054 17.7846 27.5687 20.578 30.3146C23.3713 33.0606 25.4092 33.0465 27.8142 33.0695C28.1113 30.7695 27.7846 29.1033 24.9913 26.3574C22.1979 23.6114 21.3039 23.3251 17.6986 23.1255Z" stroke="#FFFCF2"/>
<path d="M37.6884 23.4475C37.6468 26.4246 37.7483 27.8903 35.0438 30.5477C32.3392 33.205 30.2997 33.1251 27.8943 33.0705C27.5214 30.7598 27.7935 29.1032 30.4981 26.4459C33.2026 23.7886 34.0878 23.531 37.6884 23.4475Z" stroke="#FFFCF2"/>
<path d="M17.8353 30.9653C17.9748 33.9453 17.9214 35.4085 20.7147 38.1545C23.5081 40.9004 25.546 40.8863 27.9509 40.9093C28.248 38.6094 27.9214 36.9432 25.128 34.1972C22.3347 31.4513 21.4406 31.1649 17.8353 30.9653Z" stroke="#FFFCF2"/>
<path d="M37.8232 31.2874C37.7815 34.2644 37.8831 35.7302 35.1785 38.3875C32.474 41.0448 30.4345 40.9649 28.029 40.9104C27.6562 38.5996 27.9283 36.9431 30.6328 34.2858C33.3374 31.6285 34.2225 31.3708 37.8232 31.2874Z" stroke="#FFFCF2"/>
<path d="M27.0467 6.70008C24.9177 8.86025 23.2749 9.61267 23.3352 13.2815C23.3955 16.9504 25.4928 18.4786 27.3004 20.0093C29.2506 18.5969 31.0367 17.0736 30.9764 13.4047C30.9161 9.73588 29.6326 9.10953 27.0467 6.70008Z" stroke="#FFFCF2"/>
<path d="M28.1093 19.6681L28.101 19.1682L27.1011 19.1523L27.1094 19.6522L28.1093 19.6681ZM27.5522 46.3014C27.5568 46.5775 27.7843 46.8049 28.0604 46.8093C28.3365 46.8137 28.5566 46.5934 28.552 46.3173L27.5522 46.3014ZM27.1094 19.6522L27.5522 46.3014L28.552 46.3173L28.1093 19.6681L27.1094 19.6522Z" fill="#FFFCF2"/>
<path d="M17.5755 15.2573C17.7151 18.2373 17.6616 19.7005 20.4549 22.4465C23.2483 25.1924 25.2862 25.1783 27.6912 25.2013C27.9882 22.9013 27.6616 21.2352 24.8682 18.4892C22.0749 15.7432 21.1808 15.4569 17.5755 15.2573Z" stroke="#2E3A45"/>
<path d="M37.5595 15.5735C37.5178 18.5506 37.6194 20.0163 34.9149 22.6736C32.2103 25.3309 30.1708 25.2511 27.7654 25.1965C27.3925 22.8857 27.6646 21.2292 30.3692 18.5719C33.0737 15.9146 33.9589 15.6569 37.5595 15.5735Z" stroke="#2E3A45"/>
<path d="M17.6986 23.1255C17.8381 26.1054 17.7846 27.5687 20.578 30.3146C23.3713 33.0606 25.4092 33.0465 27.8142 33.0695C28.1113 30.7695 27.7846 29.1033 24.9913 26.3574C22.1979 23.6114 21.3039 23.3251 17.6986 23.1255Z" stroke="#2E3A45"/>
<path d="M37.6884 23.4475C37.6468 26.4246 37.7483 27.8903 35.0438 30.5477C32.3392 33.205 30.2997 33.1251 27.8943 33.0705C27.5214 30.7598 27.7935 29.1032 30.4981 26.4459C33.2026 23.7886 34.0878 23.531 37.6884 23.4475Z" stroke="#2E3A45"/>
<path d="M17.8353 30.9653C17.9748 33.9453 17.9214 35.4085 20.7147 38.1545C23.5081 40.9004 25.546 40.8863 27.9509 40.9093C28.248 38.6094 27.9214 36.9432 25.128 34.1972C22.3347 31.4513 21.4406 31.1649 17.8353 30.9653Z" stroke="#2E3A45"/>
<path d="M37.8232 31.2874C37.7815 34.2644 37.8831 35.7302 35.1785 38.3875C32.474 41.0448 30.4345 40.9649 28.029 40.9104C27.6562 38.5996 27.9283 36.9431 30.6328 34.2858C33.3374 31.6285 34.2225 31.3708 37.8232 31.2874Z" stroke="#2E3A45"/>
<path d="M27.0467 6.70008C24.9177 8.86025 23.2749 9.61267 23.3352 13.2815C23.3955 16.9504 25.4928 18.4786 27.3004 20.0093C29.2506 18.5969 31.0367 17.0736 30.9764 13.4047C30.9161 9.73588 29.6326 9.10953 27.0467 6.70008Z" stroke="#2E3A45"/>
<path d="M28.1093 19.6681L28.101 19.1682L27.1011 19.1523L27.1094 19.6522L28.1093 19.6681ZM27.5522 46.3014C27.5568 46.5775 27.7843 46.8049 28.0604 46.8093C28.3365 46.8137 28.5566 46.5934 28.552 46.3173L27.5522 46.3014ZM27.1094 19.6522L27.5522 46.3014L28.552 46.3173L28.1093 19.6681L27.1094 19.6522Z" fill="#2E3A45"/>
</svg>
