<svg width="54" height="54" viewBox="0 0 54 54" fill="none" xmlns="http://www.w3.org/2000/svg">
<path d="M42.8858 33.1562C41.8863 38.8125 34.6795 44.5 27.5 44.5C20.3205 44.5 26.0979 34.7522 26.599 33C27.5986 29.5 23.8176 11 30.9972 11C38.1767 11 43.8853 27.5 42.8858 33.1562Z" fill="#C0BD20"/>
<circle cx="27" cy="27" r="26" stroke="#2E3A45"/>
<path fill-rule="evenodd" clip-rule="evenodd" d="M19.6875 12.375H27.9519C29.4234 12.375 30.8345 12.9595 31.875 14C32.9155 15.0405 33.5 16.4517 33.5 17.9231V18.0625C33.5 19.6447 34.0132 21.1842 34.9625 22.45L35.9375 23.75C37.4114 25.7152 37.5487 28.3771 36.2849 30.4836L35.1721 32.3381C34.078 34.1617 33.5 36.2484 33.5 38.375C33.5 40.2398 32.1288 41.8209 30.2827 42.0846L22.125 43.25V37.4231C22.125 36.0743 22.6162 34.7761 23.4995 33.7677L23.7746 33.4754C24.7478 32.5022 25.0566 31.0471 24.5625 29.7625L24.5083 29.6217C24.0658 28.4712 24.0416 27.2059 24.4327 26.0449L24.5625 25.7C25.0541 24.5201 24.7851 23.1601 23.8812 22.2562L23.75 22.125C22.7095 21.0845 22.125 19.6733 22.125 18.2019V14.8125C22.125 13.4663 21.0337 12.375 19.6875 12.375ZM27.8125 40C29.1587 40 30.25 38.9087 30.25 37.5625C30.25 36.2163 29.1587 35.125 27.8125 35.125C26.4663 35.125 25.375 36.2163 25.375 37.5625C25.375 38.9087 26.4663 40 27.8125 40ZM30.25 31.0625C32.0449 31.0625 33.5 29.6074 33.5 27.8125C33.5 26.0176 32.0449 24.5625 30.25 24.5625C28.4551 24.5625 27 26.0176 27 27.8125C27 29.6074 28.4551 31.0625 30.25 31.0625ZM27.8125 21.3125C29.1587 21.3125 30.25 20.2212 30.25 18.875C30.25 17.5288 29.1587 16.4375 27.8125 16.4375C26.4663 16.4375 25.375 17.5288 25.375 18.875C25.375 20.2212 26.4663 21.3125 27.8125 21.3125Z" stroke="#2E3A45" stroke-linecap="round"/>
</svg>
