<svg width="54" height="54" viewBox="0 0 54 54" fill="none" xmlns="http://www.w3.org/2000/svg">
<path d="M21.0478 44.7454C15.0454 41.1696 18.2368 35.7082 23.2726 27.2549C29.5302 16.7507 37.513 13.6498 41.3285 19.6045C47.2638 28.8668 43.7923 33.3428 41.0945 37.8718C36.4187 45.7208 21.0478 44.7454 21.0478 44.7454Z" fill="#DD9F66"/>
<path fill-rule="evenodd" clip-rule="evenodd" d="M26.5097 43.9837C34.3294 41.3771 38.2392 37.0264 38.2392 30.9317V26.3894H14.7802V30.9317C14.7802 37.0264 18.69 41.3771 26.5097 43.9837ZM17.7126 16.6148L23.1369 15.0649C23.9762 14.8252 24.5548 14.0581 24.5548 13.1852V10.75H28.4646L27.5996 12.4801C27.1167 13.4458 27.5082 14.62 28.4738 15.1029C28.6014 15.1667 28.7356 15.2163 28.874 15.2509L34.3294 16.6148C38.5172 17.6617 41.1131 21.8085 40.2821 25.9967L40.1941 26.3894H12.8253L12.5962 25.4732C11.6339 21.6239 13.8974 17.7048 17.7126 16.6148Z" stroke="#2E3A45" stroke-linecap="square"/>
<circle cx="27" cy="27" r="26" stroke="#2E3A45"/>
</svg>
