<svg width="54" height="54" viewBox="0 0 54 54" fill="none" xmlns="http://www.w3.org/2000/svg">
<path d="M46.002 40C46.002 48.0081 29.0095 47.5 21.0013 47.5C12.993 47.5 25.5003 40 31.0004 34.5C34.0009 25.5 28.9937 20.5 37.002 20.5C45.0102 20.5 46.002 31.9919 46.002 40Z" fill="#C1E3DE"/>
<circle cx="27" cy="27" r="26" stroke="#2E3A45"/>
<mask id="path-3-inside-1_2050_35325" fill="white">
<path fill-rule="evenodd" clip-rule="evenodd" d="M22.7593 12.8936C20.4195 16.4779 18.8741 22.6595 18.8741 29.6844C18.7465 31.4322 18.7538 33.126 18.8752 34.7396V41.9164C18.8752 44.1255 20.6661 45.9164 22.8752 45.9164H32.0519C34.261 45.9164 36.0519 44.1255 36.0519 41.9164V34.3697C36.0519 34.3138 36.0513 34.258 36.0503 34.2023C36.1436 32.7514 36.1484 31.2393 36.0509 29.6844C36.0509 22.6595 34.5055 16.4779 32.1657 12.8936H22.7593ZM27.4625 49.7485C27.3683 49.7485 27.2742 49.745 27.1801 49.738H27.7449C27.6509 49.745 27.5567 49.7485 27.4625 49.7485Z"/>
</mask>
<path fill-rule="evenodd" clip-rule="evenodd" d="M22.7593 12.8936C20.4195 16.4779 18.8741 22.6595 18.8741 29.6844C18.7465 31.4322 18.7538 33.126 18.8752 34.7396V41.9164C18.8752 44.1255 20.6661 45.9164 22.8752 45.9164H32.0519C34.261 45.9164 36.0519 44.1255 36.0519 41.9164V34.3697C36.0519 34.3138 36.0513 34.258 36.0503 34.2023C36.1436 32.7514 36.1484 31.2393 36.0509 29.6844C36.0509 22.6595 34.5055 16.4779 32.1657 12.8936H22.7593ZM27.4625 49.7485C27.3683 49.7485 27.2742 49.745 27.1801 49.738H27.7449C27.6509 49.745 27.5567 49.7485 27.4625 49.7485Z" fill="#FFFCF2"/>
<path d="M18.8741 29.6844L19.8714 29.7572L19.8741 29.7208V29.6844H18.8741ZM22.7593 12.8936V11.8936H22.2179L21.9219 12.3469L22.7593 12.8936ZM18.8752 34.7396H19.8752V34.702L19.8724 34.6645L18.8752 34.7396ZM36.0503 34.2023L35.0523 34.1381L35.0497 34.1797L35.0505 34.2214L36.0503 34.2023ZM36.0509 29.6844H35.0509V29.7157L35.0528 29.747L36.0509 29.6844ZM32.1657 12.8936L33.0031 12.3469L32.7072 11.8936H32.1657V12.8936ZM27.1801 49.738V48.738L27.1059 50.7352L27.1801 49.738ZM27.7449 49.738L27.8191 50.7352L27.7449 48.738V49.738ZM19.8741 29.6844C19.8741 22.7668 21.4022 16.8019 23.5967 13.4402L21.9219 12.3469C19.4368 16.1538 17.8741 22.5523 17.8741 29.6844H19.8741ZM19.8724 34.6645C19.7547 33.1 19.7474 31.4557 19.8714 29.7572L17.8768 29.6116C17.7455 31.4088 17.7529 33.152 17.878 34.8146L19.8724 34.6645ZM19.8752 41.9164V34.7396H17.8752V41.9164H19.8752ZM22.8752 44.9164C21.2184 44.9164 19.8752 43.5732 19.8752 41.9164H17.8752C17.8752 44.6778 20.1138 46.9164 22.8752 46.9164V44.9164ZM32.0519 44.9164H22.8752V46.9164H32.0519V44.9164ZM35.0519 41.9164C35.0519 43.5733 33.7087 44.9164 32.0519 44.9164V46.9164C34.8133 46.9164 37.0519 44.6778 37.0519 41.9164H35.0519ZM35.0519 34.3697V41.9164H37.0519V34.3697H35.0519ZM35.0505 34.2214C35.0514 34.2707 35.0519 34.3202 35.0519 34.3697H37.0519C37.0519 34.3074 37.0513 34.2452 37.0501 34.1832L35.0505 34.2214ZM35.0528 29.747C35.1477 31.2596 35.143 32.7293 35.0523 34.1381L37.0482 34.2665C37.1443 32.7735 37.1491 31.219 37.0489 29.6218L35.0528 29.747ZM31.3284 13.4402C33.5228 16.8019 35.0509 22.7668 35.0509 29.6844H37.0509C37.0509 22.5523 35.4882 16.1538 33.0031 12.3469L31.3284 13.4402ZM22.7593 13.8936H32.1657V11.8936H22.7593V13.8936ZM27.1059 50.7352C27.2245 50.744 27.3434 50.7485 27.4625 50.7485V48.7485C27.3933 48.7485 27.3239 48.7459 27.2542 48.7407L27.1059 50.7352ZM27.7449 48.738H27.1801V50.738H27.7449V48.738ZM27.4625 50.7485C27.5817 50.7485 27.7006 50.744 27.8191 50.7352L27.6706 48.7407C27.6011 48.7459 27.5318 48.7485 27.4625 48.7485V50.7485Z" fill="#2E3A45" mask="url(#path-3-inside-1_2050_35325)"/>
<rect x="21.6028" y="9.3782" width="11.4887" height="1.88921" rx="0.944607" stroke="#2E3A45" stroke-width="1.88921"/>
</svg>
