<svg width="54" height="54" viewBox="0 0 54 54" fill="none" xmlns="http://www.w3.org/2000/svg">
<path d="M42 28.5046C42 38.1696 34.165 46.0046 24.5 46.0046C14.835 46.0046 4.5 38.1696 4.5 28.5046C4.5 18.8396 14.835 19.5018 24.5 19.5018C34.165 19.5018 42 18.8396 42 28.5046Z" fill="#2E3A45"/>
<path fill-rule="evenodd" clip-rule="evenodd" d="M35.2461 23.1891L35.1726 23.2308L43.3406 27.8552L43.3416 27.8546V27.8557V37.1937L35.094 41.8631V41.8638L26.9985 37.2804L18.9041 41.8631V41.8638L10.6564 37.1942L10.6564 27.8558L10.6562 27.8557L10.6564 27.8557L10.6564 27.8552L10.6568 27.8554L18.8243 23.2313L18.7508 23.1897V13.8512L18.7506 13.8512L18.7508 13.8511V13.8506L18.7512 13.8509L26.9984 9.18164L35.2451 13.8506L35.2461 13.8501V13.8512V23.1891Z" fill="#FFFCF2"/>
<mask id="path-3-inside-1_2050_35328" fill="white">
<path fill-rule="evenodd" clip-rule="evenodd" d="M34.3738 13.8512L26.9984 9.6755L19.6229 13.8512L26.9984 18.0268L34.3738 13.8512ZM27.4345 9.42857L26.9984 9.18164L26.5622 9.42857L19.1868 13.6042L18.7512 13.8509L18.7508 13.8506V13.8511L18.7506 13.8512L18.7508 13.8512V14.3482V22.6921V23.1897L18.8243 23.2313L18.4678 23.4331L11.0924 27.6088L10.6568 27.8554L10.6564 27.8552L10.6564 27.8557L10.6562 27.8557L10.6564 27.8558L10.6564 28.3527L10.6564 36.6967L10.6564 37.1942L11.0925 37.4412L18.468 41.6168L18.9041 41.8638V41.8631L19.3401 41.6163L26.7156 37.4406L26.9985 37.2804L27.2824 37.4412L34.6578 41.6168L35.094 41.8638V41.8631L35.53 41.6163L42.9054 37.4406L43.3416 37.1937V36.6961V28.3522V27.8557V27.8546L43.3406 27.8552L42.9054 27.6088L35.53 23.4331L35.1726 23.2308L35.2461 23.1891V22.6916V14.3476V13.8512V13.8501L35.2451 13.8506L34.81 13.6042L27.4345 9.42857ZM26.5624 18.7708L19.1869 14.5951V22.939L26.5624 27.1147V18.7708ZM27.4345 18.7702L34.81 14.5946V22.9385L27.4345 27.1142V18.7702ZM42.4693 27.8557L35.0939 23.6801L27.7184 27.8557L35.0939 32.0314L42.4693 27.8557ZM27.2824 28.5997L34.6578 32.7753V41.1193L27.2824 36.9436V28.5997ZM42.9054 28.5991L35.53 32.7748V41.1187L42.9054 36.943V28.5991ZM18.904 23.6801L26.2794 27.8557L18.904 32.0314L11.5285 27.8557L18.904 23.6801ZM18.468 32.7753L11.0925 28.5997L11.0925 36.9436L18.468 41.1193V32.7753ZM19.3401 32.7748L26.7156 28.5991L26.7156 36.943L19.3401 41.1187V32.7748Z"/>
</mask>
<path d="M26.9984 9.6755L27.4911 8.80528L26.9984 8.52635L26.5057 8.80528L26.9984 9.6755ZM34.3738 13.8512L34.8665 14.7214L36.4035 13.8512L34.8665 12.981L34.3738 13.8512ZM19.6229 13.8512L19.1303 12.981L17.5932 13.8512L19.1303 14.7214L19.6229 13.8512ZM26.9984 18.0268L26.5057 18.8971L26.9984 19.176L27.4911 18.8971L26.9984 18.0268ZM26.9984 9.18164L27.4911 8.31143L26.9984 8.03249L26.5057 8.31143L26.9984 9.18164ZM27.4345 9.42857L26.9418 10.2988L26.9418 10.2988L27.4345 9.42857ZM26.5622 9.42857L27.0549 10.2988L26.5622 9.42857ZM19.1868 13.6042L18.6941 12.734V12.734L19.1868 13.6042ZM18.7512 13.8509L18.2588 14.7212L18.7514 14.9999L19.2439 14.7211L18.7512 13.8509ZM18.7508 13.8506L19.2432 12.9802L17.7508 12.136V13.8506H18.7508ZM18.7508 13.8511L19.2435 14.7213L19.7508 14.4341V13.8511H18.7508ZM18.7506 13.8512L18.258 12.981L16.721 13.8512L18.258 14.7214L18.7506 13.8512ZM18.7508 13.8512H19.7508V13.2683L19.2435 12.981L18.7508 13.8512ZM18.7508 23.1897H17.7508V23.7727L18.2581 24.0599L18.7508 23.1897ZM18.8243 23.2313L19.317 24.1015L20.854 23.2313L19.317 22.3611L18.8243 23.2313ZM18.4678 23.4331L18.9605 24.3033L18.9605 24.3033L18.4678 23.4331ZM11.0924 27.6088L11.5851 28.479L11.5851 28.479L11.0924 27.6088ZM10.6568 27.8554L10.1648 28.726L10.6573 29.0043L11.1495 28.7256L10.6568 27.8554ZM10.6564 27.8552L11.1483 26.9846L9.65638 26.1415L9.65638 27.8552H10.6564ZM10.6564 27.8557L11.1537 28.7232L11.6564 28.435V27.8557H10.6564ZM10.6562 27.8557L10.1589 26.9882L8.64563 27.8557L10.1589 28.7233L10.6562 27.8557ZM10.6564 27.8558H11.6564L11.6564 27.2764L11.1537 26.9883L10.6564 27.8558ZM10.6564 28.3527H11.6564H10.6564ZM10.6564 36.6967H9.65638H10.6564ZM10.6564 37.1942H9.65638V37.7772L10.1637 38.0645L10.6564 37.1942ZM11.0925 37.4412L11.5852 36.571L11.5852 36.571L11.0925 37.4412ZM18.468 41.6168L18.9606 40.7466H18.9606L18.468 41.6168ZM18.9041 41.8638L18.4114 42.734L19.9041 43.5791V41.8638H18.9041ZM18.9041 41.8631L18.4114 40.9929L17.9041 41.2801V41.8631H18.9041ZM19.3401 41.6163L19.8328 42.4865H19.8328L19.3401 41.6163ZM26.7156 37.4406L26.2229 36.5704L26.2229 36.5704L26.7156 37.4406ZM26.9985 37.2804L27.4912 36.4102L26.9985 36.1313L26.5058 36.4102L26.9985 37.2804ZM27.2824 37.4412L27.7751 36.571L27.7751 36.571L27.2824 37.4412ZM34.6578 41.6168L34.1652 42.4871H34.1652L34.6578 41.6168ZM35.094 41.8638L34.6013 42.734L36.094 43.5791V41.8638H35.094ZM35.094 41.8631L34.6013 40.9929L34.094 41.2802V41.8631H35.094ZM35.53 41.6163L36.0227 42.4865H36.0227L35.53 41.6163ZM42.9054 37.4406L42.4128 36.5704L42.4128 36.5704L42.9054 37.4406ZM43.3416 37.1937L43.8343 38.0639L44.3416 37.7767V37.1937H43.3416ZM43.3416 27.8546H44.3416V26.1401L42.8493 26.9842L43.3416 27.8546ZM43.3406 27.8552L42.8479 28.7254L43.3404 29.0042L43.8329 28.7256L43.3406 27.8552ZM42.9054 27.6088L43.3981 26.7386L42.9054 27.6088ZM35.53 23.4331L36.0227 22.5629L35.53 23.4331ZM35.1726 23.2308L34.6799 22.3605L33.1428 23.2308L34.6799 24.101L35.1726 23.2308ZM35.2461 23.1891L35.7388 24.0593L36.2461 23.7721V23.1891H35.2461ZM35.2461 13.8501H36.2461V12.1344L34.7533 12.9799L35.2461 13.8501ZM35.2451 13.8506L34.7524 14.7208L35.2452 14.9998L35.7379 14.7207L35.2451 13.8506ZM34.81 13.6042L34.3173 14.4745L34.81 13.6042ZM19.1869 14.5951L19.6796 13.7249L18.1869 12.8798V14.5951H19.1869ZM26.5624 18.7708H27.5624V18.1878L27.055 17.9006L26.5624 18.7708ZM19.1869 22.939H18.1869V23.522L18.6942 23.8092L19.1869 22.939ZM26.5624 27.1147L26.0697 27.9849L27.5624 28.83V27.1147H26.5624ZM34.81 14.5946H35.81V12.8792L34.3173 13.7243L34.81 14.5946ZM27.4345 18.7702L26.9418 17.9L26.4345 18.1872V18.7702H27.4345ZM34.81 22.9385L35.3026 23.8087L35.81 23.5215V22.9385H34.81ZM27.4345 27.1142H26.4345V28.8295L27.9272 27.9844L27.4345 27.1142ZM35.0939 23.6801L35.5865 22.8098L35.0939 22.5309L34.6012 22.8098L35.0939 23.6801ZM42.4693 27.8557L42.962 28.7259L44.499 27.8557L42.962 26.9855L42.4693 27.8557ZM27.7184 27.8557L27.2257 26.9855L25.6887 27.8557L27.2257 28.7259L27.7184 27.8557ZM35.0939 32.0314L34.6012 32.9016L35.0939 33.1806L35.5865 32.9016L35.0939 32.0314ZM34.6578 32.7753H35.6578V32.1924L35.1505 31.9051L34.6578 32.7753ZM27.2824 28.5997L27.7751 27.7295L26.2824 26.8844V28.5997H27.2824ZM34.6578 41.1193L34.1652 41.9895L35.6578 42.8346V41.1193H34.6578ZM27.2824 36.9436H26.2824V37.5266L26.7897 37.8138L27.2824 36.9436ZM35.53 32.7748L35.0373 31.9046L34.53 32.1918V32.7748H35.53ZM42.9054 28.5991H43.9054V26.8838L42.4128 27.7289L42.9054 28.5991ZM35.53 41.1187H34.53V42.834L36.0227 41.9889L35.53 41.1187ZM42.9054 36.943L43.3981 37.8133L43.9054 37.526V36.943H42.9054ZM26.2794 27.8557L26.7721 28.7259L28.3091 27.8557L26.7721 26.9855L26.2794 27.8557ZM18.904 23.6801L19.3967 22.8098L18.904 22.5309L18.4113 22.8098L18.904 23.6801ZM18.904 32.0314L18.4113 32.9016L18.904 33.1806L19.3967 32.9016L18.904 32.0314ZM11.5285 27.8557L11.0359 26.9855L9.49882 27.8557L11.0359 28.7259L11.5285 27.8557ZM11.0925 28.5997L11.5852 27.7295L10.0925 26.8844V28.5997H11.0925ZM18.468 32.7753H19.468V32.1924L18.9606 31.9051L18.468 32.7753ZM11.0925 36.9436H10.0925L10.0925 37.5266L10.5998 37.8138L11.0925 36.9436ZM18.468 41.1193L17.9753 41.9895L19.468 42.8346V41.1193H18.468ZM26.7156 28.5991H27.7156V26.8838L26.2229 27.7289L26.7156 28.5991ZM19.3401 32.7748L18.8474 31.9046L18.3401 32.1918V32.7748H19.3401ZM26.7156 36.943L27.2082 37.8132L27.7156 37.526V36.943H26.7156ZM19.3401 41.1187H18.3401V42.834L19.8328 41.9889L19.3401 41.1187ZM26.5057 10.5457L33.8811 14.7214L34.8665 12.981L27.4911 8.80528L26.5057 10.5457ZM20.1156 14.7214L27.4911 10.5457L26.5057 8.80528L19.1303 12.981L20.1156 14.7214ZM27.4911 17.1566L20.1156 12.981L19.1303 14.7214L26.5057 18.8971L27.4911 17.1566ZM33.8811 12.981L26.5057 17.1566L27.4911 18.8971L34.8665 14.7214L33.8811 12.981ZM26.5057 10.0519L26.9418 10.2988L27.9272 8.55836L27.4911 8.31143L26.5057 10.0519ZM27.0549 10.2988L27.4911 10.0519L26.5057 8.31143L26.0696 8.55836L27.0549 10.2988ZM19.6795 14.4745L27.0549 10.2988L26.0696 8.55836L18.6941 12.734L19.6795 14.4745ZM19.2439 14.7211L19.6795 14.4745L18.6941 12.734L18.2585 12.9806L19.2439 14.7211ZM18.2584 14.721L18.2588 14.7212L19.2436 12.9805L19.2432 12.9802L18.2584 14.721ZM19.7508 13.8511V13.8506H17.7508V13.8511H19.7508ZM19.2433 14.7214L19.2435 14.7213L18.2581 12.9809L18.258 12.981L19.2433 14.7214ZM19.2435 12.981L19.2433 12.981L18.258 14.7214L18.2581 14.7214L19.2435 12.981ZM19.7508 14.3482V13.8512H17.7508V14.3482H19.7508ZM19.7508 22.6921V14.3482H17.7508V22.6921H19.7508ZM19.7508 23.1897V22.6921H17.7508V23.1897H19.7508ZM19.317 22.3611L19.2435 22.3195L18.2581 24.0599L18.3316 24.1015L19.317 22.3611ZM18.9605 24.3033L19.317 24.1015L18.3316 22.3611L17.9752 22.5629L18.9605 24.3033ZM11.5851 28.479L18.9605 24.3033L17.9752 22.5629L10.5997 26.7386L11.5851 28.479ZM11.1495 28.7256L11.5851 28.479L10.5997 26.7386L10.1641 26.9852L11.1495 28.7256ZM10.1644 28.7258L10.1648 28.726L11.1488 26.9848L11.1483 26.9846L10.1644 28.7258ZM11.6564 27.8557V27.8552H9.65638V27.8557H11.6564ZM11.1536 28.7233L11.1537 28.7232L10.159 26.9881L10.1589 26.9882L11.1536 28.7233ZM11.1537 26.9883L11.1536 26.9882L10.1589 28.7233L10.159 28.7234L11.1537 26.9883ZM11.6564 28.3527V27.8558H9.65638V28.3527H11.6564ZM11.6564 36.6967L11.6564 28.3527H9.65638L9.65638 36.6967H11.6564ZM11.6564 37.1942V36.6967H9.65638L9.65638 37.1942H11.6564ZM11.5852 36.571L11.1491 36.324L10.1637 38.0645L10.5998 38.3114L11.5852 36.571ZM18.9606 40.7466L11.5852 36.571L10.5998 38.3114L17.9753 42.4871L18.9606 40.7466ZM19.3968 40.9936L18.9606 40.7466L17.9753 42.487L18.4114 42.734L19.3968 40.9936ZM17.9041 41.8631V41.8638H19.9041V41.8631H17.9041ZM19.3968 42.7333L19.8328 42.4865L18.8474 40.7461L18.4114 40.9929L19.3968 42.7333ZM19.8328 42.4865L27.2082 38.3108L26.2229 36.5704L18.8474 40.7461L19.8328 42.4865ZM27.2082 38.3108L27.4912 38.1506L26.5058 36.4102L26.2229 36.5704L27.2082 38.3108ZM27.7751 36.571L27.4912 36.4102L26.5058 38.1506L26.7897 38.3114L27.7751 36.571ZM35.1505 40.7466L27.7751 36.571L26.7897 38.3114L34.1652 42.4871L35.1505 40.7466ZM35.5867 40.9936L35.1505 40.7466L34.1652 42.4871L34.6013 42.734L35.5867 40.9936ZM34.094 41.8631V41.8638H36.094V41.8631H34.094ZM35.0373 40.7461L34.6013 40.9929L35.5867 42.7334L36.0227 42.4865L35.0373 40.7461ZM42.4128 36.5704L35.0373 40.7461L36.0227 42.4865L43.3981 38.3108L42.4128 36.5704ZM42.8489 36.3235L42.4128 36.5704L43.3981 38.3108L43.8343 38.0639L42.8489 36.3235ZM42.3416 36.6961V37.1937H44.3416V36.6961H42.3416ZM42.3416 28.3522V36.6961H44.3416V28.3522H42.3416ZM42.3416 27.8557V28.3522H44.3416V27.8557H42.3416ZM42.3416 27.8546V27.8557H44.3416V27.8546H42.3416ZM43.8329 28.7256L43.8339 28.725L42.8493 26.9842L42.8483 26.9848L43.8329 28.7256ZM42.4128 28.479L42.8479 28.7254L43.8333 26.985L43.3981 26.7386L42.4128 28.479ZM35.0373 24.3033L42.4128 28.479L43.3981 26.7386L36.0227 22.5629L35.0373 24.3033ZM34.6799 24.101L35.0373 24.3033L36.0227 22.5629L35.6652 22.3605L34.6799 24.101ZM34.7534 22.3189L34.6799 22.3605L35.6652 24.101L35.7388 24.0593L34.7534 22.3189ZM34.2461 22.6916V23.1891H36.2461V22.6916H34.2461ZM34.2461 14.3476V22.6916H36.2461V14.3476H34.2461ZM34.2461 13.8512V14.3476H36.2461V13.8512H34.2461ZM34.2461 13.8501V13.8512H36.2461V13.8501H34.2461ZM35.7379 14.7207L35.7389 14.7202L34.7533 12.9799L34.7523 12.9805L35.7379 14.7207ZM34.3173 14.4745L34.7524 14.7208L35.7378 12.9804L35.3026 12.734L34.3173 14.4745ZM26.9418 10.2988L34.3173 14.4745L35.3026 12.734L27.9272 8.55836L26.9418 10.2988ZM18.6942 15.4653L26.0697 19.641L27.055 17.9006L19.6796 13.7249L18.6942 15.4653ZM20.1869 22.939V14.5951H18.1869V22.939H20.1869ZM27.055 26.2445L19.6796 22.0688L18.6942 23.8092L26.0697 27.9849L27.055 26.2445ZM25.5624 18.7708V27.1147H27.5624V18.7708H25.5624ZM34.3173 13.7243L26.9418 17.9L27.9272 19.6404L35.3026 15.4648L34.3173 13.7243ZM35.81 22.9385V14.5946H33.81V22.9385H35.81ZM27.9272 27.9844L35.3026 23.8087L34.3173 22.0683L26.9418 26.2439L27.9272 27.9844ZM26.4345 18.7702V27.1142H28.4345V18.7702H26.4345ZM34.6012 24.5503L41.9766 28.7259L42.962 26.9855L35.5865 22.8098L34.6012 24.5503ZM28.2111 28.7259L35.5865 24.5503L34.6012 22.8098L27.2257 26.9855L28.2111 28.7259ZM35.5865 31.1612L28.2111 26.9855L27.2257 28.7259L34.6012 32.9016L35.5865 31.1612ZM41.9766 26.9855L34.6012 31.1612L35.5865 32.9016L42.962 28.7259L41.9766 26.9855ZM35.1505 31.9051L27.7751 27.7295L26.7897 29.4699L34.1652 33.6456L35.1505 31.9051ZM35.6578 41.1193V32.7753H33.6578V41.1193H35.6578ZM26.7897 37.8138L34.1652 41.9895L35.1505 40.2491L27.7751 36.0734L26.7897 37.8138ZM26.2824 28.5997V36.9436H28.2824V28.5997H26.2824ZM36.0227 33.645L43.3981 29.4693L42.4128 27.7289L35.0373 31.9046L36.0227 33.645ZM36.53 41.1187V32.7748H34.53V41.1187H36.53ZM42.4128 36.0728L35.0373 40.2485L36.0227 41.9889L43.3981 37.8133L42.4128 36.0728ZM41.9054 28.5991V36.943H43.9054V28.5991H41.9054ZM26.7721 26.9855L19.3967 22.8098L18.4113 24.5503L25.7867 28.7259L26.7721 26.9855ZM19.3967 32.9016L26.7721 28.7259L25.7867 26.9855L18.4113 31.1612L19.3967 32.9016ZM11.0359 28.7259L18.4113 32.9016L19.3967 31.1612L12.0212 26.9855L11.0359 28.7259ZM18.4113 22.8098L11.0359 26.9855L12.0212 28.7259L19.3967 24.5503L18.4113 22.8098ZM10.5998 29.4699L17.9753 33.6456L18.9606 31.9051L11.5852 27.7295L10.5998 29.4699ZM12.0925 36.9436L12.0925 28.5997H10.0925L10.0925 36.9436H12.0925ZM18.9606 40.2491L11.5852 36.0734L10.5998 37.8138L17.9753 41.9895L18.9606 40.2491ZM17.468 32.7753V41.1193H19.468V32.7753H17.468ZM26.2229 27.7289L18.8474 31.9046L19.8328 33.645L27.2082 29.4693L26.2229 27.7289ZM27.7156 36.943L27.7156 28.5991H25.7156L25.7156 36.943H27.7156ZM19.8328 41.9889L27.2082 37.8132L26.2229 36.0728L18.8474 40.2485L19.8328 41.9889ZM18.3401 32.7748V41.1187H20.3401V32.7748H18.3401Z" fill="#2E3A45" mask="url(#path-3-inside-1_2050_35328)"/>
<circle cx="27" cy="27" r="26" stroke="#2E3A45"/>
</svg>
