<svg width="55" height="55" viewBox="0 0 55 55" fill="none" xmlns="http://www.w3.org/2000/svg">
<path d="M43.8961 29.6482C42.2496 34.7798 39.9986 32.5785 29.9459 29.3532C19.8932 26.1278 14.0381 20.8569 15.6846 15.7253C19.3306 10.7462 27.061 9.63786 31.3613 19.2204C38.2725 19.3882 44.8653 26.6271 43.8961 29.6482Z" fill="#AD673F"/>
<circle cx="27.52" cy="27.52" r="26.52" stroke="#2E3A45"/>
<path fill-rule="evenodd" clip-rule="evenodd" d="M27.6486 22.0537C31.2371 19.4254 36.2566 19.7708 39.4508 22.965L39.8901 23.4044C40.5821 24.0963 40.9396 25.0546 40.8698 26.0308C40.7371 27.8896 39.1225 29.2889 37.2637 29.1561L29.1044 28.5733C29.0749 28.5712 29.0456 28.5687 29.0162 28.5658C29.0895 28.9416 29.1552 29.3218 29.2161 29.7027L28.9098 31.1437C28.3215 33.9361 28.5062 36.8361 29.4441 39.5312L29.5831 39.9307C29.6382 40.0891 29.7034 40.2412 29.7775 40.3865C29.533 41.8224 28.5151 43.0342 27.0977 43.5067C25.6958 43.974 24.1804 43.2163 23.7131 41.8144L23.6557 41.6172L23.3281 40.3067C22.8581 38.4266 22.1038 36.6309 21.0927 34.981L20.7015 34.3693C19.4985 32.5647 18.7149 30.5136 18.4081 28.3666L17.7425 23.7068C17.5907 22.6449 17.7162 21.5955 18.0712 20.641L26.8909 21.7436C27.1236 21.7727 27.3565 21.7784 27.5863 21.7619L27.6486 22.0537ZM27.0977 22.4906C25.6458 23.7351 25.4777 25.921 26.7222 27.3729C27.3241 28.0752 28.1819 28.5074 29.1044 28.5733L37.2637 29.1561C39.1225 29.2889 40.7371 27.8896 40.8698 26.0308C40.9396 25.0546 40.5821 24.0963 39.8901 23.4044L39.4508 22.965C36.0895 19.6037 30.7069 19.397 27.0977 22.4906ZM29.4306 28.673L36.6592 29.2473C36.6278 29.504 36.5699 29.7612 36.484 30.0153L36.3355 30.4942C35.7457 32.5809 35.8533 34.8084 36.65 36.835L36.7792 37.1935C37.3574 39.0613 36.4667 41.0943 34.6612 41.9201L34.4595 42.0124C34.3572 42.0591 34.2528 42.1011 34.1466 42.138C32.2769 42.7887 30.2337 41.8004 29.5831 39.9307L29.4441 39.5312C28.5062 36.8361 28.3215 33.9361 28.9098 31.1437L29.4306 28.673ZM28.9901 14.8671L29.839 15.7159C31.2241 17.1011 31.2241 19.347 29.839 20.7321C29.7485 20.8226 29.6537 20.9076 29.5551 20.987C29.1109 21.1663 28.6784 21.3857 28.2615 21.6419C27.8222 21.7665 27.3564 21.8018 26.8909 21.7436L16.976 20.5043C14.9531 20.2514 13.5182 18.4065 13.7711 16.3836C13.8953 15.3899 14.4179 14.4893 15.2191 13.8885C19.4135 10.7427 25.2828 11.1598 28.9901 14.8671Z" stroke="black" stroke-linecap="round"/>
</svg>
