<svg width="54" height="54" viewBox="0 0 54 54" fill="none" xmlns="http://www.w3.org/2000/svg">
<path d="M25.1614 39.3263C15.8174 39.4198 8.18812 34.0564 8.12094 27.3466C8.05375 20.6369 15.5741 15.1217 24.9181 15.0281C34.2621 14.9346 17.3859 24.0709 17.4531 30.7807C17.5203 37.4904 34.5054 39.2327 25.1614 39.3263Z" fill="#FE907A"/>
<path d="M23.1012 10.75H34.8393C36.208 10.75 37.5206 11.2937 38.4884 12.2616C39.4563 13.2294 40 14.542 40 15.9108M40 15.9108H23.5059C20.5538 15.9108 17.7226 17.0834 15.6352 19.1709C13.5477 21.2584 12.375 24.0896 12.375 27.0417C12.375 29.9938 13.5477 32.825 15.6352 34.9124C17.7226 36.9999 20.5538 38.1727 23.5059 38.1727H38.4821V31.7976L29.6786 34.631C28.604 34.9954 27.4735 35.1667 26.3393 35.1369C25.0416 35.1372 23.7955 34.6287 22.8685 33.7206C21.9415 32.8125 21.4074 31.5772 21.3809 30.2797C21.3809 28.9647 21.9033 27.7036 22.8332 26.7737C23.7631 25.8438 25.0243 25.3215 26.3393 25.3215H30.5893C33.0851 25.3215 35.4788 24.3299 37.2437 22.5651C39.0085 20.8002 40 18.4066 40 15.9108Z" stroke="#2E3A45" stroke-linecap="round" stroke-linejoin="round"/>
<path d="M25.2266 15.916V25.4279" stroke="#2E3A45" stroke-linecap="round" stroke-linejoin="round"/>
<path d="M14.9043 19.9561L22.2912 27.3429" stroke="#2E3A45" stroke-linecap="round" stroke-linejoin="round"/>
<path d="M13.3867 31.6982H21.5831" stroke="#2E3A45" stroke-linecap="round" stroke-linejoin="round"/>
<path d="M26.9473 35.3398V38.1732" stroke="#2E3A45" stroke-linecap="round" stroke-linejoin="round"/>
<path d="M31.5067 19.3491C31.5067 19.7436 31.1869 20.0634 30.7924 20.0634C30.3979 20.0634 30.0781 19.7436 30.0781 19.3491C30.0781 18.9546 30.3979 18.6348 30.7924 18.6348C31.1869 18.6348 31.5067 18.9546 31.5067 19.3491Z" fill="black" stroke="#2E3A45"/>
<circle cx="27" cy="27" r="26" stroke="#2E3A45"/>
</svg>
