<svg width="54" height="54" viewBox="0 0 54 54" fill="none" xmlns="http://www.w3.org/2000/svg">
<path d="M10.9189 28.4732C12.8773 34.263 23.9251 42.6338 30.3936 40.446C36.8622 38.2581 30.3472 36.7994 28.3888 31.0096C26.4305 25.2197 30.5204 21.2611 24.0518 23.4489C17.5833 25.6368 8.96064 22.6834 10.9189 28.4732Z" fill="#7098D3"/>
<circle cx="27" cy="27" r="26" stroke="#2E3A45"/>
<path d="M40.2466 33.8537C39.6233 34.549 38.9043 35.152 38.1111 35.6447C36.3216 36.8937 34.2775 37.7303 32.1259 38.0944C29.9742 38.4586 27.7687 38.3411 25.6679 37.7506C23.5671 37.16 21.6233 36.111 19.9766 34.6791C18.3298 33.2473 17.021 31.4681 16.1444 29.4697C15.8548 28.8755 15.6429 28.2465 15.5139 27.5982L15.2432 26.6177C15.3321 26.5282 15.3315 26.3497 15.4205 26.2602C16.0288 24.9289 16.871 23.7176 17.9071 22.6837L18.4407 22.1467C18.6276 21.8119 18.8676 21.5099 19.1516 21.2523C21.3443 19.0311 24.1795 17.5553 27.2567 17.0333C26.7251 15.3571 25.8029 13.8312 24.5661 12.5811L23.9396 11.9586C25.3089 11.9167 26.6724 12.1541 27.9471 12.6562C29.2217 13.1583 30.3808 13.9146 31.3538 14.8791C32.0539 15.5649 32.6568 16.3434 33.1455 17.193C35.8232 17.8446 38.2675 19.2266 40.2062 21.1852C41.9952 22.9408 43.3203 25.1131 44.0626 27.5072C43.3214 29.8996 42.0121 32.0771 40.2466 33.8537Z" stroke="#2E3A45" stroke-linecap="round" stroke-linejoin="round"/>
<path d="M15.1496 26.5291L12.2126 28.7689L9.2762 31.187L9.26143 26.5479L9.24664 21.9087L12.1984 24.3081L15.1496 26.5291Z" stroke="#2E3A45" stroke-linecap="round" stroke-linejoin="round"/>
<path d="M33.2967 37.4438C30.7484 34.8648 29.3216 31.3838 29.3268 27.7582C29.3319 24.1326 30.7686 20.6557 33.3242 18.084" stroke="#2E3A45" stroke-linecap="round" stroke-linejoin="round"/>
<path d="M37.5462 26.1979C37.2006 26.5457 36.6384 26.5475 36.2906 26.2019C35.9428 25.8563 35.941 25.2941 36.2866 24.9463C36.6322 24.5985 37.1944 24.5967 37.5422 24.9423C37.8901 25.2879 37.8918 25.8501 37.5462 26.1979Z" fill="#2E3A45" stroke="#2E3A45"/>
</svg>
