<svg width="54" height="54" viewBox="0 0 54 54" fill="none" xmlns="http://www.w3.org/2000/svg">
<path d="M42.1655 37.9827C38.4237 43.882 30.8743 41.5465 23.5796 38.4079C16.2848 35.2694 24.339 32.4315 25.6927 30.6877C28.3952 27.2039 28.4178 13.2738 35.7126 16.4124C43.0073 19.551 45.9073 32.0833 42.1655 37.9827Z" fill="#E5674F"/>
<circle cx="27" cy="27" r="26" stroke="#2E3A45"/>
<path fill-rule="evenodd" clip-rule="evenodd" d="M20.7479 15.3803L21.7857 15.0838C25.2012 14.1079 28.8134 14.0477 32.2595 14.9093L33.6557 15.2583C36.9106 16.072 39.4838 18.5609 40.4055 21.7869L40.7932 23.1439C41.5075 25.6439 41.3711 28.3103 40.4055 30.7244L40.299 30.9908C39.5016 32.9841 37.6225 34.3224 35.4972 34.4399L35.192 34.4484C32.7813 34.4484 30.4425 35.2688 28.5601 36.7747L27.7441 37.4275C25.4514 39.2616 22.3353 39.6846 19.6367 38.5281L18.8066 38.1723C15.5776 36.7885 13.3252 33.7955 12.8895 30.3096L12.6421 28.3306C12.2931 25.5386 12.8901 22.7101 14.3378 20.2973C15.7735 17.9046 18.0649 16.1469 20.7479 15.3803ZM32.2595 14.9093L33.6557 15.2583C36.9106 16.072 39.4838 18.5609 40.4055 21.7869L40.7932 23.1439C40.8863 23.4696 40.9649 23.7981 41.0291 24.1285C40.8905 24.8524 40.682 25.5644 40.4055 26.2557L40.299 26.522C39.5016 28.5154 37.6225 29.8536 35.4972 29.9712L35.192 29.9796C32.7813 29.9796 30.4425 30.8 28.5601 32.306L27.7441 32.9588C25.4514 34.7929 22.3353 35.2159 19.6367 34.0593L18.8066 33.7036C15.5776 32.3197 13.3252 29.3267 12.8895 25.8408L12.7324 24.6066C12.9964 23.094 13.537 21.6321 14.3378 20.2973C15.7735 17.9046 18.0649 16.1469 20.7479 15.3803L21.7857 15.0838C25.2012 14.1079 28.8134 14.0477 32.2595 14.9093ZM41.0758 24.4764C39.6636 21.566 36.713 19.718 33.478 19.718H32.9948C29.2297 19.718 25.5473 18.6131 22.4041 16.5402L21.4506 15.9113C21.1846 15.7359 20.9138 15.5704 20.6386 15.4148L20.7479 15.3803L21.7857 15.0838C23.4935 14.5958 25.2504 14.3368 27.0111 14.3075L27.6715 14.3073C29.2124 14.3318 30.7518 14.5323 32.2595 14.9093L33.6557 15.2583C36.9106 16.072 39.4838 18.5609 40.4055 21.7869L40.7932 23.1439C40.9272 23.6127 41.0312 24.0873 41.1054 24.565L41.0993 24.5252C41.0915 24.5089 41.0837 24.4927 41.0758 24.4764ZM18.1147 24.9687C18.1147 26.2027 19.4485 27.2031 21.0939 27.2031C22.7392 27.2031 24.073 26.2027 24.073 24.9687C24.073 23.7347 22.7392 22.7343 21.0939 22.7343C19.4485 22.7343 18.1147 23.7347 18.1147 24.9687Z" stroke="#2E3A45" stroke-linecap="square"/>
</svg>
