<svg width="32" height="31" viewBox="0 0 32 31" fill="none" xmlns="http://www.w3.org/2000/svg">
<g clip-path="url(#clip0_1959_5215)">
<path d="M16.8131 26.7631C16.444 27.4898 16.0777 28.121 15.9981 28.163C15.92 28.205 15.5609 27.6158 15.2005 26.8543C14.5881 25.5573 14.5056 25.4516 13.8918 25.1896C12.8423 24.7408 12.3024 24.8161 11.1891 25.5616C9.75599 26.5214 9.52582 26.3592 9.68361 24.4962C9.77336 23.4307 9.77336 23.4307 9.04231 22.6504C8.30982 21.8702 8.30982 21.8702 6.87233 21.8702C4.96727 21.8702 4.96148 21.8615 5.88361 20.3574C6.65085 19.1081 6.65085 19.1081 6.36711 18.0644C6.08338 17.0207 6.08338 17.0207 4.78052 16.2968C3.25763 15.4514 3.25763 15.4051 4.7675 14.7117C6.71744 13.8171 7.06342 12.5475 5.87782 10.6309C4.94266 9.11955 4.97595 9.06598 6.78113 9.17745C8.94098 9.30918 9.70098 8.53037 9.70822 4.71589L11.0921 5.42522C12.4746 6.13456 12.4746 6.13456 13.2809 5.95939C14.3594 5.72488 14.4579 5.63368 15.9923 2.83398L16.7842 4.25265C17.576 5.67132 17.576 5.67132 18.5995 5.91452C19.623 6.15772 19.623 6.15772 20.8636 5.38469C22.3894 4.4336 22.4458 4.46979 22.317 6.29524C22.1635 8.44351 23.0364 9.29616 25.2614 9.16587C26.9682 9.06598 27.0536 9.22522 26.0779 10.6859C24.8691 12.4939 25.231 13.7114 27.278 14.7305C28.8877 15.5311 28.8877 15.4731 27.2664 16.3128C25.1731 17.3941 24.8706 18.5218 26.1517 20.4674C27.0724 21.8644 27.0261 21.931 25.2079 21.8253C23.0553 21.6994 22.1722 22.6041 22.3184 24.7828C22.4371 26.5228 22.359 26.572 20.9548 25.6557C18.9918 24.3717 17.8742 24.6699 16.8131 26.7631ZM8.61802 15.5613C8.61802 16.5206 8.80696 17.4704 9.17405 18.3567C9.54115 19.2429 10.0792 20.0482 10.7575 20.7265C11.4358 21.4048 12.2411 21.9429 13.1273 22.31C14.0136 22.6771 14.9634 22.866 15.9227 22.866C16.882 22.866 17.8318 22.6771 18.7181 22.31C19.6043 21.9429 20.4096 21.4048 21.0879 20.7265C21.7662 20.0482 22.3043 19.2429 22.6714 18.3567C23.0384 17.4704 23.2274 16.5206 23.2274 15.5613C23.2274 14.602 23.0384 13.6522 22.6714 12.7659C22.3043 11.8797 21.7662 11.0744 21.0879 10.3961C20.4096 9.71781 19.6043 9.17975 18.7181 8.81266C17.8318 8.44556 16.882 8.25662 15.9227 8.25662C14.9634 8.25662 14.0136 8.44556 13.1273 8.81266C12.2411 9.17975 11.4358 9.71781 10.7575 10.3961C10.0792 11.0744 9.54115 11.8797 9.17405 12.7659C8.80696 13.6522 8.61802 14.602 8.61802 15.5613Z" fill="#FFEEA3"/>
<path d="M8.62109 15.5625C8.62109 14.6032 8.81004 13.6534 9.17713 12.7671C9.54422 11.8809 10.0823 11.0756 10.7606 10.3973C11.4389 9.719 12.2442 9.18094 13.1304 8.81385C14.0166 8.44675 14.9665 8.25781 15.9258 8.25781C16.885 8.25781 17.8349 8.44675 18.7212 8.81385C19.6074 9.18094 20.4127 9.719 21.091 10.3973C21.7693 11.0756 22.3073 11.8809 22.6744 12.7671C23.0415 13.6534 23.2305 14.6032 23.2305 15.5625C23.2305 16.5218 23.0415 17.4716 22.6744 18.3579C22.3073 19.2441 21.7693 20.0494 21.091 20.7277C20.4127 21.406 19.6074 21.9441 18.7212 22.3111C17.8349 22.6782 16.885 22.8672 15.9258 22.8672C14.9665 22.8672 14.0166 22.6782 13.1304 22.3111C12.2442 21.9441 11.4389 21.406 10.7606 20.7277C10.0823 20.0494 9.54422 19.2441 9.17713 18.3579C8.81004 17.4716 8.62109 16.5218 8.62109 15.5625Z" fill="#F7CD85"/>
<path d="M10.9189 26.2702C9.16298 27.424 9.19627 27.4428 9.19627 25.283C9.19627 22.6411 8.7866 22.227 6.22142 22.2835C4.05578 22.3298 4.06446 22.3443 5.22256 20.5985C6.70347 18.3648 6.52831 17.7698 3.96892 16.3439L2.46484 15.5057C6.53121 13.2808 6.70492 12.6438 5.20953 10.3768C4.07315 8.65416 4.06736 8.6643 6.20549 8.71352C7.98172 8.7555 8.19018 8.69325 8.86766 7.92312C9.30195 7.42803 9.30195 7.42803 9.23246 5.76761C9.13982 3.54407 9.13258 3.54841 10.9045 4.72388C13.0889 6.17439 13.9343 5.95725 15.0171 3.67146C15.9624 1.67809 15.9711 1.67809 17.0438 3.63527C17.9544 5.29424 17.9544 5.29424 18.7752 5.5027C19.596 5.7126 19.596 5.7126 21.0725 4.73401C22.8763 3.53828 22.869 3.53393 22.7677 5.77919C22.6939 7.44685 22.6939 7.44685 23.3163 8.10552C23.9388 8.76418 23.9388 8.76418 25.676 8.7222C27.9502 8.66574 27.9386 8.64837 26.7935 10.3783C25.3155 12.6091 25.4805 13.2576 27.83 14.475C29.7684 15.4782 29.7698 15.5231 27.9053 16.4756C25.5051 17.7032 25.3184 18.3793 26.7718 20.584C27.9371 22.353 27.9502 22.3313 25.7107 22.2835C23.0731 22.227 22.6287 22.6367 22.7634 24.9978C22.9023 27.466 22.9298 27.4443 21.1565 26.3035C19.567 25.2801 19.3571 25.2236 18.4451 25.5595C17.908 25.7563 17.785 25.9127 16.9599 27.4414C16.4648 28.3577 16.0146 29.1076 15.9581 29.1076C15.9016 29.1076 15.5007 28.3968 15.0664 27.5282C13.7925 24.9775 13.1729 24.7893 10.9189 26.2702ZM16.8136 26.7624C17.8747 24.6692 18.9923 24.371 20.9553 25.655C22.3595 26.5713 22.4376 26.5221 22.3189 24.7821C22.1727 22.6034 23.0558 21.6987 25.2084 21.8246C27.0266 21.9303 27.0729 21.8637 26.1522 20.4667C24.8711 18.5211 25.1736 17.3934 27.2669 16.3121C28.8882 15.4724 28.8882 15.5304 27.2785 14.7298C25.2315 13.7107 24.8696 12.4932 26.0784 10.6852C27.0541 9.22452 26.9687 9.06529 25.2619 9.16517C23.037 9.29546 22.164 8.44281 22.3175 6.29454C22.4463 4.4691 22.3899 4.43291 20.8641 5.38399C19.6235 6.15702 19.6235 6.15702 18.6 5.91382C17.5765 5.67062 17.5765 5.67062 16.7847 4.25195L15.9928 2.83329C14.4584 5.63298 14.3599 5.72418 13.2815 5.9587C12.4751 6.13386 12.4751 6.13386 11.0927 5.42453L9.70873 4.71519C9.70149 8.52967 8.94149 9.30849 6.78164 9.17675C4.97646 9.06529 4.94317 9.11885 5.87833 10.6302C7.06393 12.5468 6.71795 13.8164 4.76801 14.711C3.25814 15.4044 3.25814 15.4507 4.78103 16.2961C6.08389 17.02 6.08389 17.02 6.36762 18.0637C6.65136 19.1074 6.65136 19.1074 5.88412 20.3567C4.96199 21.8608 4.96778 21.8695 6.87284 21.8695C8.31033 21.8695 8.31033 21.8695 9.04282 22.6497C9.77387 23.43 9.77387 23.43 9.68412 24.4955C9.52633 26.3585 9.7565 26.5207 11.1896 25.5609C12.3029 24.8154 12.8428 24.7401 13.8923 25.1889C14.5061 25.4509 14.5887 25.5566 15.201 26.8536C15.5615 27.6151 15.9205 28.2043 15.9986 28.1623C16.0783 28.1203 16.4445 27.4891 16.8136 26.7624Z" fill="#F7CD85"/>
</g>
<defs>
<clipPath id="clip0_1959_5215">
<rect width="30.4" height="30.4" fill="white" transform="translate(0.800781 0.300781)"/>
</clipPath>
</defs>
</svg>
