<svg width="29" height="28" viewBox="0 0 29 28" fill="none" xmlns="http://www.w3.org/2000/svg">
<g clip-path="url(#clip0_1838_34535)">
<path d="M6.16797 19.6093L11.0998 19.4552L11.3782 19.5646C12.9039 20.1609 17.0259 19.6616 18.2955 18.7263C19.1673 18.0837 19.3152 18.1115 19.4202 18.9312C19.4966 19.5322 19.4966 19.5322 20.168 18.6847L20.4862 18.5306L21.0032 18.4012C22.4048 18.0514 23.2464 17.4211 23.3021 16.6815C23.3307 16.3009 23.5121 15.1329 23.7046 14.0866C24.4046 10.2835 23.0587 5.89497 20.6452 5.89497C20.5212 5.35719 20.378 4.87179 20.2475 4.46961L20.0089 3.73767L20.3668 3.59436C20.5641 3.51578 20.8505 3.41099 21.2816 3.27539C24.1309 5.87648 25.4737 8.01067 25.7759 9.47764L25.8952 10.0555L25.8077 11.5579C25.6089 14.9526 25.4896 15.4703 24.4523 17.4227C22.268 21.54 20.0709 23.3476 17.9359 22.782C16.9082 22.5108 16.6791 22.5031 14.9132 22.6865C11.9716 22.9931 9.94001 22.4538 6.16797 19.6093ZM17.4634 20.8959C17.4634 21.107 17.6066 21.4938 17.7816 21.7542C17.9566 22.0147 18.208 22.2288 18.3384 22.2288C18.4705 22.2288 18.5691 22.1764 18.558 22.1133C18.5484 22.0501 18.5548 21.9284 18.5755 21.8436C18.5946 21.7589 18.6025 21.2966 18.593 20.8143C18.5834 20.3335 18.6502 19.7526 18.7393 19.5214C18.9668 18.9436 18.8857 18.922 17.9152 19.3103C16.5868 19.8404 16.4866 19.9452 17.018 20.2534C17.3155 20.4259 17.4634 20.6401 17.4634 20.8959Z" fill="#FFD288"/>
<path d="M6.17005 19.6104C9.9421 22.455 11.9737 22.9943 14.9153 22.6877C16.6812 22.5043 16.9103 22.512 17.938 22.7832C20.073 23.3487 22.2701 21.5412 24.4544 17.4238C25.4916 15.4715 25.611 14.9537 25.8098 11.559L25.8973 10.0566C26.8789 12.969 26.0214 17.0663 24.2682 19.6875C19.6037 26.6648 8.82846 27.0747 4.0271 20.4579C2.75119 18.6997 2.83392 18.6088 5.09619 19.2884L6.17005 19.6104Z" fill="#FBC067"/>
<path d="M17.4652 20.8955C17.4652 20.6397 17.3172 20.4255 17.0197 20.2529C16.4884 19.9447 16.5886 19.84 17.917 19.3099C18.8875 18.9216 18.9686 18.9431 18.7411 19.521C18.652 19.7521 18.5852 20.3331 18.5947 20.8138C18.6043 21.2961 18.5963 21.7584 18.5772 21.8432C18.5566 21.9279 18.5502 22.0497 18.5597 22.1128C18.5709 22.176 18.4722 22.2284 18.3402 22.2284C18.2097 22.2284 17.9584 22.0142 17.7834 21.7538C17.6084 21.4934 17.4652 21.1066 17.4652 20.8955ZM11.1016 19.4547C14.5316 18.1634 16.5902 16.6764 18.1143 14.9475L18.897 14.0615L19.7322 14.177C20.48 14.2803 20.6772 14.3974 21.6222 15.2942C23.0604 16.6595 23.1129 16.5639 23.1129 12.5853C23.1129 9.19983 22.6961 7.75289 21.5316 7.1057C21.2468 6.94699 20.9318 6.64496 20.647 6.04862V5.89453C23.0604 5.89453 24.4063 10.2831 23.7063 14.0861C23.5138 15.1324 23.3325 16.3004 23.3038 16.681C23.2482 17.4207 22.4066 18.0509 21.005 18.4007L20.4879 18.5302L20.5309 18.3375C20.5532 18.2312 20.7107 18.0247 20.8793 17.8784C21.0479 17.732 21.1291 17.5594 21.0622 17.4931C20.9063 17.3421 19.9407 18.3761 20.1697 18.6843C19.4984 19.5318 19.4984 19.5318 19.422 18.9308C19.317 18.111 19.1691 18.0833 18.2972 18.7259C17.0277 19.6612 12.9057 20.1605 11.38 19.5641L11.1016 19.4547Z" fill="#FFE6A3"/>
<path d="M18.8984 14.0617C20.2778 11.1154 20.7009 9.07522 20.6691 7.24305L20.6484 6.04883C20.9332 6.64517 21.2482 6.94719 21.533 7.10591C22.6975 7.7531 23.1143 9.20003 23.1143 12.5855C23.1143 16.5641 23.0618 16.6597 21.6237 15.2944C20.6787 14.3976 20.4814 14.2805 19.7337 14.1772L18.8984 14.0617Z" fill="#FEEFC0"/>
<path d="M20.0092 3.73813C19.4333 2.08625 19.5415 2.03848 20.4865 2.71033L21.2819 3.27585C20.8508 3.41145 20.5644 3.51623 20.3672 3.59482L20.0092 3.73813Z" fill="#FBC067"/>
<path d="M20.4899 18.5305L20.1717 18.6846C19.9426 18.3764 20.9083 17.3425 21.0642 17.4935C21.131 17.5597 21.0499 17.7323 20.8812 17.8787C20.7126 18.0251 20.5551 18.2316 20.5328 18.3379L20.4899 18.5305Z" fill="#FEEFC0"/>
</g>
<defs>
<clipPath id="clip0_1838_34535">
<rect width="28" height="27.4286" fill="white" transform="translate(0.601562 0.501953)"/>
</clipPath>
</defs>
</svg>
