<svg width="50" height="50" viewBox="0 0 50 50" fill="none" xmlns="http://www.w3.org/2000/svg">
<g clip-path="url(#clip0_1665_19297)">
<circle cx="25" cy="25" r="25" fill="#AEDADE"/>
<path d="M24.9986 7.9541C15.5997 7.9541 7.95312 15.6007 7.95312 24.9996V32.0615C7.95312 33.8069 9.4821 35.2268 11.3622 35.2268H13.0668C13.5188 35.2268 13.9524 35.0472 14.2721 34.7276C14.5917 34.4079 14.7713 33.9744 14.7713 33.5223V24.7558C14.7713 24.3037 14.5917 23.8702 14.2721 23.5505C13.9524 23.2308 13.5188 23.0513 13.0668 23.0513H11.519C12.4668 16.4547 18.1429 11.3632 24.9986 11.3632C31.8543 11.3632 37.5304 16.4547 38.4781 23.0513H36.9304C36.4783 23.0513 36.0448 23.2308 35.7251 23.5505C35.4054 23.8702 35.2259 24.3037 35.2259 24.7558V35.2268C35.2259 37.1069 33.6969 38.6359 31.8168 38.6359H28.4077V36.9314H21.5895V42.045H31.8168C35.577 42.045 38.6349 38.9871 38.6349 35.2268C40.5151 35.2268 42.044 33.8069 42.044 32.0615V24.9996C42.044 15.6007 34.3974 7.9541 24.9986 7.9541Z" fill="#F7F4E8"/>
</g>
<defs>
<clipPath id="clip0_1665_19297">
<rect width="50" height="50" fill="white"/>
</clipPath>
</defs>
</svg>
