<svg width="50" height="50" viewBox="0 0 50 50" fill="none" xmlns="http://www.w3.org/2000/svg">
<circle cx="25" cy="25" r="25" fill="#E2DD01"/>
<path d="M21.7286 28.5234C22.5097 28.5234 23.1429 29.1499 23.1429 29.9227V33.6542C23.1429 34.427 22.5097 35.0535 21.7286 35.0535C20.9475 35.0535 20.3143 34.427 20.3143 33.6542V29.9227C20.3143 29.1499 20.9475 28.5234 21.7286 28.5234Z" fill="#2E3A45"/>
<path d="M30.6857 29.9227C30.6857 29.1499 30.0525 28.5234 29.2714 28.5234C28.4903 28.5234 27.8571 29.1499 27.8571 29.9227V33.6542C27.8571 34.427 28.4903 35.0535 29.2714 35.0535C30.0525 35.0535 30.6857 34.427 30.6857 33.6542V29.9227Z" fill="#2E3A45"/>
<path fill-rule="evenodd" clip-rule="evenodd" d="M21.0677 10.0992C21.4582 9.42992 21.2264 8.57411 20.55 8.18771C19.8736 7.8013 19.0086 8.03061 18.618 8.69989L14.8466 15.163C14.7901 15.2598 14.7466 15.3606 14.7157 15.4632H14.1857C11.3217 15.4632 9 17.7603 9 20.594C9 22.1969 9.74291 23.6282 10.9066 24.569L12.1643 33.1229L13.0067 37.0282C13.5115 39.3681 15.442 41.1453 17.8371 41.4751C22.9212 42.175 28.0788 42.175 33.1629 41.4751C35.558 41.1453 37.4885 39.3681 37.9933 37.0282L38.8357 33.1229L40.0934 24.569C41.2571 23.6282 42 22.1969 42 20.594C42 17.7603 39.6783 15.4632 36.8143 15.4632H36.2843C36.2534 15.3606 36.2099 15.2598 36.1534 15.163L32.382 8.69989C31.9914 8.03061 31.1264 7.8013 30.45 8.18771C29.7736 8.57411 29.5418 9.42992 29.9323 10.0992L33.0624 15.4632H17.9376L21.0677 10.0992ZM37.066 25.7189C36.9826 25.7228 36.8987 25.7248 36.8143 25.7248H14.1857C14.1013 25.7248 14.0174 25.7228 13.934 25.7189L14.95 32.6289L15.773 36.444C16.0294 37.6327 17.0102 38.5356 18.227 38.7032C23.0524 39.3675 27.9476 39.3675 32.7731 38.7032C33.9898 38.5356 34.9706 37.6327 35.227 36.444L36.05 32.6289L37.066 25.7189ZM11.8286 20.594C11.8286 19.306 12.8839 18.2618 14.1857 18.2618H36.8143C38.1161 18.2618 39.1714 19.306 39.1714 20.594C39.1714 21.882 38.1161 22.9262 36.8143 22.9262H14.1857C12.8839 22.9262 11.8286 21.882 11.8286 20.594Z" fill="#2E3A45"/>
</svg>
