<svg width="50" height="50" viewBox="0 0 50 50" fill="none" xmlns="http://www.w3.org/2000/svg">
<circle cx="25" cy="25" r="25" fill="#E2DD01"/>
<g clip-path="url(#clip0_703_1884)">
<path d="M37.0007 24H26.0007V13C26.0007 12.7348 25.8953 12.4804 25.7078 12.2929C25.5202 12.1054 25.2659 12 25.0007 12C24.7354 12 24.4811 12.1054 24.2935 12.2929C24.106 12.4804 24.0007 12.7348 24.0007 13V24H13.0007C12.7354 24 12.4811 24.1054 12.2935 24.2929C12.106 24.4804 12.0007 24.7348 12.0007 25C11.9957 25.13 12.0187 25.2595 12.0681 25.3798C12.1174 25.5001 12.192 25.6085 12.2867 25.6976C12.3815 25.7867 12.4943 25.8544 12.6174 25.8962C12.7406 25.938 12.8712 25.953 13.0007 25.94H24.0007V37C24.0007 37.2652 24.106 37.5196 24.2935 37.7071C24.4811 37.8946 24.7354 38 25.0007 38C25.2659 38 25.5202 37.8946 25.7078 37.7071C25.8953 37.5196 26.0007 37.2652 26.0007 37V26H37.0007C37.2659 26 37.5202 25.8946 37.7078 25.7071C37.8953 25.5196 38.0007 25.2652 38.0007 25C38.0007 24.7348 37.8953 24.4804 37.7078 24.2929C37.5202 24.1054 37.2659 24 37.0007 24Z" fill="#2E3A45"/>
</g>
<defs>
<clipPath id="clip0_703_1884">
<rect width="36" height="36" fill="white" transform="translate(7 7)"/>
</clipPath>
</defs>
</svg>
