<svg width="50" height="50" viewBox="0 0 50 50" fill="none" xmlns="http://www.w3.org/2000/svg">
<circle cx="25" cy="25" r="25" fill="#E2DD01"/>
<path d="M21.5626 30.1118C18.8951 30.1118 16.6342 29.1857 14.7798 27.3334C12.9266 25.4823 12 23.2231 12 20.5559C12 17.8887 12.9266 15.629 14.7798 13.7767C16.6331 11.9245 18.894 10.9989 21.5626 11C24.2312 11.0011 26.4916 11.9272 28.3437 13.7784C30.1958 15.6295 31.1224 17.8887 31.1235 20.5559C31.1235 21.7144 30.9183 22.8356 30.5078 23.9196C30.0974 25.0036 29.5578 25.9309 28.8893 26.7014L38.7489 36.5524C38.9046 36.7081 38.9881 36.8999 38.9992 37.1278C39.0092 37.3535 38.9258 37.5553 38.7489 37.7332C38.5709 37.9111 38.374 38 38.1582 38C37.9424 38 37.7455 37.9111 37.5676 37.7332L27.7096 27.8804C26.8753 28.5909 25.9159 29.1406 24.8313 29.5298C23.7468 29.9189 22.6566 30.1135 21.5609 30.1135M21.5609 28.4458C23.7746 28.4458 25.6439 27.6842 27.169 26.161C28.693 24.6379 29.455 22.7695 29.455 20.5559C29.455 18.3423 28.6935 16.4745 27.1707 14.9524C25.6478 13.4304 23.779 12.6688 21.5643 12.6677C19.3495 12.6677 17.4802 13.4293 15.9562 14.9524C14.4322 16.4756 13.6697 18.3434 13.6686 20.5559C13.6675 22.7684 14.4294 24.6362 15.9545 26.1594C17.4796 27.6825 19.3484 28.4441 21.5609 28.4441" fill="#2E3A45"/>
</svg>
