<svg width="24" height="24" viewBox="0 0 24 24" fill="none" xmlns="http://www.w3.org/2000/svg">
<path d="M22.7546 21.1874L13.431 11.7356L22.8828 2.41194C23.1107 2.18714 23.2399 1.88102 23.2421 1.56092C23.2443 1.24082 23.1192 0.932968 22.8944 0.705079C22.6696 0.47719 22.3635 0.347936 22.0434 0.34575C21.7233 0.343565 21.4155 0.46863 21.1876 0.693429L11.7358 10.0171L2.41208 0.565273C2.18728 0.337384 1.88116 0.208129 1.56106 0.205945C1.24097 0.20376 0.933108 0.328824 0.705219 0.553623C0.589363 0.659542 0.497557 0.789065 0.435989 0.933463C0.37442 1.07786 0.344518 1.23378 0.3483 1.39071C0.352083 1.54764 0.38946 1.70193 0.457912 1.8432C0.526363 1.98446 0.6243 2.10941 0.745123 2.20963L10.0688 11.6615L0.565414 21.036C0.337525 21.2608 0.208268 21.5669 0.206084 21.887C0.2039 22.2071 0.328964 22.5149 0.553763 22.7428C0.778563 22.9707 1.08468 23.1 1.40478 23.1022C1.72488 23.1044 2.03274 22.9793 2.26063 22.7545L11.7124 13.4308L21.0361 22.8826C21.2609 23.1105 21.567 23.2398 21.8871 23.242C22.2072 23.2442 22.5151 23.1191 22.743 22.8943C22.9709 22.6695 23.1001 22.3634 23.1023 22.0433C23.1045 21.7232 22.9794 21.4153 22.7546 21.1874Z" fill="#2E3A45"/>
</svg>
