<svg width="34" height="34" viewBox="0 0 34 34" fill="none" xmlns="http://www.w3.org/2000/svg">
<circle cx="17" cy="17" r="16" stroke="#2E3A45"/>
<path d="M11.2 9.77402C11.2859 11.6078 11.253 12.5083 12.972 14.1981C14.691 15.888 15.9451 15.8793 17.425 15.8934C17.6078 14.4781 17.4068 13.4527 15.6878 11.7629C13.9689 10.0731 13.4187 9.89686 11.2 9.77402Z" fill="#F7F4E8" stroke="#F7F4E8"/>
<path d="M23.4996 9.96937C23.474 11.8014 23.5365 12.7034 21.8722 14.3387C20.2078 15.9739 18.9528 15.9248 17.4725 15.8912C17.2431 14.4692 17.4105 13.4498 19.0748 11.8145C20.7392 10.1793 21.2839 10.0207 23.4996 9.96937Z" fill="#F7F4E8" stroke="#F7F4E8"/>
<path d="M11.2782 14.6158C11.364 16.4496 11.3311 17.3501 13.0501 19.0399C14.7691 20.7298 16.0232 20.7211 17.5032 20.7352C17.686 19.3199 17.485 18.2945 15.766 16.6047C14.047 14.9149 13.4968 14.7387 11.2782 14.6158Z" fill="#F7F4E8" stroke="#F7F4E8"/>
<path d="M23.5778 14.8151C23.5522 16.6471 23.6147 17.5491 21.9503 19.1844C20.286 20.8196 19.0309 20.7705 17.5506 20.7369C17.3212 19.3149 17.4886 18.2955 19.153 16.6602C20.8173 15.025 21.362 14.8664 23.5778 14.8151Z" fill="#F7F4E8" stroke="#F7F4E8"/>
<path d="M11.3602 19.44C11.446 21.2739 11.4131 22.1743 13.1321 23.8641C14.8511 25.554 16.1052 25.5453 17.5852 25.5594C17.768 24.1441 17.567 23.1187 15.848 21.4289C14.129 19.7391 13.5788 19.5629 11.3602 19.44Z" fill="#F7F4E8" stroke="#F7F4E8"/>
<path d="M23.6637 19.6393C23.6381 21.4713 23.7006 22.3733 22.0362 24.0086C20.3719 25.6439 19.1169 25.5947 17.6366 25.5611C17.4071 24.1391 17.5745 23.1197 19.2389 21.4845C20.9032 19.8492 21.4479 19.6906 23.6637 19.6393Z" fill="#F7F4E8" stroke="#F7F4E8"/>
<path d="M17.0299 4.50849C15.7198 5.83783 14.7089 6.30086 14.7459 8.55862C14.783 10.8164 16.0737 11.7568 17.1861 12.6988C18.3862 11.8296 19.4853 10.8922 19.4482 8.63444C19.4111 6.37668 18.6213 5.99123 17.0299 4.50849Z" fill="#F7F4E8" stroke="#F7F4E8"/>
<path d="M17.8749 12.4923L17.8666 11.9924L16.8668 11.9765L16.8751 12.4764L17.8749 12.4923ZM17.1475 28.8759C17.1521 29.152 17.3797 29.3794 17.6558 29.3838C17.9319 29.3882 18.152 29.168 18.1474 28.8919L17.1475 28.8759ZM16.8751 12.4764L17.1475 28.8759L18.1474 28.8919L17.8749 12.4923L16.8751 12.4764Z" fill="#F7F4E8"/>
<rect x="12" y="11" width="10" height="12" fill="#F7F4E8"/>
<path d="M11.2 9.77402C11.2859 11.6078 11.253 12.5083 12.972 14.1981C14.691 15.888 15.9451 15.8793 17.425 15.8934C17.6078 14.4781 17.4068 13.4527 15.6878 11.7629C13.9689 10.0731 13.4187 9.89686 11.2 9.77402Z" fill="#F7F4E8" stroke="#2E3A45"/>
<path d="M23.4996 9.96937C23.474 11.8014 23.5365 12.7034 21.8722 14.3387C20.2078 15.9739 18.9528 15.9248 17.4725 15.8912C17.2431 14.4692 17.4105 13.4498 19.0748 11.8145C20.7392 10.1793 21.2839 10.0207 23.4996 9.96937Z" fill="#F7F4E8" stroke="#2E3A45"/>
<path d="M11.2782 14.6158C11.364 16.4496 11.3311 17.3501 13.0501 19.0399C14.7691 20.7298 16.0232 20.7211 17.5032 20.7352C17.686 19.3199 17.485 18.2945 15.766 16.6047C14.047 14.9149 13.4968 14.7387 11.2782 14.6158Z" fill="#F7F4E8" stroke="#2E3A45"/>
<path d="M23.5778 14.8151C23.5522 16.6471 23.6147 17.5491 21.9503 19.1844C20.286 20.8196 19.0309 20.7705 17.5506 20.7369C17.3212 19.3149 17.4886 18.2955 19.153 16.6602C20.8173 15.025 21.362 14.8664 23.5778 14.8151Z" fill="#F7F4E8" stroke="#2E3A45"/>
<path d="M11.3602 19.44C11.446 21.2739 11.4131 22.1743 13.1321 23.8641C14.8511 25.554 16.1052 25.5453 17.5852 25.5594C17.768 24.1441 17.567 23.1187 15.848 21.4289C14.129 19.7391 13.5788 19.5629 11.3602 19.44Z" fill="#F7F4E8" stroke="#2E3A45"/>
<path d="M23.6637 19.6393C23.6381 21.4713 23.7006 22.3733 22.0362 24.0086C20.3719 25.6439 19.1169 25.5947 17.6366 25.5611C17.4071 24.1391 17.5745 23.1197 19.2389 21.4845C20.9032 19.8492 21.4479 19.6906 23.6637 19.6393Z" fill="#F7F4E8" stroke="#2E3A45"/>
<path d="M17.0299 4.50849C15.7198 5.83783 14.7089 6.30086 14.7459 8.55862C14.783 10.8164 16.0737 11.7568 17.1861 12.6988C18.3862 11.8296 19.4853 10.8922 19.4482 8.63444C19.4111 6.37668 18.6213 5.99123 17.0299 4.50849Z" fill="#F7F4E8" stroke="#2E3A45"/>
<path d="M17.8749 12.4923L17.8666 11.9924L16.8668 11.9765L16.8751 12.4764L17.8749 12.4923ZM17.1475 28.8759C17.1521 29.152 17.3797 29.3794 17.6558 29.3838C17.9319 29.3882 18.152 29.168 18.1474 28.8919L17.1475 28.8759ZM16.8751 12.4764L17.1475 28.8759L18.1474 28.8919L17.8749 12.4923L16.8751 12.4764Z" fill="#2E3A45"/>
</svg>
