<svg width="34" height="34" viewBox="0 0 34 34" fill="none" xmlns="http://www.w3.org/2000/svg">
<path d="M6 6L28 28" stroke="#2E3A45" stroke-linecap="round"/>
<circle cx="17" cy="17" r="16" stroke="#2E3A45"/>
<rect x="10" y="11" width="13" height="9" fill="#F7F4E8"/>
<path fill-rule="evenodd" clip-rule="evenodd" d="M13.1535 9.84941L13.7921 9.66694C15.894 9.06641 18.1168 9.02937 20.2375 9.55955L21.0967 9.77434C23.0997 10.2751 24.6832 11.8067 25.2504 13.7919L25.489 14.627C25.9286 16.1655 25.8447 17.8064 25.2504 19.2919L25.1849 19.4558C24.6942 20.6825 23.5378 21.5061 22.2299 21.5784L22.0421 21.5836C20.5586 21.5836 19.1193 22.0885 17.961 23.0152L17.4588 23.4169C16.0479 24.5456 14.1303 24.8059 12.4696 24.0942L11.9588 23.8753C9.97173 23.0237 8.58564 21.1818 8.3175 19.0367L8.16527 17.8188C7.95049 16.1006 8.31791 14.3601 9.20878 12.8753C10.0923 11.4028 11.5024 10.3212 13.1535 9.84941ZM20.2375 9.55955L21.0967 9.77434C23.0997 10.2751 24.6832 11.8067 25.2504 13.7919L25.489 14.627C25.5463 14.8275 25.5947 15.0296 25.6342 15.2329C25.5489 15.6784 25.4206 16.1165 25.2504 16.5419L25.1849 16.7058C24.6942 17.9325 23.5378 18.7561 22.2299 18.8284L22.0421 18.8336C20.5586 18.8336 19.1193 19.3385 17.961 20.2652L17.4588 20.6669C16.0479 21.7956 14.1303 22.0559 12.4696 21.3442L11.9588 21.1253C9.97173 20.2737 8.58564 18.4318 8.3175 16.2867L8.22082 15.5272C8.38332 14.5963 8.71595 13.6967 9.20878 12.8753C10.0923 11.4028 11.5024 10.3212 13.1535 9.84941L13.7921 9.66694C15.894 9.06641 18.1168 9.02937 20.2375 9.55955ZM25.6629 15.447C24.7939 13.656 22.9781 12.5188 20.9874 12.5188H20.69C18.373 12.5188 16.1069 11.8388 14.1727 10.5632L13.5859 10.1762C13.4222 10.0683 13.2556 9.96641 13.0862 9.87064L13.1535 9.84941L13.7921 9.66694C14.843 9.36668 15.9242 9.20728 17.0078 9.18923L17.4141 9.18909C18.3624 9.20421 19.3097 9.3276 20.2375 9.55955L21.0967 9.77434C23.0997 10.2751 24.6832 11.8067 25.2504 13.7919L25.489 14.627C25.5715 14.9155 25.6355 15.2076 25.6812 15.5015L25.6774 15.477C25.6726 15.467 25.6678 15.457 25.6629 15.447ZM11.533 15.75C11.533 16.5094 12.3538 17.125 13.3664 17.125C14.3789 17.125 15.1997 16.5094 15.1997 15.75C15.1997 14.9906 14.3789 14.375 13.3664 14.375C12.3538 14.375 11.533 14.9906 11.533 15.75Z" fill="#F7F4E8" stroke="#2E3A45" stroke-linecap="square"/>
</svg>
