<svg width="34" height="34" viewBox="0 0 34 34" fill="none" xmlns="http://www.w3.org/2000/svg">
<circle cx="17" cy="17" r="16" stroke="#2E3A45"/>
<path d="M6 6L28 28" stroke="#2E3A45" stroke-linecap="round"/>
<path d="M14.6007 8H21.8242C22.6665 8 23.4742 8.33461 24.0698 8.93019C24.6654 9.52577 25 10.3336 25 11.1758H14.8498C13.0331 11.1758 11.2908 11.8975 10.0063 13.1821C8.72167 14.4667 8 16.209 8 18.0257C8 19.8423 8.72167 21.5846 10.0063 22.8692C11.2908 24.1538 13.0331 24.8755 14.8498 24.8755H24.0659V20.9524L18.6483 22.696C17.9871 22.9202 17.2914 23.0256 16.5934 23.0073C15.7948 23.0075 15.028 22.6946 14.4575 22.1358C13.8871 21.5769 13.5584 20.8167 13.5421 20.0183C13.5421 19.2091 13.8636 18.433 14.4358 17.8607C15.008 17.2885 15.7842 16.967 16.5934 16.967H19.2088C20.7447 16.967 22.2177 16.3569 23.3038 15.2708C24.3899 14.1848 25 12.7118 25 11.1758" fill="#F7F4E8"/>
<path d="M14.6007 8H21.8242C22.6665 8 23.4742 8.33461 24.0698 8.93019C24.6654 9.52577 25 10.3336 25 11.1758M25 11.1758H14.8498C13.0331 11.1758 11.2908 11.8975 10.0063 13.1821C8.72167 14.4667 8 16.209 8 18.0257C8 19.8423 8.72167 21.5846 10.0063 22.8692C11.2908 24.1538 13.0331 24.8755 14.8498 24.8755H24.0659V20.9524L18.6483 22.696C17.9871 22.9202 17.2914 23.0256 16.5934 23.0073C15.7948 23.0075 15.028 22.6946 14.4575 22.1358C13.8871 21.5769 13.5584 20.8167 13.5421 20.0183C13.5421 19.2091 13.8636 18.433 14.4358 17.8607C15.008 17.2885 15.7842 16.967 16.5934 16.967H19.2088C20.7447 16.967 22.2177 16.3569 23.3038 15.2708C24.3899 14.1848 25 12.7118 25 11.1758Z" stroke="#2E3A45" stroke-linecap="round" stroke-linejoin="round"/>
<path d="M15.9102 11.1797V17.0331" stroke="#2E3A45" stroke-linecap="round" stroke-linejoin="round"/>
<path d="M9.55859 13.666L14.1044 18.2118" stroke="#2E3A45" stroke-linecap="round" stroke-linejoin="round"/>
<path d="M8.62109 20.8906H13.665" stroke="#2E3A45" stroke-linecap="round" stroke-linejoin="round"/>
<path d="M16.9688 23.1328V24.8764" stroke="#2E3A45" stroke-linecap="round" stroke-linejoin="round"/>
<path d="M19.5805 13.2922C19.5805 13.4287 19.4698 13.5394 19.3332 13.5394C19.1966 13.5394 19.0859 13.4287 19.0859 13.2922C19.0859 13.1556 19.1966 13.0449 19.3332 13.0449C19.4698 13.0449 19.5805 13.1556 19.5805 13.2922Z" fill="#2E3A45" stroke="#2E3A45"/>
</svg>
