<svg width="34" height="34" viewBox="0 0 34 34" fill="none" xmlns="http://www.w3.org/2000/svg">
<path d="M14.6007 7H21.8242C22.6665 7 23.4742 7.33461 24.0698 7.93019C24.6654 8.52577 25 9.33357 25 10.1758M25 10.1758H14.8498C13.0331 10.1758 11.2908 10.8975 10.0063 12.1821C8.72167 13.4667 8 15.209 8 17.0257C8 18.8423 8.72167 20.5846 10.0063 21.8692C11.2908 23.1538 13.0331 23.8755 14.8498 23.8755H24.0659V19.9524L18.6483 21.696C17.9871 21.9202 17.2914 22.0256 16.5934 22.0073C15.7948 22.0075 15.028 21.6946 14.4575 21.1358C13.8871 20.5769 13.5584 19.8167 13.5421 19.0183C13.5421 18.2091 13.8636 17.433 14.4358 16.8607C15.008 16.2885 15.7842 15.967 16.5934 15.967H19.2088C20.7447 15.967 22.2177 15.3569 23.3038 14.2708C24.3899 13.1848 25 11.7118 25 10.1758Z" stroke="#2E3A45" stroke-linecap="round" stroke-linejoin="round"/>
<path d="M15.9102 10.1797V16.0331" stroke="#2E3A45" stroke-linecap="round" stroke-linejoin="round"/>
<path d="M9.55859 12.666L14.1044 17.2118" stroke="#2E3A45" stroke-linecap="round" stroke-linejoin="round"/>
<path d="M8.62109 19.8906H13.665" stroke="#2E3A45" stroke-linecap="round" stroke-linejoin="round"/>
<path d="M16.9688 22.1328V23.8764" stroke="#2E3A45" stroke-linecap="round" stroke-linejoin="round"/>
<path d="M19.5805 12.2922C19.5805 12.4287 19.4698 12.5394 19.3332 12.5394C19.1966 12.5394 19.0859 12.4287 19.0859 12.2922C19.0859 12.1556 19.1966 12.0449 19.3332 12.0449C19.4698 12.0449 19.5805 12.1556 19.5805 12.2922Z" fill="black" stroke="#2E3A45"/>
<circle cx="17" cy="17" r="16" stroke="#2E3A45"/>
</svg>
