<svg width="34" height="34" viewBox="0 0 34 34" fill="none" xmlns="http://www.w3.org/2000/svg">
<path d="M6 6L28 28" stroke="#2E3A45" stroke-linecap="round"/>
<path fill-rule="evenodd" clip-rule="evenodd" d="M16.6983 27.4515C21.5104 25.8474 23.9164 23.1701 23.9164 19.4195V16.6242H9.48011V19.4195C9.48011 23.1701 11.8862 25.8474 16.6983 27.4515ZM11.2847 10.6091L14.6227 9.65535C15.1392 9.50779 15.4953 9.03574 15.4953 8.49861V7H17.9013L17.369 8.06467C17.0718 8.65894 17.3127 9.38157 17.907 9.6787C17.9855 9.71796 18.0681 9.7485 18.1532 9.76979L21.5104 10.6091C24.0875 11.2534 25.685 13.8052 25.1736 16.3826L25.1195 16.6242H8.27708L8.13614 16.0605C7.54393 13.6916 8.93685 11.2799 11.2847 10.6091Z" fill="#F7F4E8" stroke="#2E3A45" stroke-linecap="square"/>
<circle cx="17" cy="17" r="16" stroke="#2E3A45"/>
</svg>
